<?xml version="1.0" standalone="no"?>
<!DOCTYPE svg PUBLIC "-//W3C//DTD SVG 1.1//EN" "http://www.w3.org/Graphics/SVG/1.1/DTD/svg11.dtd" >
<svg xmlns="http://www.w3.org/2000/svg">
<metadata></metadata>
<defs>
<font id="rockletter_simpleregular" horiz-adv-x="1796" >
<font-face units-per-em="2048" ascent="1638" descent="-410" />
<missing-glyph horiz-adv-x="1024" />
<glyph horiz-adv-x="0" />
<glyph horiz-adv-x="682" />
<glyph unicode=" "  horiz-adv-x="1024" />
<glyph unicode="&#x09;" horiz-adv-x="1024" />
<glyph unicode="&#xa0;" horiz-adv-x="1024" />
<glyph unicode="!" horiz-adv-x="630" d="M106 1065v37q16 10 17 31q0 45 -2 41l14 8q-6 27 -6 30q31 31 41 50q-4 4 18 26q45 12 56 23q35 4 37 12q-6 2 53 2q29 0 41 -14q6 4 12 4t15.5 -8.5t17.5 -8.5l10 2q66 -76 82 -114q0 -31 8 -37l6 -145q-14 -8 -14 -27q0 -66 2 -31q-2 -12 -16 -28v-29l-13 -8 q4 -20 4 -27q0 -8 -16 -23q0 -23 -10 -26q2 -8 -7.5 -21.5t-9.5 -19.5l3 -10l-15 -23l-12 -8v-16l-14 -9q-18 -39 -27 -59q-6 -2 -22.5 -21.5t-51.5 -25.5q-53 45 -53 72q-16 12 -33.5 50t-32.5 48q6 16 -14 42.5t-20 39.5l4 18l-15 17q0 29 -14 30v6q0 -8 4 25q2 14 -12 21 v81q-14 6 -15 23zM129 217q0 16 6 33q6 4 10.5 21.5t12.5 21.5q31 51 71 59q4 12 21 13q29 0 31 12h53q29 0 41 -12q37 -2 51 -13h4q49 -37 55 -59q14 -2 15 -17q0 -22 8 -26q4 -33 4 -45q0 -29 -14 -41q-2 -31 -13 -45v-4q-16 -14 -33.5 -29.5t-35.5 -17.5q-2 -12 -19 -13 q-27 0 -30 -6l-86 -4l-11 12h-30l-11 11q-49 29 -67 47q-33 80 -33 102z" />
<glyph unicode="&#x22;" horiz-adv-x="739" d="M100 1237q0 10 4 20q2 2 21 27q12 14 29 14h4q6 14 30 15q25 0 31 -15q16 4 24.5 -7t14.5 -13q-6 -16 14 -21v-55q-14 -4 -15 -32.5t-13 -32.5v-56q-14 -4 -15.5 -32.5t-13.5 -32.5v-55q-10 -2 -10 -19v-29q-2 -14 -21 -14h-4q2 20 -11 56t-13 53q2 10 0 12h-4 q2 20 -11.5 56t-13.5 52q2 10 0 13h-4q2 18 -10.5 49t-12.5 47zM461 1237q0 10 2 20q2 2 20 27q12 14 29 14h4q6 14 31 15q27 0 31 -15q16 4 25 -7t13 -13q-4 -16 15 -21v-43q-12 -4 -14.5 -32.5t-14.5 -32.5v-55q-14 -4 -14 -21v-37q-14 -8 -15 -26v-35q-14 -6 -14 -17 q0 -4 3 -14t3 -16t-24 -29q-6 6 -5 29.5t-10 32.5l-10 59h-4q0 20 -12 55q-4 10 -8 41q-2 25 -7 25h-2q2 18 -10 49t-12 47z" />
<glyph unicode="#" horiz-adv-x="1648" d="M129 516l12 35l15 8q-4 6 -4 14q0 16 20 33l-2 12l14 25l232 4q31 37 41 58v28l12 8q-4 6 -4 13q0 16 22 34l-4 13l15 35q20 4 14 18l-37 41h-186l-4 14l20 41l-4 13l23 55l14 8v25l223 4q25 18 51 39q31 0 17 63l18 17l-4 18l25 41l-2 10q10 4 12 23.5t14 21.5 q-4 8 -4 15q0 18 21 34l-2 13l18 12h176l4 -14q0 -10 -16.5 -32t-16.5 -32q0 -47 -20 -53q4 -6 4 -12q0 -16 -20 -33l2 -12q-12 -2 -13.5 -23t-13.5 -23v-34q23 -29 37 -39h217l31 22q18 14 16 29l-2 10q12 4 14 24.5t15 24.5q-4 8 -4 15q0 16 20 30q-6 6 -2 15q4 6 12 6v29 l29 43l-2 12q6 4 13 25.5t20 21.5h172l6 -19l-14 -36l-15 -9q4 -6 4 -12q0 -16 -20 -35q6 -12 -47 -114q4 -6 4 -13q0 -16 -21 -34l39 -35h183l4 -33l-15 -8q2 -2 4 -6q0 -6 -9 -16.5t-9 -16.5l2 -8q-31 -20 -31 -54q0 -8 2 -18h-227q-55 -80 -72 -119q4 -8 -6 -25.5 t-6 -25.5l-18 -31l4 -20l30 -27l23 -2q143 0 164 -2l6 -20q-12 -27 -33 -41l4 -19q-20 -51 -37 -76l-231 -4l-35 -43q6 -6 2 -12q-6 -6 -12 -6v-29l-27 -31q6 -6 6 -14q0 -14 -20 -31l4 -12q-10 2 -13 -14.5t-14 -16.5q4 -8 5 -14q0 -18 -23 -37l4 -12l-12 -21h-197l31 39 l-8 15q8 4 12 25.5t14 25.5v27l29 32q-2 4 -2 8q0 8 9 21.5t9 19.5t-4 11l17 24l-2 19l-37 26h-217l-52 -43q0 -35 -49 -110q2 -4 2 -11q0 -6 -9 -18t-9 -18l2 -13q-14 -10 -27 -30q2 -8 2 -17q0 -20 -16 -35h-176l-4 31l12 37l14 6v29l15 8q2 18 26.5 61t24.5 64 q0 66 -94 65q-18 0 -56 -3t-57 -3zM631 688q0 -10 12 -22.5t12 -14.5h256l27 23q0 8 8 20.5t8 18.5l-2 8l13 8q-4 8 -4 12q0 8 10 15.5t10 15.5q-4 6 -6 12q14 4 14 17q0 27 12 30l3 17q2 25 -29 43h-238q-2 -6 -23.5 -21.5t-21.5 -25.5q0 -6 4 -15q-12 -2 -12 -18 q0 -25 -14 -27q4 -12 -3.5 -23t-7.5 -13l3 -7q-10 -6 -14.5 -25.5t-10.5 -17.5h-4z" />
<glyph unicode="$" horiz-adv-x="1269" d="M102 424l2 12l13 8l14 48l41 16l18 -12q29 2 101 -64v-10q96 -84 162 -109l10 -10h108q25 0 55.5 34t30.5 58l-4 27l-14 10l6 4q-12 20 -52 44t-52 40h-15q-35 20 -67 33q-4 -4 -10 0q-8 6 -9 10q-117 35 -153 70l-6 -2l-35 24h-6q-88 100 -88 103q-35 51 -35 129l14 51 q-2 6 -2 12t9 19.5t9 23.5l-4 13l41 49v10q18 10 48 37.5t53 34.5q23 27 100 49q68 20 115 22v4q90 4 90 31q0 72 -2 49q4 39 24 39h142l10 -39l-6 -45q37 -43 127 -55q14 4 36.5 -5t30.5 -9q25 0 25 -9h18l9 -12h18l8 -12q29 0 86 -51q-2 -6 -2 -15q0 -18 14 -41l-2 -16 q-18 -2 -18 -18l4 -17l-53 -37h-55q-16 0 -76 27l-6 -2l-101 90q-29 -6 -49 25q-4 -2 -6 -5q-8 0 -12 17h-33l-8 12h-64q-53 0 -137 -67l-2 -21q0 -80 180 -154q16 2 43 -11t41 -13h12q78 -45 101 -45l12 2l205 -123q-4 -10 9 -21.5t13 -17.5v-4q41 -29 41 -68v-94 q-16 -8 -16 -35q0 -10 2 -24l-27 -33v-16q-18 -2 -36 -47v-5q-8 -12 -36 -25t-36 -26q-70 -20 -107 -39q-53 6 -63 -16q-55 6 -76 -8q-39 2 -78 -31q10 -96 -43 -96h-22q-23 0 -31 -15h-31q-49 0 -49 39q0 76 -2 82q-12 37 -72 33l-51 -4q-4 4 -77.5 23.5t-90.5 21.5l-8 10 q-115 12 -115 158z" />
<glyph unicode="%" horiz-adv-x="1861" d="M106 1042l15 19q-2 31 12 37q-2 4 -2 8q0 6 9.5 14t9.5 15l-3 10q25 14 27 35q14 12 83 52t77 40q35 2 41 12h123l8 -12q6 2 12 2t20.5 -9.5t22.5 -9.5l14 5q14 -14 58 -37q63 -37 92 -107l12 -12q-2 -8 -2 -12q0 -12 8 -15q0 -39 13 -43l6 -127l-14 -18q0 -31 -15 -37 q4 -6 4 -14q0 -18 -33.5 -54t-33.5 -43v-4q-12 2 -34 -17.5t-34 -19.5l-4 2l-18 -12q-29 0 -33 -12q-35 0 -41 -12h-109l-22 12q-35 0 -41 12q-6 -2 -10 -2q-6 0 -16.5 7t-16.5 7h-12q-4 2 -13.5 12.5t-17.5 10.5h-6l-72 59q-2 23 -26.5 72t-28.5 72h-4q-6 76 -5 114z M319 1081l7 -145q0 -2 16 -57q10 -35 33 -48q0 -18 28.5 -34.5t47.5 -16.5q27 0 84 51q-4 8 12 25l-4 162q-2 2 -16.5 45t-32.5 53q0 12 -15 27q-20 16 -22 22h-70l-53 -49v-4q0 -31 -15 -31zM485 252q-2 8 82 108l-2 9q31 16 56 55l-7 4q10 6 25.5 30.5t30.5 28.5 q-4 10 12 23.5t16 19.5l-2 9q14 2 24.5 24.5t22.5 24.5q-6 10 13.5 24.5t19.5 22.5l-2 8l29 19q-6 8 11 24t15 25l13 14l-4 4q10 6 26.5 28.5t28.5 26.5q-4 6 -4 13q0 12 20 20l-2 6q12 6 27.5 28.5t26.5 29.5v14l36 41v14l15 8q-4 20 26 43v5q35 55 45 59q57 84 60 88 q-4 8 13.5 23.5t12.5 23.5l15 17l-4 4q10 6 25.5 27.5t27.5 27.5l18 31q4 -10 21 -13q39 -2 39 -14l51 -20q2 -6 23.5 -16.5t21.5 -22.5l-29 -31l2 -6q-82 -70 -118 -111q-2 -10 -21.5 -30.5t-19.5 -32.5l-29 -29l2 -6l-39 -39l2 -4l-29 -21q8 -18 -26 -43v-4l-78 -88 q4 -10 -12.5 -22.5t-16.5 -20.5l2 -8l-28 -29l2 -6q-27 -25 -37 -39q8 -20 -29 -45l2 -4q-10 -6 -44 -51t-36 -55l2 -9l-28 -28l2 -6q-10 -2 -18.5 -17.5t-14.5 -17.5l-8 -25l-14 -8v-16l-15 -7l6 -8q-23 -31 -28 -49q-10 2 -13.5 -14.5t-13.5 -16.5q4 -6 4 -12 q0 -12 -20 -18l2 -8l-15 -9v-16q-31 -23 -45 -37q-8 0 -24.5 13.5t-24.5 13.5l-4 -2q-41 33 -72 53zM1102 510v61l14 19q0 33 12 37v16l15 8v15l14 8v16l12 8q16 45 70 60q33 27 53 35q6 -2 13 -2q10 0 29.5 10t31.5 8l4 8h123l8 -12q6 2 12 2q8 0 22.5 -8t23.5 -8l12 2 q35 -25 53 -35q51 -29 70 -53q-2 -2 -4 -7q0 -4 9 -8t9 -10l-2 -6q2 -4 16.5 -20.5t14.5 -26.5l-4 -13q14 -4 14 -24q0 -31 14 -35v-111q-12 -6 -14 -28.5t-14 -26.5l4 -8q0 -8 -8.5 -18.5t-8.5 -16.5v-8l-14 -8q2 -12 -21.5 -31.5t-23.5 -32.5q-2 0 -64.5 -33.5 t-91.5 -33.5h-125l-10 12q-6 -2 -12 -2q-8 0 -22.5 8t-22.5 8q-16 0 -30.5 9.5t-20.5 9.5h-11l-82 73q-2 4 -8 25q-6 12 -18 20q4 10 -6.5 21.5t-10.5 15.5l2 11q-14 4 -14 20q0 27 -4 31h-4q-4 20 -4 49zM1321 477h4q16 -74 23 -80q23 -33 22 -43q25 -27 33 -24h8 q6 -12 25 -13h39q4 6 29.5 23.5t25.5 33t7 43t7 42.5q0 16 -6 88q-8 6 -8 20q0 29 -10 31q10 33 -31 66.5t-76 33.5h-29l-55 -47v-8q0 -27 -8 -29v-137z" />
<glyph unicode="&#x26;" horiz-adv-x="2011" d="M106 573l3 58q12 4 14 28.5t14 30.5q-4 6 -4 15q0 14 19 24v10q16 33 122 113q96 72 97 98l-2 8q-20 6 -33 74q-10 53 -10 88l14 37l14 8q4 92 168 146q125 41 248 41q41 0 107 -17q80 -18 106 -22q4 -12 39 -31.5t35 -44.5l-19 -43l-69 -12q-14 0 -49 7t-56 5l-10 12 h-66q-70 0 -113.5 -45t-43.5 -114l14 -43l-6 -5l92 -77q57 -10 98 -27l7 -45l-62 -74l-49 -12q-2 12 -18 12q-43 4 -48 12l-20 5q-20 0 -43 -19q-29 -25 -37 -26l-14 -37v-129q41 -66 53 -103q-12 -78 160 -145q147 -57 248 -58q31 0 108.5 54.5t77.5 81.5v84q-33 27 -66 53 q-43 31 -77 31q-39 0 -91 -39l-51 -4l-20 55l28 72q12 6 37 30q18 23 39 25q8 10 34 22.5t34 22.5q82 25 190 82q35 -8 175.5 68.5t164.5 113.5l-4 4l31 39l-2 55q-80 74 -111 74q-16 0 -42.5 -16.5t-43.5 -16.5l-16 2l-6 45l125 89l8 -3q4 12 20 15q43 2 47 10l60 2 q47 2 139 -41l10 2q4 -6 33 -31q21 -18 25 -34q43 0 43 -140q0 -12 -9.5 -42.5t-5.5 -49.5l-14 -8l-29 -61q-66 -41 -205 -112t-204 -112l-2 -12q14 -39 45 -80l-4 -12q29 -12 28 -119q0 -84 -61.5 -169t-138.5 -118q-4 -8 -31 -20t-31 -25q-121 -39 -141 -49q-8 2 -17 2 q-23 0 -51 -16l-18 2q-12 -12 -50 -10t-51 -6l-213 -5q-16 0 -79.5 10.5t-67.5 22.5q-94 27 -100 27l-15 -2l-61 39l-10 -2q-133 74 -152 125q-16 8 -35 32q-10 20 -22 41l4 4l-31 62q-10 90 -27 153z" />
<glyph unicode="'" horiz-adv-x="378" d="M104 1241q0 10 5 21l14 8q-4 14 16 24q29 14 31 17l12 2q-2 0 56 -15q35 -55 34 -75q0 -11 -2 -21q-14 -4 -14 -16q0 -4 3 -14.5t3 -16.5q0 -8 -6 -14q-12 -4 -12 -15q0 -6 2 -15t2 -15l-2 -11q-14 -6 -15 -26q0 -39 2 -35q-14 -6 -15 -33.5t-13 -34.5l-2 -6 q0 -39 -8 -39h-15l-10 50h-4q2 20 -12.5 53t-12.5 45v18q-10 8 -10 21q0 4 3 14t3 16q0 14 -20 21q8 12 8 25q0 12 -10.5 33.5t-10.5 33.5z" />
<glyph unicode="(" horiz-adv-x="999" d="M102 483v189l29 84q-2 6 -2 12q0 10 10.5 29.5t10.5 29.5l-5 15q12 4 14.5 24.5t14.5 22.5q-4 6 -4 12q0 12 23 21l-5 8q12 2 14.5 20.5t8.5 22.5q23 16 25 18l-5 13l37 40q0 12 21.5 32t21.5 30q92 78 144 113q25 -4 51 24h6q35 20 133 64q106 45 131 45q111 0 111 -31 l-33 -45h-14l-90 -74q-70 -59 -68 -80q-6 -4 -11 -26.5t-16 -26.5q-20 -31 -16 -59v-19q-29 -35 -29 -119q0 -27 2 -59l-16 -8v-393l16 -9v-110q12 -8 13.5 -40t9.5 -40q0 -68 86 -213v-4l43 -45v-6l108 -90l2 -7q0 -25 -47 -43l-65 19q-45 0 -66 10l-8 12q-174 49 -203 84 l-8 -2l-57 45q-45 35 -62 37q-27 47 -90 88q8 27 -28 45v9l-25 26l2 6l-29 49q-25 2 -24 37q0 27 -25.5 87.5t-25.5 91.5q0 14 4 26z" />
<glyph unicode=")" horiz-adv-x="1001" d="M111 -158l2 13q29 18 94 77q57 55 96 74l29 47q-2 4 -2 10q0 8 9 23.5t9 24.5l-2 8q31 27 31 80q0 12 -2 28l14 6v113l14 8l-6 394l-12 12q0 76 -14 182h-6q-41 156 -91 211l5 4l-29 35l2 6l-111 90q2 6 2 10q0 14 -18 27l2 8l43 19l39 -4q6 -8 30.5 -9.5t30.5 -13.5 q8 4 19 4q18 0 41 -18l12 2l86 -37l8 -12l43 -13q6 -10 33 -22t35 -23h12q33 -41 72 -49q188 -211 223 -302t39 -376q-14 -6 -14 -20q0 -6 3 -18.5t3 -18.5q0 -2 -18.5 -39t-12.5 -70l-14 -8l-15 -49q-10 0 -13 -17.5t-15 -15.5q6 -8 6 -14q0 -12 -23 -19l4 -10 q-4 -8 -29.5 -37.5t-23.5 -44.5q-88 -78 -129 -121q-12 2 -34.5 -17t-35.5 -19q-6 -8 -34.5 -22.5t-32.5 -27.5l-137 -57q-14 4 -39 -5t-35 -9q-6 0 -12 2q-12 -14 -39 -15q-72 0 -56 3z" />
<glyph unicode="*" horiz-adv-x="1024" d="M104 1044l5 41l14 9q-4 8 -4 14q0 2 47 49q23 2 37 6v6q92 -18 110 -67q70 -57 99 -58q25 0 67 41q-4 4 -2 29q0 18 -12 23q2 10 -13.5 24.5t-15.5 20.5v4q-18 27 -28.5 40t-14.5 46l15 16q0 33 45 49q33 14 71 15q14 -6 27 -13q6 2 12 2q6 -2 49 -32q-2 -10 6.5 -28.5 t8.5 -23t-9.5 -17.5t-5.5 -21l-14 -15v-10q-20 -29 -33 -37l-6 -20q-14 -6 -14 -25v-35q31 -29 71 -28h29q45 41 68 63l-6 4q6 2 26.5 22.5t36.5 20.5l12 -2l29 12q2 0 19.5 -8t29.5 -4q2 -10 24.5 -24.5t22.5 -26.5l-6 -16l17 -21l-3 -29q-6 -2 -16 -25.5t-31 -23.5 l-24 -12q-25 2 -27 -12h-10l-25 12q-33 -4 -37 12h-94q-16 -12 -30 -24q-23 -16 -23 -29q49 -55 61 -68q12 4 27.5 -5t22.5 -9l12 2l10 -12h19l10 -12l28 -13q0 -20 15 -20l6 -37q0 -23 -16 -29q2 -18 -48 -53q-12 0 -34.5 -7t-32.5 -7l-33 14q-18 -2 -47 33l4 4l-18 16 q-2 82 -4 99q-14 63 -64 63q-57 0 -74 -57q-8 -31 -6 -97l-14 -16v-20q-6 -2 -17.5 -14.5t-21.5 -12.5l-8 2l-29 -14q-27 2 -43 0q-61 35 -61 43q-25 31 -25 65q0 45 96.5 82t96.5 72q0 37 -39 61h-60q-31 0 -45 -12q-51 4 -53 -12h-10l-8 12q-14 -4 -76 27q6 35 -15 38z " />
<glyph unicode="+" horiz-adv-x="1267" d="M100 750l410 8l27 22l4 365h186l4 -365l31 -26h401l4 -150l-8 -8h-401l-27 -27v-356l-8 -8h-178l-8 8v356l-27 27h-133q-199 0 -273 4z" />
<glyph unicode="," horiz-adv-x="614" d="M106 233q0 27 17 41q-2 6 -2 13q0 43 74 86q4 -2 10 -2t11 8t11 8h11q20 14 55 14t55 -14q6 2 10 2q8 0 18.5 -8t18.5 -8h11q78 -84 77 -99l-6 -12l19 -24q-2 -29 6 -35l4 -129l-12 -19q0 -10 2 -24q2 -8 0 -15q-4 -6 -17 -20q6 -35 -10 -39q0 -8 -9 -21.5t-9 -19.5 l2 -10l-15 -17q-6 -12 -14 -16q4 -10 -12.5 -25.5t-16.5 -21.5v-6l-14 -10q6 -10 -9.5 -22.5t-15.5 -16.5l2 -7q-4 -2 -45 -40q-29 -27 -55 -27h-10l-10 14h-19v13q49 57 82 112q-4 10 6 22.5t10 18.5l-4 12l17 9v53q0 29 -17 39q6 20 -37 45q-10 -2 -21 6t-15 8h-7 q-4 6 -20 9t-18 12q-14 -2 -28.5 14t-21.5 18q2 4 2 7q0 6 -9 11t-9 11l4 8l-14 13q6 27 -10 30q-2 -8 -3 51z" />
<glyph unicode="-" horiz-adv-x="776" d="M106 444q0 29 15 43v50q10 2 10 14q0 20 10 22q-2 10 9.5 21.5t11.5 17.5l-2 6l14 9v16q10 -2 27.5 7t25.5 9l13 -2l10 -14h418q2 10 2 -43q0 -25 -15 -35l-2 -8q0 -35 -14 -37v-28l-14 -9v-28l-13 -11q0 -2 2 -6q0 -6 -14 -15t-14 -15l2 -9l-15 -8h-325q-55 0 -135 4 q-6 37 -7 49z" />
<glyph unicode="." horiz-adv-x="643" d="M106 240q0 29 17 39q-2 6 -2 12q0 8 8 18t8 15v10q14 2 15 18v6l57 37q12 -2 26.5 7.5t22.5 9.5l14 -2q10 12 39 12q63 0 56 -2l10 -10q29 2 72 -27q12 2 49 -29q14 -41 28 -49q-4 -31 15 -39l-6 -76q-8 -2 -9.5 -18t-9.5 -18q4 -10 -15.5 -26.5t-19.5 -23.5v-8 q-14 2 -34.5 -16.5t-32.5 -18.5q-41 0 -41 -12q-47 -4 -60 -4q-35 0 -51 12q-6 -2 -12 -2q-8 0 -14.5 9.5t-14.5 9.5l-12 -4q-16 27 -39 26h-4q0 8 -15.5 23.5t-15.5 23.5l2 7q-14 2 -14 14q0 25 -10 26q-6 35 -7 50z" />
<glyph unicode="/" horiz-adv-x="808" d="M117 -43q16 4 16 31q0 8 -2 20l14 8v29q31 27 31 70q0 12 -2 26q14 4 16.5 29t12.5 31l-4 32q12 2 14 24t14 22q-2 8 -2 14q0 10 10.5 29.5t10.5 29.5l-4 15q31 31 30 73q0 12 -2 27q35 14 31 61l-2 23l14 14v35l13 14q-2 10 -2 17q0 18 14 24l14 33q-2 6 -2 12 q0 10 9.5 30t9.5 30l-2 16q31 35 30 78q0 10 -2 23l15 8q-4 12 7 34.5t11 28.5t-4 10l14 15v37q12 2 11.5 25.5t13.5 27.5q-2 12 -2 20q0 25 16 27l15 37q-2 6 -3 12q0 10 10.5 30.5t10.5 31.5l-4 14q16 2 16 29q0 10 -2 22l17 27l-2 18l43 17h120v-13q-12 -2 -11 -25.5 t-13 -27.5q4 -6 4 -14q0 -10 -10.5 -30.5t-10.5 -31.5q0 -6 2 -12l-16 -23l2 -16q-12 -2 -13 -26.5t-16 -26.5q2 -6 2 -15q0 -10 -9 -30.5t-9 -32.5l2 -14q-31 -27 -31 -72q0 -12 2 -25q-12 -2 -11 -25.5t-13 -27.5q4 -8 4 -14q0 -10 -10.5 -30.5t-10.5 -31.5q0 -6 3 -12 l-17 -22l2 -17q-12 -2 -13 -26.5t-15 -26.5q2 -6 2 -14q0 -10 -9.5 -31t-9.5 -33l2 -14q-4 -4 -28.5 -73t-24.5 -77q0 -45 -14 -47q-16 -27 -17 -55q0 -12 2 -23q-31 -29 -30 -71q0 -12 2 -25q-16 -4 -17 -31q0 -8 2 -20l-14 -8l4 -33q-16 -4 -16 -21q0 -2 2 -10v-10 q0 -14 -15 -18q4 -6 4 -13q0 -10 -10 -29.5t-10 -29.5q0 -84 -74 -84q-111 0 -100 2z" />
<glyph unicode="0" horiz-adv-x="1544" d="M70 616l4 228h6q4 41 22 123l19 12l-2 14q0 39 47 80v19l18 12l-2 4l33 43l-2 6l131 117l6 -2q63 39 162 80q115 47 168 47h201q4 0 20.5 -7.5t32.5 -2.5l22 -15h52l12 -16q88 -29 180 -111q104 -92 148 -114q6 -25 51 -105q43 -72 43 -106q0 -10 -2 -15q35 -18 35 -321 q0 -12 -9.5 -41t-9.5 -43q-18 -14 -18 -37q0 -8 2 -19l-19 -18l6 -22l-18 -9v-20q-18 -10 -42 -56.5t-40 -58.5l2 -10q-147 -125 -209 -162q-127 -78 -260 -76l-164 2v4l-127 21q-4 10 -69 33l-11 -2q-68 35 -139 80q-35 23 -85 86t-81 84l4 10q-23 31 -26 33q0 6 4 8 q-23 29 -68 147l4 17q-33 37 -32 79zM598 678l12 -12q-6 -35 31 -125q29 -66 55 -129q74 -70 111 -70q29 0 63.5 26.5t38.5 53.5l19 10q-4 43 16 45l-6 271h-6q-14 86 -23 90q4 70 -35 125q-10 14 -92 100h-86l-43 -37q-27 -23 -26 -43q-8 -6 -11.5 -27.5t-11.5 -27.5z" />
<glyph unicode="1" horiz-adv-x="1415" d="M70 174q0 86 159 86q14 0 90 -4l46 27l-5 14q18 14 19 37q0 8 -2 16l18 12v160l17 15v442q-10 23 -39 40t-41 30h-162l49 -2q-57 2 -100 16l-19 35q-6 68 97 127q74 43 170 63q33 29 104 41q90 16 115 25l28 -4q31 0 39 24q14 -2 58 -2q27 0 76 13.5t75 13.5h242l45 -10 q41 -43 55 -80q4 -37 -63 -72q-76 -39 -84 -63l-17 -11l-18 -47v-639q0 -121 104 -196h29v-5l14 3q16 0 52 -12.5t55 -12.5q10 0 16 2l35 -16q19 -31 19 -76q0 -63 -76 -88q-27 -8 -121 -35q-25 2 -69 -6t-64 -8h-551l-19 14h-149q-31 16 -82 14l-10 17q-14 -8 -99 24 q-37 70 -36 78z" />
<glyph unicode="2" horiz-adv-x="1579" d="M70 111q0 12 14 26l25 25l-5 10q35 14 46 53q135 115 258 240q201 203 208 278q18 18 28.5 64.5t6.5 75.5q-68 70 -141 69q-41 0 -131 -53q-98 -57 -143 -65q-43 27 -68 20q-33 18 -61.5 75.5t-20.5 92.5l18 12q8 29 35 58l-6 6q92 100 262 180t301 80h260 q18 0 61.5 -13.5t68 -13.5t92.5 -33q61 -29 90 -51l10 2q121 -131 121 -170q0 -12 -6 -20l18 -10v-111q0 -2 -19.5 -37t-15.5 -47l-16 -10v-21q-41 -61 -191 -190l2 -10q-39 -12 -86 -64q-57 -61 -77 -78v-63q20 -29 65 -35q14 -2 78 -2q14 0 114.5 63.5t155.5 63.5 q31 -18 52 -62q24 -49 36 -59q0 -6 -34 -246q-14 0 -15 -24q0 -57 -88 -125t-147 -64l-27 2q-20 8 -62 48t-67 51l-14 -2l-13 14q-88 0 -266 -6t-266 -6q-356 0 -424 47z" />
<glyph unicode="3" horiz-adv-x="1423" d="M70 182q2 92 73 142h84q31 -20 70 -15q37 -14 86 -12v-2q94 -6 106 -6q68 0 144 33q92 41 92 96q0 61 -12 84q-6 14 -58 73l-8 -4l-37 17v4h-151q-160 4 -154 135l2 43q145 61 250 139l-4 9q0 4 11 13t11 13q0 6 -4 8l17 27q0 137 -164 137q-8 0 -55 -12t-54 -17 q-35 -23 -67 -22q-94 0 -94 149q25 23 59 62q4 -2 78 29.5t86 40.5l10 -3q57 20 80 21q10 0 35.5 10t38.5 10h229v-6q102 0 195 -28l10 -15q137 -39 184 -123q18 -31 29 -36l10 -33q0 -63 -14 -109q4 -2 4 -8t-7 -20.5t-7 -20.5l-15 -6q-23 -27 -76 -80h-14l-51 -47 q33 -23 72 -37l12 4q43 -16 127 -37q111 -113 110 -157q0 -8 -2 -15q16 -41 17 -69q0 -63 -11 -97q-3 -14 -36 -90l6 -18q-41 -41 -101 -125h-20q-53 -51 -236 -135h-12q-39 0 -106 -19q-74 -18 -107 -20v-2l-254 -4q-33 6 -100 12q-29 18 -70 12l-10 13q-49 4 -74 14 l-55 22l-6 7q-6 6 -8 6q-25 14 -52 20z" />
<glyph unicode="4" horiz-adv-x="1382" d="M70 354q0 94 28 152l-2 6q0 2 10.5 12.5t10.5 16.5q0 2 -2 4q25 51 28 55q18 33 41 49l-2 4l320 367q156 178 354 346l6 -2q6 8 74 40t78 32q82 0 104 -6q14 -8 80 -54v-493l-14 -13v-276q129 -18 129 -45q0 -201 -15 -273l-53 -10q-31 -6 -47 -24v-207q-86 -25 -235 -25 q-168 0 -150 -2q-100 6 -133 39v211l-512 6q0 6 -10 10q-8 4 -13 -2q-76 33 -75 82zM332 569q55 -41 65 -41h283l61 52v338l-45 36h-69l-125 -106q-2 -18 -21 -33q-8 -10 -35 -27q2 -10 -26.5 -43.5t-42.5 -44.5q2 -4 -31 -47l2 -4q-4 -6 -16 -10v-70z" />
<glyph unicode="5" horiz-adv-x="1300" d="M70 715q0 27 11 78t11 77l14 52l15 8v28q8 0 12 7l4 10q-2 4 -4 6l21 37l-4 12l16 8v29q6 25 43 72l-6 12q0 61 43 68v28h8q14 10 14 35q23 31 35 45q25 27 49 29l6 8h832q41 -27 41 -104q0 -14 -10.5 -47t-6.5 -54l-14 -8l-14 -37l4 -4q-68 -92 -115 -92h-540l-41 -27 q4 -2 4 -6l-9 -10q-10 -10 -8 -14q10 -23 35 -39h53v-4l82 -9v-4l68 -6q14 -12 41 -12l20 -13h49l11 -12h32q4 -12 15 -12q4 0 6 2l70 -25l16 2l37 -26l6 2l92 -60q51 -39 76 -79l-4 -4q33 -35 33 -97h6q6 -53 4 -121q-16 -14 -17 -34q0 -8 2 -17q-14 -2 -24 -43 q-23 -25 -29 -49l-129 -113h-6q-35 -10 -100 -57h-6l-48 -14h-10q-27 -18 -88 -31.5t-84 -26.5q-16 0 -48 -6t-48 -6h-221q-14 0 -41 6t-41 6q-25 18 -60 13l-8 12q-88 31 -114 57q-35 35 -27 115l2 20l14 9q6 39 68 39l33 -15q6 2 14 2q12 0 35.5 -6t36.5 -6q8 0 14 2 l14 -12h146q45 0 87 57t34 103q-66 80 -166 114l-13 -2q-14 0 -42.5 12.5t-43.5 12.5l-24 12q-63 -8 -137 23q-84 35 -84 94z" />
<glyph unicode="6" horiz-adv-x="1345" d="M70 705q10 12 33.5 92t19.5 90q16 4 16 14q0 4 -2 10l17 11v16l14 8l25 62q16 4 28 39q29 51 98 106v16q41 27 115 93.5t117 93.5l14 -4l39 14l53 -2q0 -6 11 -10q10 -4 14 2q6 -2 74 -21q29 -8 78 -43q68 -47 67 -65q0 -18 -18 -19v-18q-10 0 -11 -12q0 -4 2 -7 q-135 -115 -200 -210l4 -7l-14 -36l38 -7l39 23q47 0 64 18h147q25 -20 60 -14l10 -12q6 2 10 2q14 0 19 -17q100 -16 151 -104l70 -164h4v-149h-4l-4 -60l-17 -8l4 -14l-22 -37l4 -13q0 -12 -18 -32q-23 -27 -25 -33q-45 -20 -113 -84q-72 -70 -108 -90q-86 -49 -211 -62 v-2l-203 -4q-33 16 -113 25q-2 8 -19 13t-19 11q-49 10 -117 54q-78 49 -84 88l-25 18v2l-84 142l2 22l-20 35q2 18 -10 240zM545 631q4 -104 6 -119q4 -33 39 -111q10 -8 53 -51q33 -33 64 -33q43 0 108 78l-6 137l-12 37q-12 37 -25 49l4 7l-18 16l4 8q-37 57 -119 58 q-14 0 -29 -2q-4 -6 -29.5 -29t-25.5 -37q-4 -6 -14 -8z" />
<glyph unicode="7" horiz-adv-x="1337" d="M70 1006v157h4l6 60q8 2 10 8q4 10 0 14l21 37l-2 12q23 20 28 52l60 43q23 16 71 28q2 0 74 -26q49 -16 74 -13l14 -14h756q33 0 57.5 -28.5t24.5 -63.5q0 -12 -7.5 -37t-7.5 -37l-14 -10l4 -31q0 -16 -24.5 -61t-18.5 -66l-14 -8v-29q-8 0 -12 -10q-4 -8 2 -12l-23 -37 l4 -12l-14 -11l4 -18l-29 -47l2 -10l-20 -45l4 -13l-14 -8v-29q-8 0 -13 -8q-4 -10 2 -14l-22 -37l4 -12l-14 -8v-29q-8 0 -13 -10q-4 -8 4 -11l-20 -37l4 -10q-35 -55 -29 -76q-8 0 -12 -8t2 -12l-22 -37l4 -14l-15 -8v-29q-8 0 -12 -8q-2 -10 6 -15l-26 -30l8 -15 q-14 -23 -37 -80q-25 -63 -21 -77q-16 -14 -16 -35q0 -8 2 -17l-14 -8q2 -8 2 -12q0 -47 -60 -78q-4 2 -14 2q-10 -2 -10 -8h-154v6l-76 10q-45 8 -69 31h-19q-20 18 -61 64q20 20 20 41q0 8 -2 16q74 113 70 135l10 4q6 29 31 49l-2 4q18 29 59 84l-4 5q0 25 29 38 q4 25 72 123l-5 6q0 23 29 37q2 12 30.5 61.5t41.5 63.5v25l24 35q-4 4 -4 8q0 10 19 12v29q10 0 10 22q0 2 10 13.5t10 15.5l-2 14q-12 23 -43 31v6l-348 4q-8 0 -86 -59.5t-139 -59.5h-21q-119 80 -118 132z" />
<glyph unicode="8" horiz-adv-x="1419" d="M70 500q16 16 16 39q0 6 -2 16l16 6v19q27 18 45 47l-6 6q37 47 92 65q-16 29 -75 70q-76 176 -74 231l2 48h10q-2 43 37 83v17q6 0 8 8q4 6 0 10l103 92l6 -2q49 23 145 68l13 -2q57 8 124 27q37 10 45 10h283q16 0 50 -6t50 -6v-7l142 -30l12 -13h35l8 -14l6 2 q104 -61 138 -116.5t34 -174.5l-14 -10v-31q-23 -2 -16 -20l-107 -92q-35 0 -49 -27q74 -49 131 -102l-6 -4q80 -125 78 -220l-2 -69q-16 -16 -17 -39q0 -6 2 -17l-14 -6v-32q-14 -2 -14 -15q0 -2 -9.5 -12t-9.5 -16q0 -2 2 -5q-6 -4 -47 -50t-106 -76q-72 -35 -136 -62 l-16 2l-47 -18l-12 2q-25 -27 -289 -27q-23 0 -66 7t-65 7q-16 12 -45 13q-10 10 -61.5 23.5t-65.5 25.5q-8 -4 -18.5 5t-12.5 7q-127 72 -176 146q-55 80 -55 219zM418 541q6 -145 45 -168l-4 -4l59 -58q12 4 53 -22l4 2q2 -10 29 -15.5t31 -13.5h137q14 0 111 76v74 q-76 84 -131 102q-18 4 -25 14q-27 -4 -31 13q-12 -4 -28.5 5t-18.5 9h-14q-6 2 -10 12q-25 -4 -29 13q-45 4 -47 14q-10 -4 -19 -4q-8 0 -21 10t-24 10q-18 0 -36.5 -15t-18.5 -32l4 -14q-6 -8 -16 -8zM590 1073q0 -47 76 -106h20q37 -35 48 -35t31.5 -7t31.5 -7 q8 -6 10 -13h45q33 27 33 33q0 4 -2 6q12 8 16 8v31q8 8 14 10l-4 92q-4 2 -10 15.5t-16 15.5q4 12 -25 41q-18 16 -27 17q-4 0 -4 -9v4h-14q-18 14 -49 15h-82l-6 -2l-10 -13q-51 -27 -76 -49v-47z" />
<glyph unicode="9" horiz-adv-x="1341" d="M70 991v27q14 14 14 33q0 8 -2 16q16 0 16 16q0 4 -4 7l21 32l-9 13q33 43 64 86q31 35 86 65q14 25 53 33q23 25 121 55q90 29 133 29h213q20 -14 47 -14q10 0 21 2q80 -29 96 -27l29 -14h6q18 -14 47 -19q10 -23 43 -24l125 -113l-4 -6q14 -10 27.5 -42t23.5 -42 q-2 -12 4 -29l16 -8q-2 -8 -2 -18q0 -23 17 -43v-168h-10q2 -23 -18.5 -85.5t-14.5 -82.5l-15 -8v-29l-14 -10l4 -21l-28 -45l4 -8l-9 -12q-10 -12 -10 -23l-14 -6q-23 -35 -57 -102l4 -3q-23 -37 -58 -63v-4q-18 -23 -28 -51q-25 -8 -25 -33q-43 -20 -90 -84 q-61 -82 -84 -100q-55 -47 -127 -48q-141 0 -287 144l21 16l-6 4q63 57 184 185q-2 6 -2 10q0 12 16 14l-6 23l19 16l-3 27l13 14l-8 29q-53 -12 -193 -13q-18 14 -41 15q-8 0 -18 -2q0 12 -21 12q16 0 -51 14l-18 21h-19q-68 51 -149 180l2 12l-21 37l4 13q-29 16 -28 200z M535 987q0 -57 20 -102q2 -2 8 -15.5t17 -15.5q47 -61 79 -88h21q8 -12 33 -12h49q39 59 53 59v121q-25 33 -29 59q2 10 2 17q-4 2 -12 4q2 10 -14.5 25.5t-16.5 21.5l3 6q-31 29 -54 31q-4 18 -32 18q-39 0 -54 -2l-57 -47v-16l-16 -9v-55z" />
<glyph unicode=":" horiz-adv-x="638" d="M102 250q0 31 17 45q-2 6 -2 10q0 8 9 14.5t9 12.5t-2 10q14 0 14 18v7q2 0 16.5 12t22.5 12h9q59 31 69 29h6q12 10 39 10q63 0 53 -2l15 -12q37 -2 86 -37q16 6 31 -23q18 -37 26 -41q0 -31 15 -36v-25q2 -18 2 -25q0 -25 -17 -34q4 -12 -5 -26.5t-9 -21.5v-6 q-20 -12 -29 -20v-17q-12 4 -30.5 -11t-28.5 -15h-2q-4 -12 -23 -12q-33 0 -35 -13l-88 4l-12 9h-25l-10 12q-10 -2 -26.5 12t-24.5 14h-10q4 12 -17.5 30t-25.5 44q-4 20 -10 21q-6 41 -7 51zM102 836q0 25 17 34v29l14 8v17l14 8q-2 8 33 43q45 10 58 24q35 -4 43 13 l86 -4q41 -16 63 -23q4 -2 15.5 -14.5t21.5 -12.5l10 3q-4 -12 17.5 -31t21.5 -29q0 -35 14 -37q6 -43 7 -51q0 -29 -17 -43q2 -6 2 -10q0 -6 -9 -13.5t-9 -13.5t2 -8l-31 -31l2 -8q-14 4 -30.5 -11.5t-24.5 -12.5h-6q-2 -10 -25.5 -12.5t-28.5 -12.5q14 -2 -57 -2 q-29 0 -43 14q-6 -2 -12 -2t-17.5 8.5t-17.5 8.5l-10 -2l-58 40q-18 41 -28 48q-2 31 -15 36q-2 -12 -2 50z" />
<glyph unicode=";" horiz-adv-x="641" d="M102 236q0 27 15 34v31q14 6 25.5 30.5t23.5 30.5q10 -2 28.5 13.5t28.5 15.5l15 -4q10 14 36 14q66 0 60 -2l14 -12q6 2 10 2q6 0 17.5 -8t17.5 -8l13 2l47 -45l-4 -4q2 -6 16 -21.5t14 -28.5l-2 -14q14 -4 15 -20q0 -29 8 -33l6 -133q-16 -6 -17 -23q0 -55 3 -28 q0 -8 -17 -27q4 -20 2 -31l-14 -8q0 -12 6 -20q0 -6 -20 -19q4 -2 4 -4q0 -4 -7.5 -10t-7.5 -10q-31 -49 -43 -76v-6q-10 -6 -20 -13.5t-10 -17.5q2 -8 -13.5 -18.5t-15.5 -16.5l2 -10q-6 -2 -28.5 -21.5t-41.5 -19.5l-20 4q-2 4 -12.5 11t-10.5 16q49 43 60 53v14l14 10 q-2 8 14.5 22.5t16.5 22.5l-6 13l18 18q-4 33 10 39l6 29q0 27 -28 55q-41 39 -49 47q-6 -2 -13 -2q-8 0 -21.5 7t-19.5 7h-8l-10 13h-21q-16 27 -71 84q2 25 -13 28q-2 -6 -2 48zM102 858q0 25 15 37q4 33 16 47v2q0 2 14.5 11.5t14.5 15.5l-2 10q16 -4 31.5 13.5 t25.5 17.5h6l19 8q31 0 34 12h60q33 0 45 -12q53 -4 78 -35q10 2 24.5 -17.5t22.5 -23.5q16 -35 24 -53l5 -84q-14 0 -15 -16v-21l-14 -8q2 -10 -14.5 -25.5t-16.5 -21.5l2 -4q-88 -37 -100 -37q-12 -12 -43 -12h-58q-37 14 -69 28q-51 23 -51 35v6q-29 27 -39 43 q2 31 -13 37q-2 -16 -2 47z" />
<glyph unicode="&#x3c;" horiz-adv-x="1316" d="M102 512v178q39 12 50 29q23 -6 51 14l6 -2q14 8 148.5 59.5t138.5 51.5l18 -2q0 8 18.5 13t20.5 11q16 -2 45 12.5t43 14.5h12l74 37q45 20 78 20h12q14 18 68.5 32.5t68.5 31.5q20 2 121 36.5t115 45.5h14v-183q-35 -16 -53 -20l-219 -76l-27 -14q-23 -12 -33 -13 l-18 3q-14 -10 -66.5 -26.5t-66.5 -33.5q-29 0 -86 -28.5t-88 -28.5h-19q-10 -18 -41.5 -20.5t-44.5 -18.5q-16 -25 -32 -31l-2 -12q0 -18 51 -42t71 -22h13q6 -8 107.5 -47t115.5 -39l12 2q12 -14 39 -24h19l8 -12q23 6 53 -13h6q12 -6 72.5 -26.5t64.5 -18.5l11 -14 q6 2 12 2q18 0 54 -20.5t50 -20.5l13 2l28 -16v-174h-24l-8 12l-48 14l-10 -2q-6 2 -24.5 14.5t-30.5 12.5l-16 -2l-39 20q-4 0 -82 25q-2 10 -27 12t-27 14q-20 -6 -49 15l-12 -4l-10 14q-43 0 -51 20q-41 2 -58 13q-25 27 -55 26q-8 0 -16 -2l-11 13h-32l-11 12 q-45 12 -57 24q-18 -2 -45 13q-55 18 -80 22l-8 13l-47 14l-13 -2q-6 2 -23.5 14t-29.5 12q-18 0 -39.5 12.5t-31.5 12.5q-59 0 -91 41z" />
<glyph unicode="=" horiz-adv-x="1337" d="M109 289l4 166h1116l4 -162zM113 707v163h1116l4 -159l-1116 -9z" />
<glyph unicode="&#x3e;" horiz-adv-x="1316" d="M109 109v178q8 6 34.5 10t36.5 14q45 14 58 25q16 2 50 18.5t54 16.5q12 10 51 18t49 19q43 0 93 32q20 0 85.5 29t71.5 29l19 -2q66 33 86 32h6q6 6 59 25q45 14 45 33v22q-10 2 -29.5 22.5t-31.5 20.5l-21 -2l-8 13l-47 14l-10 -2q-43 23 -64 33q-41 2 -61 12l-10 12 q-18 -6 -60.5 17.5t-56.5 23.5l-12 -2q-72 27 -107 39q-86 33 -94 45h-35l-8 10h-19l-10 15q-12 -4 -63 11t-51 25l4 179q47 -12 57 -25q8 2 14 2q18 0 33 -16l10 2l29 -15l14 2l11 -12q76 -27 135 -49l18 2l37 -24h21l8 -13q16 2 45.5 -12t44.5 -12h10q10 -8 110.5 -46 t112.5 -38h13q27 -18 43 -25q31 8 102 -35l16 2q0 -10 19.5 -13t19.5 -11q10 2 26.5 -6.5t24.5 -8.5l11 2l10 -14l47 -14l10 2q8 -16 49 -29v-178q-12 -8 -115.5 -51t-111.5 -43l-18 2q-92 -41 -110.5 -46t-39 -9.5t-26.5 -14.5q-135 -59 -158 -59h-6q-49 -23 -76 -29 q-131 -45 -219 -84q-16 0 -73.5 -17.5t-61.5 -27.5q-39 -2 -58 -12z" />
<glyph unicode="?" horiz-adv-x="1179" d="M102 1030q0 -14 7 51l14 9q-6 6 -6 12t10 17t10 20l-4 10q37 47 57 70v6q12 4 36 24.5t42 24.5q2 12 32 24.5t34 24.5q16 -2 44 10.5t42 12.5l10 -3l29 15q43 -6 53 12h143l29 -14h43l16 -13h37q6 -8 49 -18q37 -8 41 -27q8 4 15 5q14 0 22 -21l11 4q37 -43 71 -51 q-4 -12 13.5 -24.5t17.5 -20.5l-2 -8q33 -33 33 -37l-4 -8l28 -52q2 8 2 -47q0 -6 -8 -17t-8 -17q0 -45 -14 -48q6 -10 -11.5 -24t-17.5 -21v-8q-27 -27 -41 -26l-6 2q-39 -39 -58 -39l-32 -27l-11 2q-49 -31 -63 -33q-76 -68 -80 -84q-16 -51 -25 -53q16 -59 -112 -59 l-31 14q-16 -4 -41.5 10.5t-25.5 30.5v88l14 14q-4 29 14 31v17l15 8v16l14 8v17l14 10q27 51 29 53l-4 4q33 29 43 45q-2 8 -2 13q0 8 10 19t10 20l-4 16l14 8v96l-16 23l2 14q-27 20 -53 41q-33 27 -62 27l-32 -4q-4 -6 -31 -30t-27 -38l-14 -8v-125l-16 -20l2 -19l-15 -6 q-4 -31 -61 -51q-47 -16 -88 -17l-33 13q-8 -2 -16 -2q-29 0 -80 59l4 4q-20 14 -21 45zM397 262l15 8q-2 6 -2 11q0 6 8 15t8 15v8q49 55 115 64q14 12 43 12h57l14 -12q37 -2 54 -12h4q49 -41 57 -68q14 0 14 -14q1 -23 11 -27q4 -33 4 -47q0 -29 -15 -41v-29l-14 -8v-16 q-10 -4 -34.5 -25.5t-43.5 -25.5q-2 -12 -20 -13q-33 0 -37 -12l-86 4q-2 8 -12 8h-25l-10 13q-57 31 -76 51q-18 96 -29 141z" />
<glyph unicode="@" horiz-adv-x="1837" d="M70 610q0 127 28 187q16 35 13 47l14 8v29q14 4 39.5 58t38.5 62l-2 7q31 14 30 32q0 6 -2 11q18 14 41 30.5t23 34.5q41 41 137 96q6 8 31.5 20.5t32.5 22.5q63 29 196 80l12 -2q29 16 52 17q8 0 16 -2q37 8 64 22q23 -4 38 -4q39 0 54 16h223q8 -12 45 -13t45 -11 l82 -10l10 -13h31q2 -6 16 -12q4 -2 80 -47q47 -29 86 -33q29 -25 58 -49q35 -31 47 -57q16 -10 34.5 -46t32.5 -44q2 -25 26.5 -78.5t24.5 -79.5v-172q0 -82 -84 -213t-157 -154q-6 -10 -32 -22.5t-32 -22.5q-100 -35 -221 -35h-24q-10 29 -62 21l-35 14q-4 10 -31.5 41 t-27.5 49q0 10 6 23l-33 -17v-12q-125 -92 -145 -100q-45 -18 -172 -19l-41 13q0 8 -25 8q-61 0 -147 145q-14 4 -15 17q0 6 3 12v10q0 14 -17 17l6 59l-6 59q29 10 29 47q0 14 -4 33q18 18 18 37q0 8 -2 14q129 143 178 183q117 92 250 92q104 0 143 -17q53 -23 89 -100 l18 -8l4 33l14 8v26l13 9v24l114 4l113 -4q-12 -4 -13 -26.5t-14 -26.5q8 -31 -26 -82l2 -8q0 -8 -8.5 -23.5t-8.5 -21.5q0 -8 7 -15q-12 -2 -15.5 -21t-13.5 -22q6 -8 -27 -118l-14 -9q6 -18 -13.5 -58t-13.5 -60l-14 -8v-27l-14 -8q2 -70 6 -84q10 -57 53 -58l74 15 q6 8 32.5 21.5t30.5 25.5h19q47 51 141 151l-4 4q33 88 80 185v174q0 129 -117 225q-113 74 -223 148q-18 12 -21 8q-57 16 -174 39l-14 12h-182q-18 0 -110.5 -25.5t-102.5 -21.5q-115 -43 -129 -68l-54 -34h-14l-127 -109v-6l-96 -174q-43 -88 -64 -191l-12 -8v-199 q0 -53 34 -125.5t75 -115.5l-5 -2q41 -78 177.5 -155t226.5 -77l82 -10l10 -12h227q8 10 47 10t48 12h14q70 20 88 21q33 0 152 57q104 51 147 82l31 -41l-4 -2l14 -16l-55 -25q-10 -20 -90 -51l-111 -43h-10q-23 -18 -88 -29q-72 -12 -92 -22q-20 4 -37 4q-37 0 -54 -17 h-241l-10 13q-6 0 -56 -2q-37 -2 -53 14l-14 -2q-63 8 -85 12t-36 21h-33q0 6 -8 10q-10 4 -17 0l-94 37q-2 12 -27.5 20t-25.5 19q-16 4 -45 27.5t-47 25.5q-2 6 -26.5 25.5t-22.5 33.5q-141 154 -150 256h-6q-18 63 -18 170zM643 -2v-4h19q10 0 10 6v2q-6 4 -15 4h-4 q-10 0 -10 -8zM684 -6v-12h25v12h-25zM721 410q6 -2 12 -17.5t15 -15.5v-2q0 -14 17 -24.5t28 -16.5h47q25 0 30 12q16 2 41 22.5t33 24.5l-2 6q0 8 15.5 22.5t13.5 22.5q14 0 14 19q41 39 41 80q23 8 23 59l12 8l-2 13q0 8 10 18t10 18q0 4 -4 11q14 6 15 37q0 14 14 18 q-2 -2 -2 31l14 16q-4 27 -2 53q6 59 6 54q0 72 -45 71h-86q-6 0 -28.5 -15t-34.5 -15q0 -12 -23.5 -32t-21.5 -32q-8 -8 -29 -20l2 -7q0 -6 -11.5 -17t-8.5 -19q-4 -4 -9 -15l-8 -8l-4 -16l-10 -9v-8l-15 -16l5 -12q0 -6 -10.5 -17.5t-10.5 -17.5t4 -12l-14 -7v-28 q-18 -4 -14 -47q-12 -6 -13.5 -33t-13.5 -31v-106zM748 -18v-5q0 -8 10 -8h4v13h-14zM793 1315h6q10 0 18 8q-8 8 -18 8h-6v-16zM838 1333q0 -6 8 -6h12q8 0 8 8t-8 8h-10q-10 -16 -10 -10zM936 1339h8v11h-8v-11zM983 397q0 -2 2 -4h12v8q0 4 -6 5q-8 0 -8 -9zM1403 43 q0 -6 6 -6q2 0 8 4v6q-2 4 -6 4h-2q-4 0 -6 -2v-6zM1430 57q0 -8 8 -8q6 0 6 6v6h-14v-4zM1458 61h8q4 2 4 5v6h-12v-11z" />
<glyph unicode="A" horiz-adv-x="2025" d="M70 150q0 23 100 96l135 98l-2 10l35 39l-10 19q29 25 60.5 100.5t57.5 99.5q8 55 41 84q23 104 72 148q-2 8 8.5 26.5t10.5 24.5q0 4 -3 8q20 12 70 133l33 54l-6 18q35 74 47 78q8 14 22 90q18 96 93 125q39 14 45 24h143l20 -14h29q162 -94 272 -264q59 -90 166 -322 q96 -211 174 -315l-2 -10q0 -55 74 -144q66 -80 123 -114l16 2q62 -31 62 -62q0 -78 -86 -114q-66 -29 -154 -29q-18 0 -37 2l-12 -8l-379 -6l-10 14q-27 -2 -51 -2q-190 0 -195 127q27 18 45 49q61 14 99 76q-25 39 -82 59q-12 -2 -25 -2q-31 0 -57 14h-310 q-28 -22 -62 -22h-3l-43 -41l2 -53q45 -10 72 -31l6 2q45 -14 65 -43l-6 -61q-20 -39 -86 -64q-16 0 -49 -4t-49 -4l-14 -14h-263q-24 15 -53 15q-9 0 -18 -1q-131 39 -131 109zM702 631q0 -37 31 -53h340l35 20l4 16q0 14 -16.5 33t-20.5 32t-37 66q-29 45 -28 72l2 6 l-33 29l2 6l-61 57l-15 3q-16 0 -59 -33q-33 -33 -55 -58q-10 -29 -19 -43l4 -10q-6 -8 -16 -10v-16q-12 0 -17.5 -18.5t-13.5 -18.5l6 -11q-10 -23 -18 -34l2 -2q-6 -8 -17 -13v-20z" />
<glyph unicode="B" horiz-adv-x="1705" d="M106 207l13 -2q29 0 80 67l-2 29v10q0 31 10 85q9 48 9 78q0 10 -1 18l14 8v614q-49 68 -55 74q-33 33 -88 45q-14 41 -14 74v6q27 20 45 51l26 8q6 -1 13 -1q26 0 49 20h882q23 0 66 -13.5t66 -13.5q10 0 31.5 -8t31.5 -8q6 0 10 2q139 -59 183 -138q32 -57 32 -190v-8 q-16 -16 -16 -37q0 -8 2 -16l-16 -9q-14 -43 -66 -86q-47 -33 -92 -65q16 -35 45 -49l14 2q96 0 217 -131l-6 -7q33 -47 41 -116q2 -8 6 -123q-16 -14 -16 -33q0 -8 2 -16q-23 -6 -43 -45l-2 -4q-10 -27 -27 -60v-18q-70 -61 -161 -107q-106 -53 -185 -53h-1036l-66 22 q-32 42 -32 78q0 14 36 66zM713 367q16 -12 16 -99l55 -53q127 6 148 12q14 6 104 78q8 27 17 37l-6 12q4 6 14 8v152l-14 14q-2 10 4 17q-31 27 -31 41q-33 37 -43 37h-12q-4 10 -30 16t-32 12h-129l-61 -53v-231zM713 831q0 -45 88 -45q18 0 53 7.5t53 7.5l82 76 q2 2 4 23.5t13 25.5l-7 149q-14 12 -14 51q0 16 -24.5 37t-26.5 25q-4 -2 -10 -2q-8 0 -20.5 9t-18.5 9l-15 -2l-14 12q16 2 -27 3h-57q-59 0 -59 -31v-355z" />
<glyph unicode="C" horiz-adv-x="1689" d="M70 737q0 23 30 140l-4 10l19 47l-4 14q12 23 30 35q-4 8 45 80l-4 4q47 49 119 145q51 18 113 88q57 16 204 91l15 -2q27 0 78 18t77 18h185q25 0 69.5 -13t69.5 -13q53 -33 109 -33l213 -2q63 -66 176 -207l-6 -43l16 -14v-125q0 -41 -58.5 -96.5t-101.5 -55.5 q-62 0 -62 -1l17 -1l-37 15l-14 -5q-29 18 -64 31q-92 121 -135 158q-74 66 -192 100l-10 15q-182 -12 -246 -60q-84 -61 -84 -231q0 -70 33 -133l-2 -4q20 -80 84 -144v-12q186 -174 376 -174q102 0 205 65q123 80 174 93q41 -20 92 -84v-31l15 -21q-31 -68 -31 -94 q0 -10 2 -12q-90 -115 -260 -197q-152 -71 -278 -71q-20 0 -39 2l-17 -13h-215q-23 14 -49 15q-10 0 -23 -2q-23 12 -143 36l-10 13q-92 35 -256 172q-182 154 -182 229q0 12 6 23q-45 66 -45 237z" />
<glyph unicode="D" horiz-adv-x="1835" d="M70 1280l18 55q16 12 64.5 34t66.5 22h885q23 0 64.5 -13.5t64.5 -13.5q10 0 32.5 -8t32.5 -8q6 0 11 2q160 -63 272 -156q152 -125 152 -260q0 -16 16 -60.5t16 -60.5v-215q0 -8 -7 -30.5t-7 -35.5q-10 -8 -12 -45l-15 -16v-33q-6 0 -11 -6t-5 -8q0 -4 4 -6 q-59 -90 -80 -117q-53 -70 -95 -109.5t-167 -93.5l-113 -49q-47 -2 -139 -8l-10 -8l-406 -6l-14 14q-53 0 -156.5 -4t-156.5 -4q-166 0 -273 30q4 6 4 13q0 10 -17 38.5t-17 39.5q0 10 63 77q31 33 80 82v164l16 10v639l-20 31q-66 18 -92.5 41t-48.5 82zM729 354 q0 8 16 -24q20 -68 25 -76q18 -29 72 -29h102q68 0 205 125v17l16 10q2 25 19 41l-4 12l16 14q4 18 10 29q0 14 7.5 40t7.5 38v250q-12 10 -14.5 48t-10.5 46v6q0 33 -22 87q-24 58 -50 71q-10 29 -55 61q-23 14 -76 45l-14 -4q-37 23 -59 27h-68q-90 0 -119 -35z" />
<glyph unicode="E" horiz-adv-x="1691" d="M70 131q0 10 2 23q12 16 90 65q66 41 63 80q19 25 19 51q0 8 -2 17l14 10v123l16 14v508q0 133 -98 190l-8 -2q-66 18 -84 93q10 31 51 73q92 23 201 23v-6l784 -2l10 8q13 -1 29 -1q32 0 78 5q76 10 104 10q211 0 211 -285v-41q-16 -6 -16 -16q0 -2 2 -4 q-23 -33 -47 -68q-14 -12 -105 -12l-86 86q-53 53 -98 62q-6 16 -18 16q-6 0 -13 -4q-14 16 -36 16q-8 0 -19 -2v4l-272 6h-2q-57 0 -66 -98l-14 -10v-186q0 -20 55 -50h80q20 0 74 35q-1 4 -1 9q0 23 31 63l-2 18v8q0 32 30 54q34 24 73 24q55 0 80 -45q12 -23 41 -82 l-2 -26l18 -27q0 -434 -154 -434q-59 0 -82 55q-6 33 -23 94.5t-60 61.5q-72 0 -127 -19q4 -6 4 -10q0 -12 -21 -16v-262q51 -74 98 -74h230q14 0 59 14.5t56 22.5l12 -2l80 43q35 59 86 110q66 66 116 66q29 0 65 -27.5t46 -54.5v-70q0 -14 -10 -49t-6 -55q-16 0 -17 -16 q0 -4 4 -9l-22 -41l4 -12q-31 -43 -82 -133q-43 -29 -88 -43q-78 31 -188 31q-35 0 -72 -2l-17 14l-548 -6q-70 -1 -129 -1q-333 0 -355 28q-26 34 -26 69z" />
<glyph unicode="F" horiz-adv-x="1574" d="M70 131q4 18 0 43q31 31 30 53q59 23 103 64v14l14 17l-4 81l14 9v594l-14 8v139l-41 45l-18 -4q-59 25 -80 119q2 29 71 65l17 -2l14 15q117 0 553 14q284 9 452 9q56 0 99 -1l82 -2q92 -57 123 -158q18 -61 20 -194q-12 0 -12 -12q0 -2 2 -5q-25 -55 -123 -55 q-41 0 -194 133q-6 0 -23.5 7.5t-24.5 7.5q-43 0 -129 18t-129 18q-124 0 -124 -70q0 -11 2 -26l-15 -20v-185q37 -18 68 -18q128 0 128 44q0 3 -1 7q8 0 14 8q4 10 -4 15l21 39l-5 10q6 14 39 34.5t49 20.5q113 0 142 -186q2 -14 8 -232q-8 -25 -16 -75q-14 -2 -15 -17 q0 -27 -42 -68.5t-68 -41.5q-80 0 -111 73l6 23q-20 45 -30 63q-18 35 -44 56l-26 10q-76 0 -113 -31v-219l15 -20l-2 -29q27 -61 65 -82l18 4q61 -16 72 -16h2l47 -54q0 -92 -82 -129q-53 -25 -176 -36v-3l-348 -6h-7q-61 0 -144 33q-96 37 -125 84z" />
<glyph unicode="G" horiz-adv-x="1923" d="M70 623v184q0 14 15 45t15 45q0 12 -6 23q57 104 139 210q117 152 183 154q47 41 185 91t204 50h223q49 0 135 -28q96 -33 135 -37q102 39 154 39q37 0 75 -23.5t50 -58.5l25 -19l63 -170l-16 -131q-37 -37 -136 -104q-35 0 -112 14l-17 -6l-104 90q-70 55 -113 78 q-12 63 -264 64q-55 0 -125 -64l-8 2q-31 -23 -74 -70q4 -8 -6 -20t-10 -14t4 -4l-22 -58q4 -2 4 -6q0 -14 -17 -14v-166q0 -12 32 -95q27 -70 27 -87q0 -4 -1 -5q33 -61 124 -143q92 -82 148 -82q8 0 16 2l11 -14q109 12 118 14q59 18 60 80q0 76 -78 82v2q-98 14 -121 29 q-35 23 -35 98v10l15 8q20 55 84 74l6 -2q47 8 139 29q37 10 57 8v4l305 4q23 0 73 -14q44 -12 70 -12h7q39 -18 96 -52q37 -28 51 -77q-23 -59 -77 -97q-12 -8 -117 -63l6 -17q0 -18 -16 -32l4 -11l-23 -41l4 -10q-14 -29 -47 -55l4 -6q-27 -12 -30 -45q-74 -59 -97 -74 q-59 -39 -110 -51q-53 -68 -549 -78q-14 8 -113 29l-123 26q-100 23 -198 101l-172 147l2 6q-20 25 -33 53l-16 9l-11 49q-47 39 -47 117q0 14 -12 43.5t-12 42.5z" />
<glyph unicode="H" horiz-adv-x="1929" d="M70 158l2 24q33 23 57 62l14 -2q49 0 68 69q8 33 8 70q0 19 -2 39l14 10v580q0 23 -10 61q-12 47 -14 62q-43 43 -119 75l-16 45q0 29 30 60v12q23 8 146 51q23 -4 51.5 5.5t36.5 9.5h326q27 0 75.5 -13.5t75.5 -13.5l59 -31l-2 -10q31 -39 31 -86l-24 -37 q-27 -12 -69 -53t-52 -45v-209q39 -49 131 -49q125 0 145 2q82 8 123 51v178q0 29 -145 162v47q27 25 61 66l12 -4l50 18q49 10 120 16v4l363 7q23 0 74 -13.5t75 -13.5q4 -18 19 -18q6 0 14 4q47 -41 62 -90q2 -27 -39 -56l2 -8l-8 2q-35 -20 -79 -46t-44 -62q0 -14 4 -31 l-19 -39v-627q0 -6 19 -80q6 -20 8 -32l78 -58q45 -41 45 -78l-4 -30q-12 -4 -13 -15q0 -2 2 -4q-72 -84 -399 -84q14 0 -16 2h-76h-64q-16 0 -56 12.5t-60 12.5q-29 0 -70 25.5t-61 52.5v65q27 20 61 62q39 10 66 30l2 70l16 8v207l-20 31l-37 14l-11 14h-233 q-10 0 -115 -45v-206q0 -55 66 -113q84 -74 98 -98q-61 -143 -387 -144q-39 0 -72.5 1t-25.5 1h-86q-18 0 -203 49q-61 68 -59 95z" />
<glyph unicode="I" horiz-adv-x="987" d="M70 158q0 14 2 24l16 8q8 29 51 56q53 33 62 43q-4 6 6 20.5t10 16.5v94l16 10v645q-20 35 -26 43q-16 23 -37 31q-14 20 -41 22q-18 27 -57 78v35q37 31 118 80l25 -4l33 16l55 -2q6 0 23.5 8.5t25.5 8.5h301q18 0 105 -21l86 -20q18 -10 46 -39t28 -45l-3 -43 q-27 -10 -30 -41q-31 -20 -99 -54v-47l-16 -6v-155l-14 -9v-573q16 -12 16 -33q0 -8 -2 -16l131 -107l-2 -53l-29 -39l4 -8q-45 -29 -210 -49q-143 -18 -230 -19h-88l-10 15q-13 -1 -26 -1q-65 0 -136 25q-104 37 -104 105z" />
<glyph unicode="J" horiz-adv-x="1533" d="M70 322q0 164 75 225q66 55 234 63l10 -14q88 -14 113 -45q43 -55 53 -64q-6 -25 -6 -153q0 -78 86 -78q84 0 117 127h6l6 694l-16 10l4 5q-10 16 -37 36.5t-41 16.5q-25 16 -56 26l-28 82q0 63 106 99q73 25 138 25q11 0 22 -1l16 15h342q68 0 150 -31q102 -39 100 -90 l-2 -47l-30 -27l6 -6q-33 -27 -41 -33q-27 -16 -49 -20l2 -9q0 -39 -33 -41q-18 -63 -18 -299q0 -62 1 -135h-4l-4 -233q-29 -37 -32 -117q-12 -2 -13 -22q0 -8 -27.5 -48t-31.5 -57q-47 -31 -139 -100l-11 2q-61 -16 -172 -64q-23 2 -49 2q-45 0 -133 -8t-133 -8 q-43 27 -100 27q-8 0 -15 -2l-51 18l-10 -2l-74 22l-10 15l-6 -2q-215 145 -215 246z" />
<glyph unicode="K" horiz-adv-x="1984" d="M70 123q12 43 47 82q4 2 73 65q-2 4 17 52l-6 16l18 57l-2 62l14 8v522q0 -2 -1 -2q-3 0 -29 102l6 17q-14 25 -67.5 61.5t-67.5 61.5l4 49q72 57 80 63q41 25 98 25q14 0 49 13.5t49 13.5h285q51 -27 137 -27h12q25 -27 72 -55q16 -39 16 -77v-9q-41 -29 -118 -105l6 -4 l-33 -49q2 -16 0 -47t-2 -47q0 -29 57 -74q33 18 41 18q4 0 9 -4q45 45 106 119q78 94 78 123q0 18 -18.5 57t-18.5 58q0 55 96 88q71 24 144 24h6v4l321 7q12 0 47 -13.5t54 -13.5q37 0 64.5 -32t27.5 -68l-2 -19l-15 -8l-16 -41q-41 -18 -78 -22h-80q-11 1 -22 1 q-113 0 -213 -96q-125 -98 -125 -213q111 -156 176 -198v-15l100 -84v-14q203 -160 435 -356v-23l14 -12q-6 -47 -12 -72q-8 -35 -33 -63q-98 -14 -258 -15h-338q-27 23 -74 54v14q-43 27 -127 131q-100 127 -141 168q-84 84 -149 84h-3q-27 -53 -26 -98q0 -47 70.5 -132 t68.5 -104l-2 -27q-37 -29 -135 -90q-18 2 -54 -6t-51 -8h-329q-32 15 -68 15q-11 0 -23 -1q-69 27 -84 27h-2q-29 16 -75 82z" />
<glyph unicode="L" horiz-adv-x="1531" d="M70 109q12 35 14 67q49 59 104 90q31 68 31 92q0 14 -6 21l16 10v662l-14 20q1 7 1 13q0 33 -34 63l-10 -2q-4 0 -14.5 7t-14.5 5q-49 18 -73 55q4 72 56 114q47 38 112 38h12q57 27 115 27h301q33 -16 106.5 -28.5t106.5 -29.5q53 -29 53 -80q0 -37 -58 -82 q-47 -31 -92 -61q2 -10 2 -20q0 -23 -16 -43v-717q0 -18 39 -45t59 -27h150q86 0 176 113q0 2 11 23.5t11 25.5l15 10q8 68 94 68q14 0 43 -15.5t35 -15.5q4 2 4 4q18 -27 57 -78v-61q0 -10 -7 -31.5t-7 -32.5q0 -25 -16 -43l4 -16q-20 -25 -33 -55l2 -13q-14 -10 -14 -12 t2 -4q-59 -70 -78 -86q-47 -41 -93 -41h-8l-26 2q-35 35 -539 35q-12 0 -493 -6q-33 0 -86 80z" />
<glyph unicode="M" horiz-adv-x="2078" d="M70 174q80 57 112.5 109.5t32.5 142.5q0 37 -6 115l16 10v502q-18 18 -18 39q0 6 2 12q-37 29 -74 55q-45 35 -65 66v59q37 27 114 74q12 -2 23 -2q33 0 57 16h258l70 -14q0 -8 10 -10q4 -4 8 -5q4 2 6 5q49 -27 91 -80l-5 -4q8 -12 148 -226q84 -129 164 -217l14 -2 q33 0 60.5 22.5t29.5 55.5q70 82 125 186l-2 11l12 12q2 12 21 31q18 59 90 141q82 94 137 94h336q57 0 114.5 -37t57.5 -92q0 -10 -51 -57q-59 -55 -66 -64l4 -4q-32 -82 -32 -110q0 -19 2 -41l-15 -11v-467q0 -33 13 -98l18 -98q43 -31 88 -62q37 -37 37 -96v-8 q-53 -47 -106 -61q-31 -8 -129 -19v-2l-342 -6l-48 16q-2 -2 -8 -2l-45 -2l-10 15q-45 4 -78 28q-39 27 -39 68q0 27 70.5 90t70.5 115v235l-24 35h-23q-43 0 -88 -72l-45 -71l-10 -50q-29 -16 -29 -51l-16 -8l-14 -39l6 -6q-18 -31 -47 -66q-51 -143 -142 -198 q-37 12 -73 41q-18 63 -152.5 295.5t-169.5 246.5q-35 -43 -35 -65v-301q0 -23 60 -68l82 -63v-47q-29 -20 -48 -49q-53 -6 -110 -21l-236 -6q-37 16 -104 27q-55 31 -55 108z" />
<glyph unicode="N" horiz-adv-x="1921" d="M70 1272q0 37 88 69q78 31 123 31h266l45 -14l10 -12q49 -10 86 -50h14l136 -120h20l219 -193q113 -98 254 -149l39 45v213q0 27 -156 133v59q27 23 62 62q66 14 119 18v2l286 6q29 -16 62 -16q12 0 24 2q27 -25 70 -39l14 -57q-25 -59 -83 -103.5t-62 -54.5 q-25 -55 -25 -234l-14 -14l4 -444l-14 -15q0 -25 -19 -159q-11 -94 -11 -125q0 -9 1 -13q-27 -18 -41 -49q-49 -12 -92 -12q2 8 -8 10q-10 4 -17 -2l-12 8q-29 12 -88 45q-139 74 -371 277q-260 225 -362 299q-29 -12 -59 -39l-15 -47v-197l35 -119h3q30 0 71 -41 q37 -37 49 -71q-39 -74 -119 -111q-10 4 -20 4q-27 0 -50 -16h-221q-25 16 -51 16q-12 0 -24 -4q-49 20 -125 80v14q0 33 30 68v12q20 12 95 72v27q12 4 22 43q8 31 8 51v512q0 16 -23.5 100t-21.5 88q-86 49 -104 62q-47 39 -47 92z" />
<glyph unicode="O" d="M70 637v172q0 16 12 53t12 56l15 38l16 11q186 328 422 379q16 14 129 43l16 -5q18 0 52 10.5t53 10.5h225q14 0 46 -10.5t48 -10.5q10 0 21 5l53 -21l14 4l45 -14l11 -12q27 -8 82 -39t88 -37q154 -131 256 -309l-5 -17q27 -43 35 -131h4l6 -106v-17q0 -74 -30 -188 l-15 -8l5 -21l-29 -37l2 -8q0 -39 -33 -43q-113 -219 -432 -315l-10 2q-55 -10 -127 -33q-39 -12 -49 -12h-205q-4 0 -146 24q0 12 -26 12q-96 0 -269 138q-102 82 -198 184l-74 170l4 14q0 10 -12 36t-12 32zM602 821q14 -10 14 -28q0 -25 15.5 -73t15.5 -73q16 -12 15 -31 v-6l24 -47l-4 -4q23 -27 45 -92l25 -18q2 -8 16 -25.5t14 -30.5l101 -84h18l6 -12q20 -2 31 -14q25 -4 47 -4q88 0 178 94v12l17 8q-2 31 14 51v179q-27 57 -31 90q2 6 2 14q0 10 -10 29.5t-10 29.5l4 15q-16 16 -64 121q-43 96 -71 112q-4 18 -31 43q-20 18 -41 37 q-43 16 -57 31l-19 -4q-16 14 -39 14q-80 0 -104 -14l-82 -62v-16l-14 -10v-15l-11 -6q2 -8 2 -16q0 -18 -16 -25v-170z" />
<glyph unicode="P" horiz-adv-x="1597" d="M70 1266q0 98 219 98q27 0 79 -10.5t78 -10.5q43 0 144 9q74 6 121 6h22l12 14h306q45 -26 106 -26h4q12 0 19 4q57 -17 69 -17h2q20 -20 56 -22l10 -15q61 -14 108 -69q12 -14 72 -101l25 -82l6 -6v-155q0 -14 -14.5 -48t-10.5 -53l-16 -8q-8 -29 -31 -67 q-31 -14 -39 -48q-193 -111 -291 -131q-70 -14 -327 -14l-11 -8v-152q16 -10 17 -24q0 -10 -6 -21l92 -65q49 -43 49 -86q0 -8 -11 -30l-14 -28l-8 2q-37 -27 -104 -36q-102 -14 -109 -19l-6 -2l-311 -6q-6 10 -51 16q-51 6 -58 11l-18 -3q-61 0 -100 44.5t-39 105.5 q61 41 71 47q43 33 56 64l14 8v135l16 14v598q-98 121 -147 121q-6 0 -10 -2q-41 47 -41 68zM739 764q27 -35 37 -45q20 -16 58 -17q82 0 176 93v14q12 4 17 30.5t13 30.5q-4 121 -14 158q-20 74 -96 133h-31l-14 15h-31q-76 0 -100 -39q2 -14 -9 -23z" />
<glyph unicode="Q" d="M70 629v166q0 16 16 54t12 60q12 0 13 19q0 6 10 20.5t10 20.5t-6 10q18 16 33 47q20 41 26 53q102 172 422 293l21 -4l63 21q6 -4 17 -5q16 0 46.5 10.5t43.5 10.5h231q33 0 93.5 -15.5t86.5 -17.5q2 -12 25 -12q49 0 197 -96h14q109 -86 188 -203q94 -137 94 -252v-199 l-16 -59l6 -4q-31 -57 -31 -83q0 -5 1 -9l-15 -11q-20 -37 -55 -112l-17 -8q-86 -137 -196 -181l-264 -104q4 2 55 -21l205 -49q45 0 133 20.5t133 20.5l14 -2l41 -39l6 -59l-16 -53l6 -4q-66 -78 -184 -107q-150 -37 -189 -61h-190q-27 15 -57 15q-10 0 -19 -1l-69 27 l-13 -5q-35 6 -92 25q-18 12 -24 12q-2 0 -5 -2l-49 19l-12 -2q-10 6 -192 84l-13 -2q-49 0 -206 53q-145 49 -235 49h-13l-37 20q-20 25 -21 62q0 12 2 27l31 26l-4 4q59 59 186 60q20 0 43 -2l11 -15l41 11q-74 51 -136 116q-33 35 -116 127l2 10q0 6 -9.5 18.5t-9.5 16.5 q0 6 2 6q-29 55 -61 177zM416 139q0 -8 8 -8q6 0 6 6v6h-14v-4zM586 827l10 -12q4 -55 47 -177t74 -163l-4 -2l14 -14q16 -31 31 -43l-2 -4q76 -72 86 -80q55 -45 100 -49l10 -13h64q23 0 47 13h2q39 0 104 63v12l25 35q-2 31 14 49q0 35 -8 102.5t-8 102.5q0 31 2 39 q-4 6 -16 55q-10 39 -25 41q4 14 -18.5 58.5t-24.5 54.5q-14 57 -104.5 154.5t-143.5 99.5l-114 4q-123 -86 -142 -131q-14 -33 -20 -195z" />
<glyph unicode="R" horiz-adv-x="1818" d="M70 1268q0 53 125 84q94 24 172 24h6l37 -4l16 -14h225l11 8l421 6q16 0 53.5 -12t55.5 -12q49 0 131 -37q4 -10 48 -33t52 -37l-4 -4q25 -35 76 -107q-6 -8 -6 -20q0 -10 8 -30.5t8 -30.5q0 -55 -16 -111l6 -2l-31 -37l2 -10q-88 -61 -198 -162q25 -37 63 -37q8 0 15 2 q29 -10 59 -26q43 -12 80 -60q8 -8 59 -86l-4 -14q22 -51 22 -62q0 -2 -1 -2q14 -25 30 -92q16 -59 39 -88q4 0 23.5 -7t21.5 -5q74 -35 74 -78q0 -53 -100 -102q-89 -43 -150 -43h-190q-16 0 -55.5 14t-59.5 10l-10 15l-6 -3q-70 51 -95 74q-43 41 -55 101 q-14 12 -33.5 87.5t-42.5 98.5l2 12q0 72 -112 154h-15v4l-86 4l-6 -291q6 -14 68.5 -72.5t77.5 -84.5l-4 -23l-66 -51q-4 0 -63 -25q-43 6 -97 6q-59 0 -168 -8q-115 -10 -168 -10h-9q-66 0 -138 29q-96 37 -96 98q0 33 127 127l-2 24v8q0 25 10 73q9 42 9 67q0 9 -1 16 l14 13v559q0 10 -12 39.5t-12 44.5q-135 90 -135 131zM686 827l45 -45l117 4q2 10 16 11q18 0 23 -2q57 49 61 65q12 6 13 17q0 6 -3 16q-2 10 0 14q5 7 15 11q0 -2 2 10v100q0 45 -30 88t-73 60q-10 4 -10 10v2h-100q-70 -39 -70 -74z" />
<glyph unicode="S" horiz-adv-x="1533" d="M70 506q0 24 40 48q35 21 58 21h6l25 -2q45 -25 141 -116q39 -39 143 -138l11 3q12 0 34 -15q31 -20 33 -22q33 6 57 -13q27 -4 72 -4q135 0 160 103q-27 29 -113 73h-30q0 6 -11 11q-10 4 -14 -2l-51 20l-13 -2q-102 47 -274 111q-16 29 -57 36q-47 55 -146 154l2 16 q0 37 -24 125q-20 63 -20 106q0 10 1 19q16 12 17 33q0 6 -2 16l16 19l-6 16q0 -2 14.5 16.5t32.5 61.5q31 14 43 49q223 176 403 176h224v-4q184 -18 370 -18h13q57 -53 133 -113q8 -27 47 -90q27 -43 27 -117q0 -55 -42 -97q-40 -40 -93 -40h-5l-37 2q-18 18 -57 23 q-37 41 -108 90h-11q-75 84 -161 84h-11l-10 14q-135 0 -186 -57v-60q41 -31 125 -81q8 2 23 -4.5t22 -6.5q66 0 114 -39h31q0 -14 18 -14q4 0 7 4l51 -18l12 2q47 -16 131 -64h15q115 -66 161 -143l-6 -6q49 -66 49 -197q0 -41 -22 -110q-24 -77 -53 -93l2 -6 q-223 -252 -535 -256l-10 -8h-234q-61 0 -176 39l-14 -2q-10 0 -33.5 9t-34.5 9q-6 0 -10 -2q-45 20 -129 49q-104 66 -135 248h-6z" />
<glyph unicode="T" horiz-adv-x="1708" d="M70 1051v4q41 106 94 215q72 149 183 149h1q-6 0 86 -16l10 -12h813q10 0 39 13t39 13q70 0 115 -20q23 -10 25 -6q31 -41 71 -78v-8q92 -139 92 -244q1 -47 -65 -139q-31 -6 -62 -29h-51q-10 0 -33.5 8t-40.5 6q-51 63 -159 176q0 16 -19.5 29.5t-38.5 13.5 q-10 0 -31.5 -14t-25.5 -25v-419l-16 -13v-258q0 -39 33.5 -86t70.5 -53q2 -16 19 -16q6 0 12 2q16 -12 38.5 -43t22.5 -47q0 -104 -280 -131q-18 -2 -361 -9q-50 27 -137 27h-12q-6 6 -63.5 32.5t-82.5 57.5v7q0 44 47 93q162 63 162 146q0 16 -6 35l14 18v139l17 9v473 q0 18 -31 43.5t-51 31.5q-47 -16 -94 -77q-72 -92 -86 -105q-57 -51 -129 -51q-35 0 -81 37t-46 70.5t-2 50.5z" />
<glyph unicode="U" horiz-adv-x="1906" d="M70 1229q0 43 28 65l58 45l14 -4q45 10 131 41q18 -2 51 6.5t47 8.5h306q12 0 90.5 -21.5t95.5 -30.5q35 -45 35 -71q0 -47 -41 -78q-39 -23 -80 -45q-41 -39 -41 -123q0 -20 2 -47l-14 -8v-402l14 -20l-4 -29q20 -43 67 -131q100 -49 142 -57q31 -6 153 -6q59 0 121 40 q51 35 92 91v45q8 4 19.5 44t11.5 54v491q-21 23 -21 52q0 8 1 16q-88 45 -97 49q-61 39 -61 76q0 63 182 92q115 18 250 19q68 0 127 -29q72 -33 88 -90q-49 -88 -133 -129q4 -16 -12 -47q-18 -37 -19 -45v-181l-14 -14v-287l-17 -18l7 -55q0 -29 -16.5 -83.5t-16.5 -82.5 l-14 -8q-4 -35 -27 -78q-27 -10 -31 -39q-61 -47 -123 -94q-84 -55 -137 -56q-8 0 -61 -26l-31 2h-5q-21 1 -67 -13q-52 -16 -73 -16h-254q-20 0 -58.5 11.5t-58.5 11.5q-4 0 -72 20l-18 -4q-45 27 -146 63q-16 27 -55 37q-31 37 -79 127t-83 129l6 650q0 33 -79.5 91 t-79.5 91z" />
<glyph unicode="V" horiz-adv-x="1847" d="M70 1200v64q0 47 108 82q37 12 160 34l6 11h289q29 0 88 -17.5t84 -19.5q12 -25 45 -29v-6l33 -33l-6 -90q-33 -33 -82 -59l-4 -21q125 -207 163 -362q35 -27 68 -45q131 143 131 192q0 6 -2 10l16 11l25 49l-2 10q14 18 18 43l17 10l10 49q16 14 16 35q0 8 -2 19l17 8 q-10 23 -58.5 49.5t-56.5 44.5l16 66l-6 4q80 55 160 71q51 10 184 11q273 0 273 -131q0 -31 -31 -74q-53 -2 -145 -64l2 -6l-31 -33l2 -8l-14 -28l-17 -9q-20 -49 -55 -100l2 -12q0 -27 -33 -56q-6 -25 -55 -120q-45 -88 -45 -105q-18 -12 -46 -71.5t-42 -75.5l4 -11 q-16 -20 -19 -43q-16 -12 -16 -16q2 -4 6 -4l-16 -31q-16 0 -17 -14q0 -4 5 -6q-10 -12 -80 -146q-57 -111 -86 -125l2 -10q-92 -92 -146 -92q-47 0 -88 14q-258 307 -258 404l-352 710q-45 18 -139 72z" />
<glyph unicode="W" horiz-adv-x="2463" d="M70 1200v64q78 63 120 88q70 39 152 39h281l88 -15l10 -12q53 -4 88 -39q31 -31 31 -77v-11q-16 -29 -58 -74q14 -69 14 -85q0 -4 -1 -5q10 -49 59 -151q63 -127 74 -154l41 -18q53 25 53 98l14 8q27 70 27 145q-6 16 -45 95l4 18l-104 113q4 57 36 112q18 10 99.5 31 t101.5 21h291q41 0 117.5 -31t85.5 -62q-31 -61 -88 -188q14 -27 81 -184q47 -111 101 -176l45 30q0 2 20.5 46t20.5 59q33 37 33 45t-7 14q27 68 78 207q-63 49 -71 57q-33 33 -43 82l10 23q78 55 137 69q37 8 154 9q33 0 95 -15.5t95 -15.5q18 0 33 4q26 -26 51 -59 l-10 -82q-25 -31 -172 -131l4 -11q0 -43 -30 -43h-5q-6 -39 -35 -82q-6 -16 -37 -100l-16 -8q-14 -59 -41 -86v-31l-16 -8q-4 -23 -41 -86l4 -12q-12 -31 -35 -66v-8q0 -47 -41 -78v-29l-16 -10l-15 -55q-14 0 -14 -21l2 -14q0 -16 -33 -63q-39 -55 -45 -68l6 -18l-14 -27 l-16 -10q-37 -59 -136 -156l-75 -2q-37 29 -62 29h-6q-35 100 -104 180l8 14q0 4 -11.5 19.5t-11.5 21.5q0 4 4 8q-25 31 -30 78q-12 2 -13 31l-10 12q-2 53 -82 207l-57 18l2 -6l-25 -45q4 -2 -3 -15t-7 -16.5t-11 -20.5t-11 -26q0 -4 4 -6l-27 -37l4 -12q0 -6 -18.5 -40 t-14.5 -38l-32 -53l6 -18q-33 -31 -33 -80l-14 -10q2 -53 -43 -86q2 -6 2 -11q0 -12 -17 -16q-23 -61 -166 -76q-121 131 -221 330q-55 111 -157 356q-98 238 -170 359l4 4l-94 67q-53 39 -80 78z" />
<glyph unicode="X" horiz-adv-x="1923" d="M72 158q27 25 61 65l156 21q145 127 348 366l-6 4l49 52q-57 86 -207 254q-158 176 -225 225l-15 -2l-45 18l-14 -2q-18 10 -49 41t-31 47q0 66 82 94q41 14 139 37h15l47 -2l10 15h393l49 -17h11l45 2l10 -12q104 -14 104 -113q0 -18 -32 -51q-41 -41 -45 -51l59 -72 q35 -35 74 -53q72 80 98 139l16 8l-10 25q-49 25 -94 68l-4 22q0 49 108 90q18 -4 48 5.5t40 9.5h291q29 -16 62 -17q12 0 24 2q2 -8 11 -12q10 -4 16 0q74 -23 74 -66q0 -76 -33 -102q-135 -23 -252 -82q-131 -92 -178 -180q-41 -31 -53 -43q-25 -25 -33 -55 q80 -96 289 -344q223 -261 301 -261h4q37 -14 67 -43q6 -30 6 -69t-84 -66q-100 -33 -108 -39q-20 0 -59 -6t-60 -6h-383q-25 0 -76 13.5t-75 13.5q-25 25 -72 41q-14 25 -23 57q6 12 56 66q43 49 43 57l-4 22q-29 25 -82 101q-47 70 -88 98l-90 -113q-51 -63 -80 -118 q43 -31 110 -109q-2 -59 -88 -92l-12 2q-60 -17 -96 -17q-7 0 -13 1v-5l-295 -6q-33 16 -71 16q-9 0 -19 -1q-2 6 -82 39q-32 40 -32 71q0 10 2 19z" />
<glyph unicode="Y" horiz-adv-x="1730" d="M70 1290q27 20 61 62q51 12 158 26l10 11h358q8 -10 75 -21q49 -7 71 -7q9 0 14 1l72 -41l14 -53q0 -41 -59 -117q47 -102 131 -141q37 14 61 34v7q16 16 33 51q23 43 29 53q-55 82 -56 131q0 37 35 55l13 -2q111 49 153 50h215q23 -12 82 -22.5t84 -25.5q37 -22 37 -65 q0 -4 -11.5 -23.5t-7.5 -29.5q-73 -49 -148 -49h-11l-117 -130q-74 -80 -133 -116v-13l-64 -53l7 -6q-27 -12 -31 -43l-15 -10q-14 -27 -16 -66l-14 -14v-315q0 -39 69 -140q90 -20 91 -100l-17 -41l4 -6q-23 -37 -114 -66q-79 -26 -132 -26h-4h-292q-31 0 -86.5 13 t-77.5 28l-13 -4l-73 38q-29 23 -29 70l12 41q59 37 78 51q41 33 55 70q-8 4 -4 14q4 12 15 12v357q-16 2 -11 29q-90 133 -133 153q-150 215 -284 262l-13 -4l-10 15q-8 -2 -14 -3q-47 0 -47 119z" />
<glyph unicode="Z" horiz-adv-x="1527" d="M70 172l14 8l57 101q16 12 15 14q14 27 59 76l-4 10l16 10q18 31 82 109v6l33 39l-2 10l57 57l-2 4q25 35 88 107v6q31 39 99 119l-2 6l34 39l-2 8l56 60v6q31 55 102 145l-41 47h-174q-23 -18 -51 -16q-72 -47 -72 -80l-14 -10q-12 -29 -43 -62q-37 -39 -62 -39 q-158 0 -157 80q0 178 88 258l-6 4q31 23 47 58q102 51 116 51l58 -2l10 -12h891q0 -14 18 -15q4 0 6 4l54 -20l20 -49q0 -78 -57 -131v-4q-18 -29 -55 -84v-7q-18 -18 -27 -43q-27 -10 -31 -41l-41 -45v-4q-23 -23 -157 -209v-4q-115 -143 -115 -168q-27 -12 -31 -41 l-31 -28l7 -2q-41 -43 -78 -95l6 -6l-35 -61l4 -23q47 -18 86 -18q166 0 213 39l115 149l26 9q92 0 126 -30t34 -120q0 -66 -33 -127l7 -12l-19 -35l4 -10q-51 -57 -73 -103q-31 -14 -56 -35h-67q-690 0 -1039 35q0 14 -18 15q-4 0 -6 -2q-39 18 -47 104z" />
<glyph unicode="[" horiz-adv-x="1050" d="M111 -127v1413l16 10v19q10 2 31.5 29.5t42.5 27.5q10 0 22 -4l13 12h657q8 -14 37 -20q16 -4 16 -70q0 -61 -125 -57l-108 4l-33 -18l-18 2l-78 -74l6 -1145q25 -20 47 -43q31 -25 61 -25l15 -12h180q8 -14 37 -20q16 -4 16 -70q0 -12 -20.5 -32.5t-32.5 -20.5h-657 q-6 10 -34 12t-30 14q-14 -8 -33.5 27t-27.5 41z" />
<glyph unicode="\" horiz-adv-x="759" d="M104 1380l9 13q100 -6 112 -13q25 6 30 -16.5t17 -26.5q-2 -6 -2 -14q0 -20 20.5 -66.5t20.5 -62.5l-2 -10q12 -4 12.5 -25.5t10.5 -25.5q-4 -12 8 -33q12 -27 12 -35l-2 -16q10 -2 12.5 -23.5t12.5 -24.5q-4 -8 -4 -14q0 -8 8 -21.5t8 -21.5l-2 -16q12 -2 12 -23.5 t11 -25.5q-4 -12 8 -36t12 -37t14.5 -42t12.5 -45v-8q8 -4 9 -26.5t13 -27.5q-6 -8 -6 -14t11.5 -19.5t11.5 -23.5q0 -8 -7 -16q18 -14 39 -103q23 -96 35 -116q0 -12 10.5 -38t8.5 -36l14 -17q-4 -12 -4 -20q0 -18 16 -21q-6 -8 -6 -16q0 -2 10.5 -21.5t5.5 -35.5 q12 -4 13 -19q0 -29 10 -32l16 -39v-9q12 -2 -100 -2q-53 0 -68 33q2 6 2 12q0 8 -9 22.5t-9 23.5q0 10 6 16q-20 14 -16 51q-8 2 -10 19.5t-13 19.5q6 14 -7 43t-11 41h-4q2 14 -9.5 36.5t-11.5 33.5l2 16q-12 4 -13 26.5t-13 26.5q8 8 8 17q0 8 -12.5 21t-12.5 22l8 18 q-12 0 -13 18.5t-9 20.5q2 12 -9.5 34.5t-11.5 33.5l3 16q-12 4 -13.5 26.5t-3.5 24.5h-6q4 12 -8 36t-12 32l4 18l-27 53q4 6 4 15q0 16 -20 37l6 14q-12 4 -13.5 25.5t-3.5 25.5h-4q2 12 -9 34.5t-11 33.5l2 16q-12 4 -14.5 25.5t-4.5 25.5h-4q4 12 -8 36t-12 32l2 16 q-10 2 -12 23.5t-15 23.5q6 6 6 15q0 6 -9 20.5t-9 22.5l4 16q-27 6 -27 53z" />
<glyph unicode="]" horiz-adv-x="1050" d="M111 -154q0 74 96 78q139 4 158 15l24 -5l78 72v1147q-6 4 -47 45q-31 31 -58 29l-24 -2l-10 12h-170l-11 14q-4 -2 -10 -2q-27 0 -26 56q0 39 8 49q4 4 45 26h653q2 -12 19 -12q37 -2 38 -14q14 6 38 -20.5t24 -41.5l4 -1423l-31 -49q-45 -31 -63 -31q-6 0 -15 4 l-14 -14h-659l-11 14q-4 -4 -10 -4q-27 0 -26 57z" />
<glyph unicode="^" horiz-adv-x="1294" d="M156 963l14 8q4 14 31.5 38.5t31.5 41.5q29 14 68 61t64 62q4 16 34.5 42.5t34.5 43.5l49 38q0 14 19.5 31t21.5 21h246q2 -2 27 -23q16 -16 14 -29q31 -14 70 -61t61 -61q39 -51 70 -70l-6 -4q20 -14 56 -57.5t62 -57.5l11 -24h4v-13q-59 18 -74 37q-10 -2 -24.5 11.5 t-22.5 13.5l-6 -2q-4 8 -23.5 16t-21.5 16q-12 -4 -28.5 10.5t-25.5 14.5l-6 -2q-6 12 -32.5 25.5t-32.5 23.5q-10 -4 -23.5 8.5t-19.5 12.5l-6 -2q-6 10 -34 23t-34 24q-55 25 -86 37q-37 -27 -55 -37q-10 2 -25.5 -11.5t-23.5 -11.5h-7q-27 -25 -32 -24h-9 q-4 -10 -29.5 -20.5t-29.5 -22.5q-10 2 -26.5 -11.5t-24.5 -13.5h-8q-39 -37 -68 -47q-8 2 -20.5 -9.5t-18.5 -11.5h-6q-20 -20 -49 -30q-18 4 -39 -17z" />
<glyph unicode="_" horiz-adv-x="1157" d="M109 -154h940v-178h-940v178z" />
<glyph unicode="`" horiz-adv-x="679" d="M98 1307v22q10 4 15.5 23.5t11.5 23.5q-2 6 8 15.5t10 11.5q8 0 23.5 -7t21.5 -7l13 2l8 -13q6 0 53 -14l12 4q10 -8 19 -12l6 2q29 -14 49 -21q14 2 29.5 -6t19.5 -8l13 2q0 -10 39 -10l8 -10h18q2 -10 8 -13q14 2 30.5 -6t23.5 -8l12 4q27 -18 26 -33q0 -18 -14 -22 l4 -2q-12 -20 -45 -21h-14q-4 12 -19 13q-27 0 -34 -3q-4 8 -30 13.5t-32 11.5h-39v4q-16 0 -46 8.5t-44 8.5q-8 0 -18 -3q-4 12 -19 13q-27 0 -35 -2q-2 8 -27.5 12t-27.5 12h-31z" />
<glyph unicode="a" horiz-adv-x="1366" d="M70 262v109q16 14 16 35q0 6 -2 14l14 10q29 57 103 113h4q35 23 133 53l98 31q138 1 138 3q0 1 -48 1q55 -2 84 -17h78q6 63 6 99q0 70 -11 96.5t-58 79.5q-135 -14 -150 -86q-131 -109 -176 -109q-55 0 -98 23q-53 27 -51 78l2 49l14 8v16q37 33 110 97l13 -2 q66 45 250 65l4 6h233q94 0 199 -53q113 -55 153 -133q49 -92 50 -250q0 -45 -5.5 -132t-5.5 -132q59 -41 97 -47q23 -29 32 -68l-4 -16l-14 -8l2 -11l-8 -8q-10 -8 -10 -14q0 -4 2 -4l-101 -78l-8 2q-6 -2 -76 -27q-59 -20 -67 -20h-125l-10 12h-33q-72 63 -113 96 q-16 -10 -39 -12q-25 -14 -67 -51q-86 -27 -133 -31q-23 -2 -148 -2q-41 10 -115 45h-12q-20 18 -51 27q-23 31 -53 59q2 25 -25 47l2 13zM485 350q0 -31 15 -45q-4 -10 -4 -18q0 -10 19.5 -25.5t23.5 -21.5q25 4 28 -13q12 -2 27 -2q72 0 104 41q-2 23 15 25l-4 4 q-2 -8 -2 14v31q0 23 14 31v84q-14 14 -14 20q2 4 2 6q-14 27 -50 27h-71l-6 -2q-2 -14 -17 -14q-6 2 -8 2q-2 -4 -29.5 -24.5t-27.5 -39.5q-8 -6 -11 -10h-4v-70z" />
<glyph unicode="b" horiz-adv-x="1511" d="M70 1124l14 68q43 27 270 133l21 -2q20 0 90 25q10 -2 20 -2q25 0 43 14h154l31 -25v-411l8 -11q163 123 298 123h9l72 -2q23 -4 67 -24h29q8 -16 16 -13q78 -41 140 -96l-2 -4q70 -96 88 -199h4v-157h-4v-16q0 -75 -35 -99v-31q-39 -72 -47 -84q-35 -53 -64 -67v-17 q-168 -123 -269 -155.5t-316 -36.5q-18 12 -93 27.5t-110 41.5h-6q-35 16 -101 60q-35 -33 -133 -33q-18 0 -69 29v43l14 8v29l14 10v86l15 10v631q0 41 -66 88q-14 8 -102 59zM678 350q10 -8 14 -41t15 -41q0 -20 57 -65q18 -4 37 -4q76 0 133 67v17q8 2 15 22.5t16 24.5 q-8 20 -7 32l15 9v194q-10 6 -15.5 37t-13.5 35l6 10l-8 17q-8 12 -8 18q-70 61 -86 66l-10 10h-86l-54 -47q-6 -23 -16 -37z" />
<glyph unicode="c" horiz-adv-x="1232" d="M70 455v159h4q0 14 18.5 63.5t16.5 55.5l14 8v17l14 8l-2 6q47 51 152 154h6l96 51q29 0 105.5 28.5t111.5 28.5h199l24 -12h31l23 -12h47l10 -13q82 -25 125 -61q14 -12 88 -98l-6 -21q16 -23 16 -98l-16 -8l6 -19q-63 -117 -217 -117q-33 0 -82 23q-55 25 -53 53 q-31 27 -31 56q-46 75 -113 75h-2q-23 0 -55 -16q-20 -16 -51 -55l4 -17l-14 -8q-2 -16 -2 -65q0 -23 16 -50l-4 -8l20 -39l-2 -10q27 -12 29 -39l96 -80h17l8 -12q57 -14 84 -14q43 -1 130 35q78 32 124 32h10l31 -2q16 -20 43 -31q10 -27 24 -45v-71q0 -16 -30 -47 q-18 -29 -111 -109q-59 -39 -221 -70q-131 -25 -234 -26q-33 4 -88 24q-66 0 -172 62.5t-131 122.5q-39 25 -74 114h-10l-18 97h-4z" />
<glyph unicode="d" horiz-adv-x="1544" d="M70 551l2 59q16 20 16 45q0 8 -2 19q16 39 45 80l12 30l-4 4l15 29q16 4 16 17q0 4 -2 10q55 51 133 104q92 63 138 63q5 0 10 -1q41 24 97 24h5h106q22 -14 49 -14q9 0 19 2q45 -8 96 -39q27 18 31 59v66l-41 20l-10 -2q-20 12 -47 15q-29 27 -47 59l4 17q25 18 39 47 q23 0 86 22q72 25 92 29l110 18q12 4 35 15q16 -2 47 5t45 7h146l28 -55q-20 -61 -20 -134v-825q0 -18 67 -57l84 -49l5 -50q-23 -29 -68 -71h-3q-14 0 -63 -17q-25 -10 -78 -24.5t-161 -38.5l-184 -4l-44 28l3 54l-37 37q-18 -8 -76 -39q-47 -25 -68 -47q-131 -20 -209 -21 q-23 16 -57 12l-92 33q-12 25 -43 27q-84 68 -113 112q-41 16 -80 146q-32 108 -32 165v9zM561 442h4q10 -63 21 -92q18 -14 28 -20q-4 -20 43 -56h15q12 -14 41 -14q43 0 55 2q63 61 68 74l16 10v31l12 6v76l17 8l-7 305l-10 6q8 18 -16 43q-20 18 -41 35h-96 q-2 -14 -19 -14l-6 2q-70 -61 -72 -78l-16 -8v-17l-12 -8v-28q-16 -6 -17 -29q0 -8 -4 -21.5t-4 -17.5v-195z" />
<glyph unicode="e" horiz-adv-x="1247" d="M70 455v147h4l4 60l14 8l-2 8q10 25 33 70l14 6v18l15 6l-2 6q45 51 155 154h6q41 20 115 59q3 -1 8 -1q22 0 70 18q58 20 78 20h163q12 0 37 -6t37 -6l8 -12l17 4l43 -21l14 4q31 -18 96 -45q131 -143 148 -176q33 -59 33 -198q0 -18 -31 -35l2 -6q-14 -20 -45 -37h-555 q-25 -12 -25 -39l4 -23l15 -10q-2 -10 -6 -18q51 -59 174 -113l10 2l10 -12q18 -2 70 -2q45 0 125 32l121 50v4h10q33 0 82 -62q-2 -61 -15 -82l-16 -8v-16l-39 -33q-23 -18 -47 -27q-12 -23 -43 -24q-84 -53 -203 -72q-55 -8 -223 -12q-16 10 -77.5 22.5t-82.5 22.5l-10 -4 l-29 20l-10 -4q-10 25 -43 27l-47 45q-33 8 -49 26q0 16 -43 50l2 10q-41 41 -62 108h-10q-8 33 -18 97h-4zM494 711q0 -47 45 -62q26 3 54 3q14 0 28 -1q90 -6 84 -6q33 0 67 12q47 16 47 41v93l-14 10q-6 18 -31 43q-23 18 -43 37h-18l-11 12q-23 4 -40 4q-49 0 -154 -80 q4 -25 -12 -26q0 6 -2 -9v-71z" />
<glyph unicode="f" horiz-adv-x="1058" d="M70 684q0 66 2 88q10 12 14 33q14 14 62.5 31.5t50.5 19.5l-6 21h-11q-12 35 -39 71q2 23 -18 41q4 6 4 15q0 8 -8 27.5t-8 27.5l2 59l14 10l-4 21l18 22l-4 3q25 29 72 90h6q47 29 125 59q90 37 129 37h201q33 0 96 -25q80 -31 96 -35q10 -23 43 -24q27 -20 54.5 -70.5 t27.5 -83.5q0 -59 -86 -137q-63 -14 -96 -14l-53 14l-17 -4q-45 25 -51 29q-31 20 -35 43q-102 90 -133 90q-18 0 -65 -15q-23 -39 -23 -59q0 -37 55 -80q45 -37 88 -51q10 -23 43 -25q12 -16 53.5 -42.5t53.5 -41.5h195q14 -43 14 -88v-22q-6 -29 -35 -82h-115 q-74 0 -73 -39v-152q0 -39 26.5 -93t57.5 -74q49 -6 129 -80q1 -5 1 -11q0 -70 -100 -114q-88 -39 -182 -39h-295q-37 0 -94 18q-72 23 -94 27q-63 66 -64 78q0 14 71 83.5t71 133.5l18 20v176q-23 29 -57 39l-11 13q-4 0 -16 6t-18 6t-9 -8l-43 -4q-31 14 -30 61z" />
<glyph unicode="g" horiz-adv-x="1363" d="M70 0l14 8l-4 23q16 20 59 43q59 31 68 35l-2 6l-53 16q-25 29 -72 88l4 62q2 33 14 55l-4 6l72 68l12 -4q16 0 47 19t43 21l11 13q-72 14 -123 98q-49 78 -50 154q0 47 19 77q14 25 12 29q180 197 283 197q14 0 29 -4q57 26 177 26h9q63 0 98 -14q8 4 19 4q16 0 47.5 -9 t48.5 -9q10 0 16 2q31 -13 76 -13h6l4 -8q59 0 142 33q41 16 131 61q45 -10 57 -30l-6 -4q20 -49 20 -93l-18 -18l2 -16l-14 -17l2 -6q-23 -18 -31 -43q-49 -12 -57 -59v-86l-15 -49l6 -13l-18 -37l2 -10l-14 -24q-31 -16 -43 -50q-98 -70 -170 -98l-17 2q-74 -31 -186 -31 q-35 0 -104.5 4.5t-104.5 4.5q-55 0 -53 -68q23 -18 84 -43l8 -12h156q63 0 174 10q127 12 174 14q20 -13 48 -13q9 0 19 1q76 -29 105 -68q12 -16 65 -92q-6 -53 -6 -119q-16 -10 -10 -28l-14 -12q-18 -31 -40 -63t-45.5 -49.5t-58.5 -39.5q-125 -78 -299 -102 q-76 -10 -325 -17v6l-82 6v7l-68 4q-6 12 -16 12q-4 0 -6 -2q-27 6 -76 27q2 10 -21 10q-8 0 -19 7t-18 7q-25 37 -67 49l2 4l-31 37l4 4q-28 36 -28 108v5zM344 16v-36q0 -31 31 -39q4 -25 24 -39q8 -6 43 -19v-4q12 0 37 -14.5t37 -14.5l14 5l9 -13l184 2q6 6 27.5 9.5 t25.5 13.5q23 4 45.5 23.5t42.5 37.5v66l-45 41q-16 2 -28 12h-56q-31 0 -41 -12h-194q-6 8 -35 12t-33 12h-57l-29 -24q-2 8 -2 -19zM496 666q18 -16 20 -23q0 -6 -6 -29q10 0 15 -16t14 -16q33 -49 59 -68q27 0 29 -14h51q27 0 41 14q23 0 61 47l-4 4q16 4 15 37l14 8 l-4 162q-10 4 -10 21q0 31 -15 36q-2 6 4 17l-86 80h-96q-10 -8 -23 -15l-6 2q-12 -4 -28.5 -31.5t-30.5 -29.5q6 -27 -10 -35z" />
<glyph unicode="h" horiz-adv-x="1654" d="M70 1180l2 32q39 37 133 79t144 42t148.5 21.5t149.5 21.5q86 0 86 -186q0 -53 -11 -156.5t-11 -156.5l45 -19q27 35 98 88q14 35 139 58q90 16 168 16q12 0 76 -27l12 2q2 0 13.5 -9t17.5 -9q4 0 6 2q20 -27 70 -39q33 -41 88 -125l-6 -33l20 -16q-6 -49 -6 -109 q0 -68 12 -188l19 -182q2 -20 52 -73.5t50 -82.5t-47 -72l-158 -39h-276q-14 0 -44 7.5t-44 7.5q-6 12 -17 12q-4 0 -6 -2q-20 12 -47 14q-39 29 -63 74q2 29 78 131l-3 25l19 20v277q0 57 -55.5 98t-114.5 41q-39 0 -92 -66l-4 -335q0 -18 38.5 -89t38.5 -77q0 -57 -28 -84 l-10 2q-2 0 -10.5 -9.5t-14.5 -9.5q-2 0 -4 2q-20 -14 -71.5 -20t-71.5 -19h-246q-25 0 -74 13.5t-74 13.5q-43 20 -112 76v49q66 43 104 123q10 23 37 82v581q0 63 -72.5 127t-70.5 95z" />
<glyph unicode="i" horiz-adv-x="907" d="M70 840q27 43 45 57q8 8 59 37l6 -2l43 16l10 -2q47 22 76 22q4 0 8 -1q12 12 33 12l23 14l22 -2q16 0 51 9.5t50 9.5v4q27 0 73 18h-2q0 2 97 2q12 0 36.5 -11t24.5 -22v-702q0 -12 47 -49q12 -8 66 -84l-4 -47q-27 -8 -27 -25q0 -4 2 -8h-10q-23 -18 -54 -27 q-4 -10 -66.5 -24.5t-84.5 -14.5h-248q-14 10 -49 13.5t-49 13.5h-33l-10 12q-47 4 -84 33t-37 74l2 18l14 9v16l99 82v14l16 19v352q-8 4 -73.5 78.5t-71.5 85.5zM135 1212v25q25 31 31 51q12 -4 35.5 15.5t31.5 19.5q25 14 39 20l101 13l8 8h164q4 -14 24 -14q25 0 33 2 l8 -9q23 0 46.5 -26t23.5 -49q0 -8 -9 -22.5t-9 -20.5q-47 -41 -68 -43q-121 -51 -178 -62h-162q-8 14 -33 15l-12 -2q-74 51 -74 79z" />
<glyph unicode="j" horiz-adv-x="802" d="M70 -158q0 41 57 49q49 2 98 7l27 28q0 131 -8 394.5t-8 394.5q-35 27 -68 43q-12 23 -45 24q-14 23 -14 80v8l14 7q35 57 188 102q133 39 230 43l10 10q29 2 111 2q49 0 71 -28v-1057q0 -10 -7 -30.5t-7 -31.5l-14 -6v-31q-23 -14 -31 -34l6 -4q-35 -49 -111.5 -91.5 t-136.5 -42.5h-166l-10 13h-35l-10 14l-18 -4l-82 57q-41 35 -41 84zM162 1202v39l16 12l-6 4q8 2 16.5 21.5t16.5 19.5l12 -2q33 29 109 50q55 14 77 18h164q4 -14 23 -14q27 0 35 2q25 -14 47 -29q30 -18 30 -53q0 -10 -9 -24.5t-9 -20.5q-18 -25 -66 -45q-57 -25 -71 -37 l-98 -13l-11 -10h-162q-8 14 -36 15l-9 -2q-39 31 -59 43l6 6q-16 4 -16 20z" />
<glyph unicode="k" horiz-adv-x="1753" d="M70 1139q35 104 262 170q186 53 346 53q8 -20 31 -14q26 -30 26 -107v-6q0 -63 -17.5 -187t-17.5 -188q0 -61 15 -88q20 -37 78 -37q35 0 90 38t65 71l-55 69l6 27q92 57 123 57q14 0 27 -4l10 13h254q14 0 51 -9.5t43 -17.5h35q23 -23 53 -39q14 -31 14 -62v-8 q-53 -41 -92 -41q-4 0 -8 2q-94 -35 -125 -51q-74 -41 -92 -90q8 -33 51 -88q37 -51 70 -76v-6q16 -29 45 -47v-2q171 -190 325 -317l-2 -45q-23 -20 -28 -50q-72 -12 -246 -24l-14 -15h-193q-25 20 -59 15q-61 33 -68 37q-41 27 -45 57q-43 29 -59 57l4 7q-51 70 -103 116 l2 4l-45 58q-23 29 -69 45q-27 -31 -27 -58q0 -70 25 -106q8 -12 80 -80v-14q0 -51 -45 -80q-4 -4 -89 -43q-10 1 -20 1q-33 0 -61 -16h-277q-45 25 -133 27q-53 33 -66 41q-32 28 -32 60q0 31 98 96q-2 10 10 50t21 42v684q0 27 -99 80q-3 -1 -6 -1q-20 0 -67 40z" />
<glyph unicode="l" horiz-adv-x="962" d="M70 1147l2 16q35 35 112 99q31 0 56 20q49 0 156.5 40t158.5 40h156q18 -23 45 -31q-1 -2 -1 -6q0 -15 13 -59l-16 -29v-821q0 -72 70.5 -166t70.5 -131q-76 -39 -119 -58q-66 -27 -131 -30v-6l-297 -5q-14 10 -49 13.5t-49 13.5h-49l-9 12l-6 -2q-16 12 -39 17l-45 45 v53l17 8q8 29 33 43l6 -2q18 8 39 15q25 27 36 47l-2 12l15 8v78l14 8v557q0 88 -158 131z" />
<glyph unicode="m" horiz-adv-x="2101" d="M70 111v47l28 35v16q45 31 58 72l-4 22l16 8v365q-27 23 -21 55l-49 39q4 6 4 14t-17 40t-15 46q27 8 28 37h6q90 51 225.5 89t237.5 38q69 0 69 -129q0 -14 -1 -28l49 -19q49 47 147 135l13 -2q4 0 18.5 8.5t20.5 8.5q4 0 8 -2q38 26 90 26h4h98q25 0 54 -26l10 2 q4 0 14 -9.5t17 -9.5q6 0 8 4q10 -10 61 -78q37 -49 72 -57q90 90 137 121q82 53 182 53q125 0 187 -39q49 -31 119 -135l-5 -29l25 -38l-6 -512q0 -27 35 -72t39 -64q-21 -27 -15 -45q-12 -14 -51 -32.5t-51 -30.5q-10 1 -20 1q-35 0 -64 -16h-223q-28 16 -59 16 q-8 0 -15 -1l-8 12q-80 14 -105 64q6 20 56 129q-2 10 -2 20q0 29 16 51v318q-27 23 -21 55q-27 49 -81 49q-80 0 -76 -49l-15 -8l-14 -35v-291q0 -39 35 -115.5t35 -115.5l-17 -8l-8 -37h-8l-53 -31l-19 4q-68 -27 -84 -27h-245q-63 0 -177 68l-12 53l17 43l-5 2 q23 37 58 66v43l16 8v313q0 4 -12 30t-12 38l-45 47h-56l-43 -51v-25l-14 -18v-358q0 -31 16 -78l27 -78q-29 -43 -78 -70q-43 -24 -80 -24q-11 0 -22 2v-6l-242 -5q-26 16 -58 16q-8 0 -16 -1q0 6 -10 10q-10 2 -14 -2l-60 31l2 6z" />
<glyph unicode="n" horiz-adv-x="1597" d="M70 141q39 43 94 123l-8 27l14 8v416q-100 72 -100 114q0 4 10 23.5t6 30.5q23 20 119 53q88 29 102 53l8 -2l72 21l14 -2l56 26q12 -2 35.5 3t31.5 5q41 0 121 -10q8 -14 19 -78q8 -51 32 -69q25 10 78 57l76 66q39 0 118 13t117 13l23 -10q20 -8 51 -2l10 -14l17 2 q233 -91 233 -260v-13h6l5 -381l-15 -8l10 -16l-10 -29q12 -31 113 -137q-39 -86 -81 -108.5t-144 -24.5v-6l-281 -5q-41 25 -119 27l-10 12q-31 8 -49 29l6 10l-21 19q6 12 7 26q0 8 -2 15l16 14l-6 2q29 27 49 53l-4 17q16 14 16 35q0 8 -2 16l15 8v299q0 4 -9.5 24.5 t-9.5 32.5h-10q-23 37 -70 72l-41 2h-6q-47 0 -76 -31v-18q-34 -14 -34 -173v-9q0 -160 8 -189q4 -14 35.5 -95t31.5 -87l-2 -20l-28 -25l4 -10q-18 -12 -93 -34t-98 -22h-246q-12 0 -36.5 7.5t-36.5 7.5l-11 12q-84 6 -108 72h-10z" />
<glyph unicode="o" horiz-adv-x="1357" d="M70 580q0 8 7 29.5t7 31.5l12 8l-4 21l19 16l-5 4q14 33 44 62l-3 4q76 94 203 170q147 88 271 88h194q16 0 50 -9.5t50 -9.5q25 -16 89 -26q4 -10 65 -37q129 -88 191 -209l-5 -12q27 -64 33 -226q-16 -14 -16 -34q0 -8 2 -17l4 -2q-10 -37 -29 -45v-31l-14 -6v-16 l-14 -10l2 -2q-14 -27 -60 -70l6 -6q-59 -55 -153 -115q-113 -71 -176 -71q-8 0 -15 1q-29 -14 -75 -16v-4l-195 -4l-25 12h-30l-21 12h-33l-8 13h-35l-8 12q-55 10 -104 57h-19q-27 18 -67.5 71.5t-69.5 72.5l2 8q-6 16 -31 41l5 10q-25 35 -33 100h-4zM512 719l6 -164h4 q23 -147 47 -162l-4 -12q14 -45 56 -88q0 -10 43 -53q27 0 28 -15h51q29 0 65 29t36 57l14 11l2 53v8q0 55 -24 178q-29 145 -64 174l4 4q-96 94 -139 95q-35 0 -96 -54v-16l-15 -8q2 -37 -14 -37z" />
<glyph unicode="p" horiz-adv-x="1507" d="M70 760q0 47 12 65q106 74 215 113q55 20 160 43q76 16 102 33h123q12 -16 12 -78q0 -25 27 -37q49 12 80 57l6 -2q86 61 233 62q25 0 50 -2q47 -16 141 -58h18q129 -113 164 -223q21 -65 25 -274l-15 -6q-2 -20 4 -43l-18 -19l6 -35l-14 -6v-28q-12 -4 -15 -19l-4 -12 l-6 4q-18 -23 -18 -43l-103 -111q-121 -104 -317 -104q-20 0 -76 24l-12 -2q-23 10 -49 15l-10 12q-41 14 -76 20q2 -12 -2 -30q-2 -27 -2 -35q0 -76 80 -94q8 -10 55 -39q31 -18 43 -70q-10 -31 -56.5 -63.5t-78.5 -32.5q-10 0 -19 4q-49 -27 -108 -27h-285q-86 0 -231 76 q-10 20 -15 47q51 90 119 105q18 43 18 85v9l15 8v496q0 98 -29 129q-6 8 -65.5 29.5t-83.5 56.5zM664 336l14 -12q-1 -3 -1 -6q0 -31 71 -66q-16 -2 22 -2h51q33 0 75 22.5t42 51.5l14 10v12q10 4 15.5 28.5t11.5 28.5l-4 179q-10 10 -10 18q0 49 -43 100q-14 20 -80 80 h-94l-56 -49q2 -23 -14 -24z" />
<glyph unicode="q" horiz-adv-x="1511" d="M70 440v164q0 12 18 51q16 33 10 56l13 8q6 27 28 53l-4 4l15 25q25 12 28 37l107 77q53 39 110 64l6 -2q55 8 119 27q35 10 244 10q16 0 47 -5t47 -5v-7h14q35 0 90 -7q68 -9 99 -9q35 0 101.5 16.5t101.5 16.5h28q25 -27 25 -76l-2 -100q-12 -4 -12 -95q0 -53 4 -135 l-19 -16v-539l17 -22l-2 -29q23 -41 28 -49q18 -20 51 -31q49 -45 60 -80l-4 -26q-18 -27 -74 -62l-21 4q-61 -39 -151 -39h-297q-14 25 -143 25q-47 0 -129 74l4 59l55 33q12 23 43 24l53 58q25 33 25 57q0 6 -2 12l14 9l-18 36l-13 3q-23 0 -121 -37t-149 -37l-68 14 l-12 -2q-49 14 -67 14l-9 13q-72 16 -165 108l2 8q-16 23 -60 64q-18 41 -43 123h-8q1 8 1 16q0 25 -15 47zM547 473h4q10 -61 18 -92q6 2 15.5 -13.5t13.5 -17.5q4 -18 31 -43l41 -37h12q14 -8 41 -8q45 0 55 4l51 43l2 4v39q-2 -8 -2 -14q0 16 15 18l-4 330l-11 8 q6 16 7 29q0 27 -82 115q-18 2 -56 2q-35 0 -114 -60v-16l-15 -8q2 -10 -10 -36t-12 -34v-213z" />
<glyph unicode="r" horiz-adv-x="1269" d="M70 184q0 10 2 17l28 32v19h19l76 70l-2 45q0 16 16 45v311q-51 45 -109 70q-14 23 -20 51q31 72 225 127q164 47 277 47q8 0 61 -4l29 -23l-4 -20q0 -14 11 -42t11 -42l15 -2q27 16 47 47l-4 10q51 59 141 68q41 4 108 4l47 -21l7 2q14 -10 36 -14q10 -20 41 -25 q0 -10 25 -30q47 -41 47 -168v-10q-14 -14 -14 -37q-59 -80 -88 -103q-53 -43 -125 -43h-12l-50 2l-8 13h-33l-10 12l-10 -2q-12 8 -42 24.5t-38 47.5h-8q-4 29 -29 36l-33 -20q4 -20 -14 -33v-293q0 -23 29.5 -58.5t50.5 -29.5l10 -12h19l8 -12h8q49 0 49 -90v-7 q-16 -20 -57 -57l-10 2q-76 -16 -164 -39h-297q-18 -1 -66 13q-41 12 -64 12h-7l-11 12l-12 -2q-102 33 -102 100z" />
<glyph unicode="s" horiz-adv-x="1083" d="M70 291q0 104 69 104q61 0 119 -45q20 -14 96 -86h6q29 -12 86 -39l39 4q23 27 35 52l-6 14h-8q-6 33 -60 57q-23 10 -84 39l-10 -4l-24 19l-13 -3q-10 20 -41 25q-31 31 -65 45q-8 20 -39 54t-39 53l2 4q-35 37 -35 133v39l15 8v29l14 8l-2 10q12 18 16 39l29 20 q14 43 154 115l12 -4q68 35 180 35q39 0 64 -12h53v-7l43 -8q20 0 60 14.5t61 14.5q33 0 79 -36t54 -67q45 -33 51 -159l-12 -8q-6 -29 -43 -46q-31 -8 -64 -16q-6 6 -69 21l-78 65q-33 29 -88 55l-41 -2q-27 -25 -41 -51q12 -29 92 -88q43 -2 115 -45h12l10 -12h6 q25 -14 51 -25q14 -20 43 -24q76 -63 84 -93l23 -14q33 -111 33 -143q0 -14 -9.5 -40t-9.5 -38l-14 -10l4 -15q-111 -152 -244 -170v-4q-76 -6 -235 -16l-25 12h-30l-21 12q-23 -4 -59 15q-20 0 -59.5 -14.5t-55.5 -14.5l-20 2l-9 12q-57 16 -107 92t-50 138z" />
<glyph unicode="t" horiz-adv-x="1089" d="M70 870l2 17l14 8q10 35 37 53q37 25 43 33h6q53 27 131 82h6q20 8 156 84q103 57 162 57h4l49 -2q49 -31 49 -115q0 -16 -3 -51t-3 -51l283 -4l14 -14v-154q-35 -27 -96 -27q-16 0 -48 2.5t-49 2.5q-80 0 -118 -31v-383q0 -23 57 -55h12v-7l53 -4q5 -1 10 -1q34 0 56 24 l16 -4q49 18 48 18q53 0 59 -135l-14 -8q0 -20 -29 -37l6 -8q-100 -49 -203 -99q-57 -20 -260 -24q-23 18 -57 12l-8 12l-13 -2q-86 35 -112 72q-35 49 -70 74q-8 25 -18 78h-6l-5 501q-162 4 -161 86z" />
<glyph unicode="u" horiz-adv-x="1566" d="M70 831l4 31q43 57 245 111q173 46 260 46q10 0 19 -1l57 -4l29 -23v-104l-14 -8v-168l-15 -13v-295q1 -59 53 -91q42 -26 88 -27q11 0 23 2q23 25 62 35q-6 14 14 18v16q16 18 16 41q0 8 -2 19l15 6v280q-45 37 -123 125v35l151 82q39 0 114 26.5t114 26.5q29 0 86 9.5 t86 9.5q68 0 67 -146q0 6 -18 -221h-10l-5 -321q0 -37 80 -64q20 -25 31 -59q-15 -49 -78 -74q-10 -14 -90 -45l-18 2q-76 -10 -185 -39h-188q-8 35 -14 68q-12 41 -43 55q-209 -123 -269 -123h-159q-23 18 -58 12q-6 14 -12 15l-4 -4q-61 45 -121 92q-43 41 -55 145h-10 q0 43 9 129t9 129q0 150 -70 191q-39 23 -71 73z" />
<glyph unicode="v" horiz-adv-x="1576" d="M70 922q8 33 67 84q9 -2 18 -2q32 0 62 22q16 -2 44 5t40 7h356q115 0 197 -75v-62q-8 -2 -10 -8q-4 -8 2 -12q-63 -49 -64 -82q0 -39 41 -94.5t80 -73.5q41 14 67.5 49t51.5 70q-4 14 8 53t8 55q-20 14 -63 74q0 61 26 61q6 0 13 -2q16 12 72.5 29.5t78.5 17.5h199 q12 0 36.5 -6t37.5 -6q39 -18 65 -47l4 -66q-82 -64 -112 -64q-3 0 -6 1l-66 -51l4 -11q0 -2 -9 -12t-9 -20l-15 -8v-19q-37 -41 -45 -61l6 -2l-30 -41l4 -9l-8 -12q-10 -12 -11 -22l-6 -2q-8 -4 -8 -7q0 -23 -14 -24l2 -17q-14 -31 -51 -88v-4q-16 -18 -21 -41l-14 -10v-16 l-17 -11q-20 -43 -43 -75l4 -6l-28 -37v-4q-20 -23 -31 -54q-27 -16 -45 -45l6 -6q-45 -31 -74 -80l-82 -30q-20 6 -47 24q-41 29 -45 31l-4 22l-41 29l6 4q-16 25 -59 66v6q-53 74 -49 84q-78 72 -148 250q-20 2 -67 90q-16 31 -58 112v5q-25 31 -83 83l-21 -2l-10 13 q-70 20 -92 80z" />
<glyph unicode="w" horiz-adv-x="2224" d="M70 901q0 68 141 103q90 22 196 22h9h211q27 -20 59 -14q90 -31 100 -119q-33 -47 -32 -74q0 -49 88 -170l-2 -10l59 -16q80 96 80 137q0 49 -129 133v45q27 33 61 57l19 -4q10 35 407 35q27 0 150 -35l35 -43l-4 -47q-49 -55 -74 -100q23 -72 102 -178l70 16l-2 6 q2 6 38 63.5t34 59.5q16 20 16 53q0 12 -2 25q-51 37 -60 102q58 65 118 65q8 0 16 -1l10 10l256 4q22 -15 46 -15q7 0 15 1q39 -18 47 -39q4 -11 6 -60q-16 -6 -10 -16l-182 -109l-4 -32q-18 -6 -70 -125h-10q-16 -27 -20 -49l-15 -9l-14 -28l4 -4q-37 -55 -102 -168l4 -6 q0 -2 -16.5 -26t-12.5 -30q-35 -25 -47 -63l2 -8q-23 -37 -86 -127q-53 -76 -127 -84q-66 27 -190.5 221t-159.5 209l-45 -23v-4q-8 -14 -29 -47q-6 -4 -16 -12l6 -6q-12 -31 -31 -37v-31q-37 -27 -43 -74q-51 -78 -129 -184l-55 -12l-51 18q-10 20 -41 51t-41 45l4 4 q-63 111 -234 394q-170 274 -305 313q-18 33 -18 47z" />
<glyph unicode="x" horiz-adv-x="1519" d="M70 166h4l18 29l10 -2q39 8 105 38q20 25 69 72l5 21l16 10l-2 4q35 57 115 160q-2 4 -2 8q0 8 16 12v19l16 8l-4 14q12 31 29 53q-94 121 -125 152q-90 90 -163 90h-9l-10 14h-21q-6 37 -24 70l14 10v19q27 35 125 61q84 23 143 23h340q31 0 97.5 -18.5t76.5 -37.5 l-4 -14l23 -31q2 -14 -19 -18l2 -8q0 -27 -32 -39q10 -61 16 -72q12 -23 63 -45l54 39v4l37 49q-49 57 -50 101l2 18l17 8l14 25q123 37 287 39l20 -13h29l62 -34l20 -37q-10 -37 -47 -66h-12q-49 -33 -146 -113l4 -2q-33 -39 -104 -118v-13l-19 -24q1 -2 1 -4 q0 -16 -37 -66l2 -20q27 -51 84 -117l-2 -6q59 -66 86 -109q18 -29 104 -67q70 -31 68 -101q-20 -25 -64 -65q-2 1 -6 1q-19 0 -84 -16q-84 -20 -102 -20h-357q-31 0 -160 39l-24 39l2 61l70 56v51q0 49 -97 100l-18 -2q-31 -35 -94 -104v-56q0 -23 30 -39l-28 -102 q-10 -27 -66 -27h2l-254 -2q-109 0 -112 111z" />
<glyph unicode="y" horiz-adv-x="1515" d="M70 905q39 80 110 109q45 18 168 28l6 9h285q129 0 184 -76v-74q-16 -4 -69 -78l14 -22q-2 -2 -2 -7q0 -16 22 -61h5v-10q0 -41 33 -73q31 -29 66 -29h7l27 2q14 8 80 94l-5 10l23 43l-4 10l14 25q-8 29 -43 73t-45 64l15 45q49 35 77 43q4 2 90 12v7l164 2 q24 -14 53 -14q9 0 17 1q4 -16 16 -16q6 0 13 4l55 -51v-74q-174 -90 -182 -133l-33 -31l2 -8q0 -8 -14.5 -25.5t-14.5 -23.5q0 -4 4 -6q-12 -31 -30 -49v-29l-15 -8v-31q-8 0 -12 -8t2 -14l-23 -37l5 -13l-15 -41q-16 0 -16 -14q0 -4 4 -8l-16 -45l4 -15l-17 -38l-14 -7 v-30q-8 0 -12 -8q-4 -10 2 -15l-23 -39l2 -12l-14 -8v-31q-12 -4 -12 -12q0 -4 2 -4q-16 -23 -45 -95l2 -8q-31 -53 -115 -155v-17q-193 -186 -326 -186h-157q-20 16 -43 16q-8 0 -17 -2q-88 25 -145 90q-63 72 -64 158l17 35q-6 4 -6 8t9 17.5t9 15.5q0 4 -2 6q27 20 49 51 q70 37 115 37q88 0 139 -59q37 -43 68 -142l51 -20q51 31 51 59q0 43 -117 287q-111 233 -153 291q-37 66 -70 151q-16 20 -24 47h-11q-6 18 -72.5 65.5t-82.5 96.5z" />
<glyph unicode="z" horiz-adv-x="1271" d="M70 807l14 8q2 16 -4 35l14 12l-2 8q4 6 14 39q10 25 33 39q6 31 39 47l-2 6q29 39 100 39q16 0 58.5 -14t60.5 -14h682q31 0 51.5 -24.5t20.5 -57.5l-2 -17l-14 -8l2 -8q-8 -27 -48 -78l7 -8q0 -2 -10.5 -11t-10.5 -14q0 -4 4 -6q-27 -8 -28 -37l-17 -10v-16l-14 -10 l2 -7q-20 -23 -21 -26q2 -4 5 -6l-39 -43l4 -11l-25 -20l4 -12q-27 -8 -28 -37l-15 -8q-14 -31 -31 -52l7 -6l-45 -51v-16l-15 -9v-18l-16 -8v-17q-29 -18 -29 -36q0 -47 29 -72q68 0 102 14q18 10 82 58v14l15 8l-3 4l35 53q25 25 56 23l24 -2q27 -18 76 -57l-6 -5 q16 -25 16 -47q0 -47 -2 -63l-12 -12v-31l-12 -12l4 -11l-21 -24l2 -8q-23 -29 -45 -58q-31 -33 -59 -41q-4 -26 -92 -26h-7l-10 12q-17 -1 -32 -1q-49 0 -70 15h-692l-31 17q-30 56 -30 82q0 4 1 8l31 35v16l14 10l-2 2q20 23 31 54l14 8l-4 8q14 23 55 55q8 45 50 70v16 q35 33 39 62l14 8q-4 6 22.5 37.5t36.5 38.5l-4 6l15 28q8 4 45 66l14 8v17l14 10l-2 6q0 2 8.5 11t8.5 14q-2 2 -5 2l21 30q0 35 -59 35q-111 0 -138 -51q-12 -25 -30 -31v-16l-15 -10q-6 -16 -27.5 -35t-27.5 -29h-74l-59 55l4 7q-14 23 -14 102z" />
<glyph unicode="{" horiz-adv-x="874" d="M141 553v12q14 -2 27 -2q47 0 104 45q45 41 90 80q25 39 17 98l14 9v362l17 17v36l14 9q0 59 72 100q61 37 125 33l41 -2q-43 -37 -48 -58l-14 -10q-29 -33 -29 -178v-92q0 -20 2 -54v-36q0 -63 -6 -97l-14 -20q0 -80 -23.5 -115t-95.5 -78l-20 4q-4 -4 -52 -20 q-33 -12 -32 -35q0 -14 20.5 -30.5t22.5 -18.5q25 4 67 -23q8 4 17 5q14 0 24 -21l11 4q10 -4 17 -23.5t19 -21.5l17 -37l-8 -12q41 -45 41 -139q0 -31 -4.5 -91.5t-4.5 -91.5q0 -166 93 -264l-31 -6q-53 0 -129 29q-2 10 -30 18t-34 25q-27 61 -35 80q-16 59 -16 159 q0 31 4 125q4 78 2 125l-16 21q0 23 -19 78q-66 47 -96 71q-55 41 -121 31zM678 -207h8q6 0 6 -8l-6 -6h-8v14zM678 1354v14h6q8 0 8 -6q0 -2 -6 -8h-8z" />
<glyph unicode="|" horiz-adv-x="397" d="M100 -178l4 1601h187l6 -1605l-186 -2z" />
<glyph unicode="}" horiz-adv-x="870" d="M182 1354v4q0 10 11 10h6v-14h-17zM188 -207h11v-14h-11v14zM213 -207q6 12 41 39q29 23 20 49l15 15q-4 12 -4 20q0 16 16 23v350q16 12 16 39q0 47 -2 43l17 8q-4 8 -4 16q0 41 67 80q59 35 107 37l43 47q0 23 -33 35q-25 12 -51 22q-8 -4 -15 -4q-10 0 -28.5 15.5 t-28.5 15.5h-6q-68 109 -68 135q0 41 -14 51q0 377 -19.5 432.5t-68.5 84.5l72 8l12 -13q6 2 12 2q14 0 35 -13t29 -15q115 -35 114 -352q0 -29 -3 -86.5t-3 -85.5q14 -6 15.5 -36t9.5 -36q-6 -16 18.5 -40t22.5 -36q8 -4 25.5 -20.5t27.5 -16.5t41 -12q16 -29 72 -29h20 v-12q-20 6 -39 6q-57 0 -110 -63q-66 -78 -88 -90v-46l-15 -8q0 -66 -8 -195.5t-8 -195.5v-39l-14 -10v-16l-17 -11v-16l-14 -10l4 -9q-117 -61 -166 -61z" />
<glyph unicode="~" horiz-adv-x="1370" d="M104 573v164q23 23 132.5 61t146.5 38h131q39 -14 61 -11l19 -12q25 0 35 2q31 -20 55 -20l12 2l37 -17l12 2q27 -8 54 -22q23 4 35 -12h55l10 -11h148q41 0 215 88l4 -163q-109 -47 -166 -66h-15q-23 -23 -157 -23q-10 0 -40 8.5t-46 4.5q-39 18 -62 22 q-23 -4 -69.5 14.5t-65.5 18.5l-12 -2l-21 12h-32q-45 18 -70 23h-162l-16 -10q-20 -2 -67.5 -19.5t-67.5 -17.5q-6 -6 -42 -22.5t-42 -31.5h-9z" />
<glyph unicode="&#xa9;" horiz-adv-x="1665" d="M104 637v174q16 6 17 39q0 14 -4 33q14 4 16 32.5t14 34.5q-2 14 14.5 44t14.5 42v15l68 96v8q82 133 329 250q14 -2 40 10t38 12l15 -2q6 12 39.5 12.5t42.5 16.5h167q6 -16 40 -16t40 -13l54 -14q27 8 55 -16q2 4 6 4q6 0 10 -17h35l8 -16q106 -20 191 -131 q92 -129 137 -195q-2 -6 -2 -12q0 -12 13.5 -36.5t13.5 -37.5v-10q16 -12 24 -61q2 -14 8 -68h4l4 -178q-14 -6 -14 -40t-14 -42q-18 -51 -12 -86l-31 -39q10 -45 -37 -80q-2 -20 -28.5 -52t-30.5 -48q-96 -88 -148 -131q-94 -41 -205 -82q-168 -53 -295 -37v4 q-72 -2 -90 19q-8 -4 -16 -5q-20 0 -43 23l-12 -4l-45 14l-9 15l-43 16q-10 14 -53 35.5t-53 44.5h-19q-119 96 -145 188q-33 37 -43 62l6 6q-16 6 -43 111.5t-29 107.5zM152 627q29 -61 24 -97v-22l29 -43q-4 -8 -4 -16q0 -16 20 -31l-2 -10l25 -21q-6 -12 13 -29.5 t19 -25.5v-6q154 -137 248 -215l17 4q63 -25 67 -43q115 -8 129 -29h187q8 14 34 16q29 2 43 2q51 10 113 45q25 12 105 62h8q84 76 88 80q66 61 65 84v4q12 0 21.5 24.5t21.5 26.5q2 18 32 68.5t30 72.5q0 10 -4 19q14 4 14 37.5t14 42.5v192q0 8 -10 24.5t-10 24.5l2 23 q-10 6 -8 26.5t-13 22.5q4 6 5 14q0 18 -21 41l2 17l-43 53q2 6 2 10q0 23 -31 43v4l-153 158h-14q-25 39 -125 68l-9 14q-10 -4 -20 -4q-20 0 -41 22l-16 -4l-82 29h-187l-14 -14q-10 4 -21 4q-25 0 -78 -24.5t-71 -24.5l-12 2q-6 -8 -26.5 -18.5t-27.5 -20.5 q-55 -20 -112 -80l-99 -103v-18l-73 -111q4 -6 0 -14q-6 -8 -13 -10v-19l-18 -22l8 -25l-28 -88v-192zM387 643v152q18 6 14 41l15 26l-6 12q0 8 9 16.5t9 14.5q0 4 -4 10q53 53 45 72q33 37 104 88q14 16 64 37q4 16 31 14l26 15h33l21 14h151q4 -18 57 -14l11 -15 q35 -12 100 -43q2 -10 10 -10q12 0 25.5 18.5t17.5 20.5l-2 6q18 8 19 19q0 6 -7 14l21 6l27 -2v-336l-23 -2q-27 0 -27 14q0 4 2 9q-6 23 -24 67q-16 18 -39 66q-12 6 -47 45q-29 33 -53 37l-11 14h-32l-9 14h-63q-31 0 -76 -24.5t-67 -50.5l2 -13q-23 -6 -23 -20 q0 -8 6 -17l-14 -8v-35q-20 -6 -14 -65l-15 -16v-207q10 -57 51 -164q37 -41 74 -84q20 0 51 -25h54q74 0 100 25l10 -2q16 25 33 16q18 16 135 127q6 -20 21 -20q4 0 12 4l2 -6q0 -16 -21.5 -42t-23.5 -38q-35 -25 -96 -82l-13 2q-6 -23 -20 -23q-6 0 -14 7q0 -20 -27 -15 l-12 -16l-37 2l-21 -14h-143q-8 14 -53 14l-29 14l-14 -4q-6 0 -21.5 10.5t-27.5 8.5l-9 14l-4 -2q-10 0 -27.5 16.5t-31.5 14.5q-6 12 -41 43.5t-39 56.5q-16 10 -31 37q-18 35 -22 41l4 12q0 10 -11.5 29.5t-11.5 27.5t4 15z" />
<glyph unicode="&#xab;" horiz-adv-x="976" d="M106 406v245q2 2 23 27q16 16 29 14q14 31 61 70t62 61q51 39 69 70l4 -6q14 20 57.5 56t57.5 63l25 10v4h12q-18 -59 -37 -74q2 -10 -11.5 -24.5t-13.5 -22.5l2 -6q-8 -4 -16 -23.5t-16 -21.5q4 -12 -10.5 -28.5t-14.5 -24.5l2 -7q-12 -6 -25.5 -32.5t-23.5 -32.5 q4 -10 -8 -23.5t-12 -19.5l2 -6q-10 -6 -23.5 -34t-24.5 -34q-25 -55 -36 -86q27 -37 36 -55q-2 -10 11.5 -25.5t11.5 -23.5v-6q25 -27 25 -33v-8q10 -4 20 -30t23 -30q-2 -10 11 -26.5t13 -24.5v-8q37 -39 47 -68q-2 -8 9.5 -20t11.5 -19v-6q20 -20 30 -49q-4 -18 17 -39 l-12 -12l-9 14q-14 4 -38.5 32t-40.5 32q-14 29 -61.5 67.5t-61.5 63.5q-16 4 -43 34.5t-43 34.5l-39 50q-14 0 -30.5 19t-21.5 22zM479 406v245q2 2 23 27q16 16 28 14q14 31 61.5 70t61.5 61q51 39 70 70l4 -6q14 20 57 56t58 63l24 10v4h13q-18 -59 -37 -74 q2 -10 -11.5 -24.5t-13.5 -22.5l2 -6q-8 -4 -16 -23.5t-17 -21.5q4 -12 -10 -28.5t-14 -24.5l2 -7q-12 -6 -25.5 -32.5t-23.5 -32.5q4 -10 -8.5 -23.5t-12.5 -19.5l2 -6q-10 -6 -23.5 -34t-23.5 -34q-25 -55 -37 -86q27 -37 37 -55q-2 -10 11.5 -25.5t11.5 -23.5v-6 q25 -27 24 -33v-8q10 -4 20.5 -30t22.5 -30q-2 -10 11.5 -26.5t13.5 -24.5v-8q37 -39 47 -68q-2 -8 9 -20t11 -19v-6q20 -20 31 -49q-4 -18 17 -39l-13 -12l-8 14q-14 4 -38.5 32t-41.5 32q-14 29 -61 67.5t-62 63.5q-16 4 -42.5 34.5t-43.5 34.5l-39 50q-14 0 -30.5 19 t-20.5 22z" />
<glyph unicode="&#xad;" horiz-adv-x="776" d="M106 444q0 29 15 43v50q10 2 10 14q0 20 10 22q-2 10 9.5 21.5t11.5 17.5l-2 6l14 9v16q10 -2 27.5 7t25.5 9l13 -2l10 -14h418q2 10 2 -43q0 -25 -15 -35l-2 -8q0 -35 -14 -37v-28l-14 -9v-28l-13 -11q0 -2 2 -6q0 -6 -14 -15t-14 -15l2 -9l-15 -8h-325q-55 0 -135 4 q-6 37 -7 49z" />
<glyph unicode="&#xae;" horiz-adv-x="1665" d="M70 819q-2 70 43 139l-4 11q0 25 28 53l-2 12l17 49q14 6 29.5 34t27.5 34q12 68 135 160q41 31 123 90q66 27 199 67q18 -2 36 -2q23 2 35 21h191q80 0 145 -43q14 0 44 -13.5t46 -11.5q47 -16 144 -100h10q37 -39 115 -115l-5 -6q4 -8 86 -123q49 -70 50 -153 q0 -14 13 -44t9 -49l10 -10v-192l-14 -72q-12 -2 -14 -30.5t-15 -35.5l-14 -43l4 -6l-29 -43l3 -4q0 -16 -32 -54t-28 -56q-16 -45 -139 -154q-12 0 -104.5 -53t-116.5 -72l-15 4q-23 -23 -41 -22q-8 0 -16 4l-96 -29h-191q-70 0 -139 43h-8q-14 -2 -46 14.5t-46 14.5 q-37 16 -78 53q-41 8 -128 95t-97 130q-20 10 -37 53.5t-31 53.5l-18 51l4 20q-33 10 -33 134h-6zM102 643q14 -10 19 -78q4 -59 24 -61l-2 -17q23 -20 23 -41q0 -8 -4 -16q10 2 13 -18.5t15 -18.5l-4 -10q23 -8 23 -23q0 -6 -6 -14q14 -4 25.5 -29.5t23.5 -29.5 q16 -37 93 -109t108 -67l57 -45l12 4l62 -33l16 4q31 -20 53 -21q8 0 17 3q6 -14 37.5 -15.5t37.5 -7.5h175q31 0 93 17.5t83 33.5l8 -2q6 0 22.5 10.5t26.5 6.5q82 55 242 184v18l22 19v6q25 63 43 65l-2 9q0 6 10.5 16t10.5 16q0 4 -4 9q12 -2 15 18t15 20l13 58l16 10v47 q14 6 14 25q0 6 -2 15t-2 15q1 21 19 27v162l-21 20l6 27q0 10 -12 41t-8 47q-39 66 -96 190l6 7q-43 51 -131 149l-7 -2l-45 39h-6q-55 18 -96 59l-6 -2q-16 0 -46 16.5t-48 14.5l-11 14h-47q-6 14 -39.5 14.5t-42.5 14.5h-161q-66 -20 -140 -43l-12 2l-61 -31l-13 2 l-45 -18q-14 -41 -53 -37q-51 -47 -158 -131l2 -6q-37 -27 -30 -55q-14 -4 -27.5 -31t-24.5 -31v-12q-18 -16 -18 -33q0 -6 2 -12l-29 -39q6 -31 -18 -88q-25 -63 -25 -86v-162zM152 819q18 8 18 39q0 14 -4 33q10 41 29 63l-2 7q0 6 10 28q10 16 6 29l14 8l-2 6 q0 8 15.5 24.5t11.5 26.5q8 25 186 197h6q20 37 52 29l47 34q18 -2 50 17.5t48 19.5q8 0 18 -4q6 14 40 15.5t42 13.5h191q8 -18 39 -19q16 0 34 5q0 -6 9 -13q8 -4 12 2q23 -23 43 -22q8 0 16 4q25 -12 72 -43q31 6 121 -82l115 -115q0 -10 16 -28.5t12 -28.5l15 -14l-5 -4 q35 -37 29 -64q12 -2 15.5 -25.5t13.5 -27.5q8 -35 20 -105h4l4 -198q-16 -6 -16 -39q0 -12 2 -27q-10 -4 -13 -27.5t-16 -25.5v-33l-14 -10v-19l-29 -38l5 -11q-12 -6 -27.5 -35.5t-30.5 -35.5v-15l-129 -129q-12 0 -33.5 -20.5t-33.5 -18.5q-31 -16 -91 -53l-6 2 q-10 0 -30.5 -12t-28.5 -12q-6 0 -12 4l-86 -29h-183q-4 8 -65.5 21.5t-73.5 21.5h-6q-6 0 -25.5 9t-31.5 5l-9 15h-6q-8 -2 -24.5 13t-26.5 15q-80 45 -145 129q-39 53 -115 158l2 8q0 23 -28.5 89.5t-24.5 95.5h-6zM190 811l5 -178h4q12 -68 14 -113l20 -22l-6 -4 q10 -4 13.5 -30t15.5 -28v-8l29 -35v-6q31 -27 28 -51l125 -131h21q31 -20 90 -66q23 0 72 -28l22 2l31 -19q20 4 37 4q29 0 34 -16h175q6 16 32 16q14 0 33 -4q33 33 127 70q106 41 145 65q74 45 89 117q14 0 22 25.5t21 25.5q33 53 49 101l-4 10q16 18 16 33q0 8 -4 14 l14 10q-4 18 -4 33q1 33 19 39v174q-18 10 -19 72q0 12 -11 31.5t-11 31.5q0 6 4 12q-12 4 -14.5 30t-14.5 30q-12 27 -31 37l2 6q0 10 -15 25.5t-15 25.5q-51 57 -168 160l-11 -4q-8 23 -22 22q-6 0 -14 -4q2 10 -18.5 13.5t-20.5 15.5l-58 14q-2 12 -23.5 14.5t-23.5 10.5 q2 -2 -39 -2q-25 0 -32 14h-175q-18 0 -57 -12.5t-61 -10.5q-4 -8 -22.5 -14t-20.5 -14l-13 2q-23 -25 -45 -19q-6 -10 -31.5 -24t-31.5 -27q-35 -16 -78 -61q-51 -53 -72 -68l2 -6q0 -10 -17 -27.5t-13 -29.5q-2 -2 -43 -54l2 -14q0 -14 -12.5 -41.5t-12.5 -46.5l-16 -16 q2 4 2 -39q0 -25 -15 -33zM455 1124l4 17h497q4 -18 58 -15l10 -14l16 4q31 0 142 -104l-4 -15q0 -18 7 -55t7 -55l-14 -8l4 -9q-16 -12 -17 -22q0 -4 4 -8q-12 -18 -45.5 -40t-46.5 -38q-20 0 -61 -13.5t-74 -9.5l-8 -20q31 -6 47 -19q49 0 86 -43q27 0 43 -36 q20 -45 29 -52v-6q18 -43 16 -84q-2 -53 -2 -47q0 -72 41 -72q10 0 21.5 15.5t15.5 17.5v15l14 10v86h58q-2 -6 -3 -15q0 -14 7 -34l-15 -19l2 -18q6 -63 -65 -99q-57 -29 -127 -28q-37 0 -60 16l-8 -2q-16 25 -33 17l-49 61l2 4q0 4 -8 25q-8 14 -4 24q-8 10 -16 90 t-31 119q-39 66 -104 66h-17l-8 -11v-282q0 -18 42 -38t42 -42l-4 -16h-387v43l8 -3q16 25 35 17l37 43v625q0 16 -42 35.5t-42 41.5zM535 358h235q-2 4 -43 50v303l14 8v12q0 20 -14 23l4 321q25 14 25 23v6q-39 4 -74 4h-143v-8q0 -10 18 -25.5t21 -19.5l-5 -654 q-14 -12 -38 -43zM770 1059l4 -301q-6 -2 49 -2q27 0 39 16q27 0 47.5 20.5t42.5 41.5q-2 10 -2 16q1 17 17 29q2 -8 2 71q0 39 -21 58l4 4q-41 68 -61 67q-10 0 -10 11q-23 4 -41 4q-70 0 -70 -35zM866 719q20 -18 43 -39t29 -43q10 -4 12 -12q2 -4 0 -15q-2 -12 -2 -18 q0 -12 15 -17v-116q14 0 14 -33q0 -16 14 -18l-4 -13q0 -6 10.5 -11t10.5 -13q0 -4 -2 -13h18l10 -12h19q12 -8 10 -16l96 6q-47 12 -47 76q0 12 2 35.5t2 35.5q0 25 -6 39q-8 4 -8 31q0 6 -14.5 27.5t-10.5 33.5q-18 8 -47 33h-4q-16 10 -55 15l-8 14h-9q-31 0 -50 28.5 t-34 28.5zM934 1098l43 -43q2 -18 29 -54v-139l-15 -8q4 -10 4 -18q0 -16 -20 -33q-27 -18 -27 -21l4 -10h33q4 12 27.5 14t25.5 15q10 -4 17 -4q10 0 27.5 16t27.5 16q2 4 12.5 12.5t7.5 20.5q14 0 15 27q0 12 14 12v43q0 23 -14 29l2 14q0 16 -21 35q-29 25 -30 29l-6 -2 q-74 45 -121 45q-20 0 -27 14z" />
<glyph unicode="&#xbb;" horiz-adv-x="976" d="M98 37q18 59 37 74q-2 10 11.5 24.5t13.5 22.5l-2 6q8 4 16 23.5t16 21.5q-4 12 10.5 28.5t14.5 24.5l-2 6q12 6 25.5 33t23.5 33q-4 10 8.5 23.5t12.5 19.5l-2 6q10 6 23 33.5t24 34.5q25 55 37 86q-27 37 -37 55q2 10 -11.5 25.5t-11.5 23.5v6q-25 27 -24 33v8 q-10 4 -20.5 29.5t-22.5 30.5q2 10 -11.5 26.5t-13.5 24.5v8q-37 39 -47 67q2 8 -9.5 20.5t-11.5 18.5v7q-20 20 -30 49q4 18 -17 39l13 12l8 -14q14 -4 38.5 -32t41.5 -32q14 -29 61 -67.5t62 -63.5q16 -4 42.5 -35t43.5 -35l38 -49q14 0 31 -19.5t21 -21.5v-245 q-2 -2 -23 -27q-16 -16 -29 -14q-14 -31 -61 -70t-61 -62q-51 -39 -70 -69l-4 6q-14 -20 -57 -56t-58 -63l-24 -10v-4h-13zM471 37q18 59 37 74q-2 10 11 24.5t13 22.5l-2 6q8 4 16.5 23.5t16.5 21.5q-4 12 10.5 28.5t14.5 24.5l-2 6q12 6 25.5 33t23.5 33q-4 10 8 23.5 t12 19.5l-2 6q10 6 23.5 33.5t23.5 34.5q25 55 37 86q-27 37 -37 55q2 10 -11 25.5t-11 23.5v6q-25 27 -25 33v8q-10 4 -20 29.5t-23 30.5q2 10 -11 26.5t-13 24.5v8q-37 39 -47 67q2 8 -9.5 20.5t-11.5 18.5v7q-20 20 -31 49q4 18 -16 39l12 12l9 -14q14 -4 38.5 -32 t40.5 -32q14 -29 61.5 -67.5t61.5 -63.5q16 -4 43 -35t43 -35l39 -49q14 0 30.5 -19.5t20.5 -21.5v-245q-2 -2 -22 -27q-16 -16 -29 -14q-14 -31 -61 -70t-62 -62q-51 -39 -69 -69l-4 6q-14 -20 -57.5 -56t-57.5 -63l-25 -10v-4h-12z" />
<glyph unicode="&#x401;" horiz-adv-x="1691" d="M70 131q0 10 2 23q12 16 90 65q66 41 63 80q25 33 17 68l14 10v123l16 14v508q0 133 -98 190l-8 -2q-66 18 -84 93q10 31 51 73q92 23 201 23v-6l784 -2l10 8q39 -4 107 4q76 10 104 10q211 0 211 -285v-41q-16 -6 -16 -16q0 -2 2 -4q-23 -33 -47 -68q-14 -12 -105 -12 l-86 86q-53 53 -98 62q-6 16 -18 16q-6 0 -13 -4q-14 16 -36 16q-8 0 -19 -2v4l-272 6q-59 2 -68 -98l-14 -10v-186q0 -20 55 -50h80q20 0 74 35q-8 23 30 72l-2 18q-4 37 30 61.5t73 24.5q55 0 80 -45q12 -23 41 -82l-2 -26l18 -27q0 -434 -154 -434q-59 0 -82 55 q-6 33 -23 94.5t-60 61.5q-72 0 -127 -19q4 -6 4 -10q0 -12 -21 -16v-262q51 -74 98 -74h230q14 0 59 14.5t56 22.5l12 -2l80 43q35 59 86 110q66 66 116 66q29 0 65 -27.5t46 -54.5v-70q0 -14 -10 -49t-6 -55q-16 0 -17 -16q0 -4 4 -9l-22 -41l4 -12q-31 -43 -82 -133 q-43 -29 -88 -43q-78 31 -188 31q-35 0 -72 -2l-17 14l-548 -6q-459 -6 -484.5 27.5t-25.5 68.5zM389 1624q-2 25 0 53q12 18 18.5 23.5t14.5 17.5q25 14 39 21l100 12l8 8h164q4 -14 25 -14q20 -16 26.5 -31.5t12.5 -48.5v-33q-14 -43 -68 -71q-68 -35 -125 -45l-88 -3 q-41 2 -67 23l-33 29q-18 14 -21 45zM903 1626q-2 25 0 53q12 18 18.5 23.5t14.5 17.5q25 14 39 21l100 12l8 8h164q4 -14 25 -14q20 -16 26.5 -31.5t12.5 -48.5v-33q-14 -43 -68 -71q-68 -35 -125 -45l-88 -2q-41 2 -67 22l-33 29q-18 14 -21 45z" />
<glyph unicode="&#x410;" horiz-adv-x="2025" d="M70 150q0 23 100 96l135 98l-2 10l35 39l-10 19q29 25 60.5 100.5t57.5 99.5q8 55 41 84q23 104 72 148q-2 8 8.5 26.5t10.5 24.5q0 4 -3 8q20 12 70 133l33 54l-6 18q35 74 47 78q8 14 22 90q18 96 93 125q39 14 45 24h143l20 -14h29q162 -94 272 -264q59 -90 166 -322 q96 -211 174 -315l-2 -10q0 -55 74 -144q66 -80 123 -114l16 2q62 -31 62 -62q0 -78 -86 -114q-66 -29 -154 -29q-18 0 -37 2l-12 -8l-379 -6l-10 14q-27 -2 -51 -2q-190 0 -195 127q27 18 45 49q61 14 99 76q-25 39 -82 59q-12 -2 -25 -2q-31 0 -57 14h-310 q-29 -23 -65 -22l-43 -41l2 -53q45 -10 72 -31l6 2q45 -14 65 -43l-6 -61q-20 -39 -86 -64q-16 0 -49 -4t-49 -4l-14 -14h-263q-31 20 -71 14q-131 39 -131 109zM702 631q0 -37 31 -53h340l35 20l4 16q0 14 -16.5 33t-20.5 32t-37 66q-29 45 -28 72l2 6l-33 29l2 6l-61 57 l-15 3q-16 0 -59 -33q-33 -33 -55 -58q-10 -29 -19 -43l4 -10q-6 -8 -16 -10v-16q-12 0 -17.5 -18.5t-13.5 -18.5l6 -11q-10 -23 -18 -34l2 -2q-6 -8 -17 -13v-20z" />
<glyph unicode="&#x411;" horiz-adv-x="1705" d="M70 143q0 12 36 64l13 -2q29 0 80 67l-2 29q-2 31 10 94.5t8 96.5l14 8v614q-49 68 -55 74q-33 33 -88 45q-14 41 -14 74v6q27 20 45 51l26 8q33 -6 62 19l610 6q274 20 447 16l81 -2q92 -57 123 -158q18 -61 21 -194q-12 0 -12 -12q0 -2 2 -5q-25 -55 -123 -55 q-41 0 -195 133q-6 0 -23.5 7.5t-23.5 7.5q-43 0 -129 18t-133 29l-96 -2v-338l20 -25h57q51 8 117 14q131 -6 201 -14q98 -16 164 -33l65 -20q96 -10 217 -141l-6 -7q33 -47 41 -116q2 -8 6 -123q-16 -14 -16 -33q0 -8 2 -16q-23 -6 -43 -45l-2 -4q-10 -27 -27 -60v-18 q-70 -61 -161 -107q-106 -53 -185 -53h-1036l-66 22q-33 43 -32 80zM713 367q16 -12 16 -99l55 -53q127 6 148 12q14 6 104 78q8 27 17 37l-6 12q4 6 14 8v152l-14 14q-2 10 4 17q-31 27 -31 41q-33 37 -43 37h-12q-4 10 -30 16t-32 12h-129l-61 -53v-231z" />
<glyph unicode="&#x412;" horiz-adv-x="1705" d="M70 143q0 12 36 64l13 -2q29 0 80 67l-2 29q-2 31 10 94.5t8 96.5l14 8v614q-49 68 -55 74q-33 33 -88 45q-14 41 -14 74v6q27 20 45 51l26 8q33 -6 62 19h882q23 0 66 -13.5t66 -13.5q10 0 31.5 -8t31.5 -8q6 0 10 2q139 -59 183 -138q33 -59 32 -198q-16 -16 -16 -37 q0 -8 2 -16l-16 -9q-14 -43 -66 -86q-47 -33 -92 -65q16 -35 45 -49l14 2q96 0 217 -131l-6 -7q33 -47 41 -116q2 -8 6 -123q-16 -14 -16 -33q0 -8 2 -16q-23 -6 -43 -45l-2 -4q-10 -27 -27 -60v-18q-70 -61 -161 -107q-106 -53 -185 -53h-1036l-66 22q-33 43 -32 80z M713 367q16 -12 16 -99l55 -53q127 6 148 12q14 6 104 78q8 27 17 37l-6 12q4 6 14 8v152l-14 14q-2 10 4 17q-31 27 -31 41q-33 37 -43 37h-12q-4 10 -30 16t-32 12h-129l-61 -53v-231zM713 831q0 -45 88 -45q18 0 53 7.5t53 7.5l82 76q2 2 4 23.5t13 25.5l-7 149 q-14 12 -14 51q0 16 -24.5 37t-26.5 25q-4 -2 -10 -2q-8 0 -20.5 9t-18.5 9l-15 -2l-14 12q16 2 -27 3h-57q-59 0 -59 -31v-355z" />
<glyph unicode="&#x413;" horiz-adv-x="1574" d="M70 131q4 18 0 43q31 31 30 53q59 23 103 64v14l14 17l-4 81l14 9v594l-14 8v139l-41 45l-18 -4q-59 25 -80 119q2 29 71 65l17 -2l14 15q117 0 553 14q379 12 551 8l82 -2q92 -57 123 -158q18 -61 20 -194q-12 0 -12 -12q0 -2 2 -5q-25 -55 -123 -55q-41 0 -194 133 q-6 0 -23.5 7.5t-24.5 7.5q-43 0 -129 18t-129 18q-125 0 -124 -71q0 -10 2 -25l-15 -20v-428v-242l15 -20l-2 -29q27 -61 65 -82l18 4q68 -18 74 -16l47 -54q0 -92 -82 -129q-53 -25 -176 -36v-3l-348 -6q-63 -2 -151 33q-96 37 -125 84z" />
<glyph unicode="&#x414;" horiz-adv-x="2035" d="M14 4q-12 166 86 221q-6 -2 82 29l78 2q82 -8 111 98l16 47l10 50q16 14 17 34q0 8 -2 19l24 24q33 61 31 66l16 10l25 49l-2 11q14 18 18 43l17 10l10 49q16 14 16 35q0 8 -2 18l33 29q29 59 27 63l16 11l25 49l-2 10q14 18 18 43l16 10l11 49q16 14 16 35q0 8 -2 19 l16 8q-10 23 -58 49.5t-56 44.5l16 66l-6 4q80 55 160 71q51 10 563 4l252 -2q23 0 74 -13t75 -13q4 -18 19 -19q6 0 14 4q47 -41 61 -90q2 -27 -38 -55l2 -8l-9 2q-35 -20 -78.5 -46t-43.5 -63q0 -14 4 -30l-19 -39v-627q0 -6 19 -80q6 -20 8 -33l61 -26q41 0 78 -0.5 t74 -20.5q47 -31 76 -69q14 -20 18 -19q6 -51 25 -102l-5 -8q10 -166 -43 -256q-23 -41 -127 -88q-29 10 -67 6l-43 24q-10 6 -26.5 24.5t-30.5 24.5q-12 82 -60 242h-237q-31 2 -76 2h-918q-45 8 -55 -69q-16 -115 -23 -134q-25 -72 -86 -108q-31 -16 -89 -8t-74.5 37.5 t-26.5 42.5l-2 4q-18 113 -27 233zM567 246h607v82l16 8l4 674q4 168 -125 149q-80 -53 -80 -94l4 -10q-43 -55 -73 -107v-33q-39 -27 -41 -86q-14 -16 -40 -72.5t-48 -74.5q4 -31 -41 -86q2 -2 2 -6q0 -6 -10.5 -19.5t-10.5 -15.5l2 -14l-31 -39l7 -19l-31 -37q2 0 2 -4 q0 -6 -11.5 -17t-11.5 -13q0 -16 -12 -19l-14 -41l4 -2q0 -29 -31 -41z" />
<glyph unicode="&#x415;" horiz-adv-x="1691" d="M70 131q0 10 2 23q12 16 90 65q66 41 63 80q25 33 17 68l14 10v123l16 14v508q0 133 -98 190l-8 -2q-66 18 -84 93q10 31 51 73q92 23 201 23v-6l784 -2l10 8q39 -4 107 4q76 10 104 10q211 0 211 -285v-41q-16 -6 -16 -16q0 -2 2 -4q-23 -33 -47 -68q-14 -12 -105 -12 l-86 86q-53 53 -98 62q-6 16 -18 16q-6 0 -13 -4q-14 16 -36 16q-8 0 -19 -2v4l-272 6q-59 2 -68 -98l-14 -10v-186q0 -20 55 -50h80q20 0 74 35q-8 23 30 72l-2 18q-4 37 30 61.5t73 24.5q55 0 80 -45q12 -23 41 -82l-2 -26l18 -27q0 -434 -154 -434q-59 0 -82 55 q-6 33 -23 94.5t-60 61.5q-72 0 -127 -19q4 -6 4 -10q0 -12 -21 -16v-262q51 -74 98 -74h230q14 0 59 14.5t56 22.5l12 -2l80 43q35 59 86 110q66 66 116 66q29 0 65 -27.5t46 -54.5v-70q0 -14 -10 -49t-6 -55q-16 0 -17 -16q0 -4 4 -9l-22 -41l4 -12q-31 -43 -82 -133 q-43 -29 -88 -43q-78 31 -188 31q-35 0 -72 -2l-17 14l-548 -6q-459 -6 -484.5 27.5t-25.5 68.5z" />
<glyph unicode="&#x416;" horiz-adv-x="2727" d="M70 141q0 8 2 17q27 25 61 65l156 21q145 127 348 366l-6 4l49 52q-57 86 -207 254q-158 176 -225 225l-15 -2l-45 18l-14 -2q-18 10 -49 41t-31 47q0 66 82 94q41 14 139 37h15l47 -2l10 15h393l49 -17h11l45 2l10 -12q49 -14 70 -104q-2 -27 -31 -58q-20 -29 -12 -53 l59 -72q35 -35 98 -65l-2 65q-16 37 -24 62q-12 59 -35 116q-18 31 -17 70q-10 23 15 39l24 -4l33 16l55 -2q6 0 23.5 8.5t26.5 8.5h301q18 0 104 -21l86 -20q18 -10 46 -39t28 -45l-2 -43q-27 -10 -31 -41q-31 -20 -98 -54v-47l-17 -6v-63q180 -12 363 151l16 8l-10 25 q-49 25 -94 68l-4 22q0 49 108 90q18 -4 48 5.5t40 9.5h291q29 -16 62 -17q12 0 24 2q2 -8 10 -12q10 -4 17 0q74 -23 74 -66q0 -76 -33 -102q-135 -23 -252 -82q-147 -76 -178 -180q-41 -31 -54 -43q-25 -25 -32 -55q80 -96 288 -344q229 -268 306 -261q37 -14 67 -43 q6 -31 6 -69q0 -39 -84 -66q-100 -33 -108 -39q-20 0 -59.5 -6t-59.5 -6h-383q-25 0 -76 13.5t-76 13.5q-25 25 -71 41q-14 25 -23 57q6 12 56 66q43 49 43 57l-5 22q-29 66 -73 131q-54 84 -160 211l2 -276q16 -12 16 -33q0 -8 -2 -16l66 -86l4 -74l-33 -55l-12 -19 q-55 -18 -131 -22q-143 -18 -229 -19h-89l-10 15q-76 -6 -162 24q-104 37 -104 105q0 14 2 24l16 8q8 29 52 56q53 33 61 43q-4 6 6 20.5t27 30.5l4 94l14 15v188l-329 -279q-51 -63 -80 -118q43 -31 110 -109q-2 -59 -88 -92l-12 2q-72 -20 -109 -16v-5l-295 -6 q-41 20 -90 15q-2 6 -82 39q-33 41 -32 73z" />
<glyph unicode="&#x417;" horiz-adv-x="1423" d="M70 182q2 92 73 142h84q31 -20 70 -15q37 -14 86 -12v-2q94 -6 106 -6q68 0 144 33q92 41 92 96q0 61 -12 84q-6 14 -58 73l-8 -4l-37 17v4h-151q-160 4 -154 135l2 43q145 61 250 139l-4 9q0 4 11 13t11 13q0 6 -4 8l17 27q0 137 -164 137q-8 0 -55 -12t-54 -17 q-35 -23 -67 -22q-94 0 -94 149q25 23 59 62q4 -2 78 29.5t86 40.5l10 -3q57 20 80 21q10 0 35.5 10t38.5 10h229v-6q102 0 195 -28l10 -15q137 -39 184 -123q18 -31 29 -36l10 -33q0 -63 -14 -109q4 -2 4 -8t-7 -20.5t-7 -20.5l-15 -6q-23 -27 -76 -80h-14l-51 -47 q33 -23 72 -37l12 4q43 -16 127 -37q111 -113 110 -157q0 -8 -2 -15q16 -41 17 -69q0 -63 -11 -97q-3 -14 -36 -90l6 -18q-41 -41 -101 -125h-20q-53 -51 -236 -135h-12q-39 0 -106 -19q-74 -18 -107 -20v-2l-254 -4q-33 6 -100 12q-29 18 -70 12l-10 13q-49 4 -74 14 l-55 22l-6 7q-6 6 -8 6q-25 14 -52 20z" />
<glyph unicode="&#x418;" d="M70 174q80 57 112.5 109.5t32.5 142.5q0 37 -6 115l16 10v502q-18 18 -18 39q0 6 2 12q-37 29 -74 55q-45 35 -65 66v59q37 27 114 74q12 -2 23 -2q33 0 57 16l264 -2q51 2 108.5 -35t57.5 -92q0 -10 -51 -57q-59 -55 -65 -64l4 -4q-33 -84 -33 -112q0 -18 2 -39l-14 -11 l-2 -360q0 -57 40 -49q47 -8 87 41q123 236 148.5 256t27.5 53q70 82 125 186l-2 11l12 12q2 12 20 31q18 59 90 141q82 94 138 94h335q57 0 115 -37t58 -92q0 -10 -52 -57q-59 -55 -65 -64l4 -4q-33 -84 -33 -112q0 -18 2 -39l-14 -11v-467q0 -33 12 -98l19 -98 q43 -31 88 -62q37 -37 36 -96v-8q-53 -47 -106 -61q-31 -8 -129 -19v-2l-342 -6l-47 16q-2 -2 -8 -2l-45 -2l-11 15q-45 4 -77 28q-39 27 -39 68q0 27 70.5 90t70.5 115v235l-25 35h-22q-43 0 -88 -72l-45 -71l-11 -50q-29 -16 -28 -51l-17 -8l-14 -39l6 -6q-18 -31 -47 -66 q-51 -143 -141 -198q-25 -8 -56 -10q-53 -6 -110 -21l-236 -6q-37 16 -104 27q-55 31 -55 108z" />
<glyph unicode="&#x419;" d="M70 174q80 57 112.5 109.5t32.5 142.5q0 37 -6 115l16 10v502q-18 18 -18 39q0 6 2 12q-37 29 -74 55q-45 35 -65 66v59q37 27 114 74q12 -2 23 -2q33 0 57 16l264 -2q51 2 108.5 -35t57.5 -92q0 -10 -51 -57q-59 -55 -65 -64l4 -4q-33 -84 -33 -112q0 -18 2 -39l-14 -11 l-2 -360q0 -57 40 -49q47 -8 87 41q123 236 148.5 256t27.5 53q70 82 125 186l-2 11l12 12q2 12 20 31q18 59 90 141q82 94 138 94h335q57 0 115 -37t58 -92q0 -10 -52 -57q-59 -55 -65 -64l4 -4q-33 -84 -33 -112q0 -18 2 -39l-14 -11v-467q0 -33 12 -98l19 -98 q43 -31 88 -62q37 -37 36 -96v-8q-53 -47 -106 -61q-31 -8 -129 -19v-2l-342 -6l-47 16q-2 -2 -8 -2l-45 -2l-11 15q-45 4 -77 28q-39 27 -39 68q0 27 70.5 90t70.5 115v235l-25 35h-22q-43 0 -88 -72l-45 -71l-11 -50q-29 -16 -28 -51l-17 -8l-14 -39l6 -6q-18 -31 -47 -66 q-51 -143 -141 -198q-25 -8 -56 -10q-53 -6 -110 -21l-236 -6q-37 16 -104 27q-55 31 -55 108zM618 1544q-4 29 9 41v10q-2 16 28 86h7l18 19h10q8 2 15.5 12t15.5 12h10l4 15l88 8q8 0 49 -16q31 -16 46 -13l126 -116l52 8q25 4 32 20h15q10 0 25.5 18.5t22.5 20.5 t20.5 19.5t21.5 17.5q2 8 15.5 15.5t15.5 15.5l28 10l25 -8l2 -8l16 -23l4 -16q4 -39 -30 -84q-43 -47 -43 -62h-11q-6 0 -15 -19.5t-19 -19.5h-9q0 -10 -18 -17t-16 -17l-7 4q-2 -10 -18 -18.5t-16 -16.5h-11q-8 0 -20 -11.5t-21 -13.5l-6 -14l-45 -6q-4 -16 -33.5 -22.5 t-35.5 -18.5l-84 -13q-18 -2 -39 -2v7l-49 4q-10 10 -33 4q-4 6 -53 28q-27 16 -43 52q-16 4 -21 37l-14 20q-2 -6 -11 51z" />
<glyph unicode="&#x41a;" horiz-adv-x="1984" d="M70 123q12 43 47 82q4 2 73 65q-2 4 17 52l-6 16l18 57l-2 62l14 8v522q0 -18 -30 100l6 17q-14 25 -67.5 61.5t-67.5 61.5l4 49q72 57 80 63q41 25 98 25q14 0 49 13.5t49 13.5h285q55 -29 149 -27q25 -27 72 -55q18 -43 16 -86q-41 -29 -118 -105l6 -4l-33 -49 q2 -16 0 -47t-2 -47q0 -29 57 -74q33 18 41 18q4 0 9 -4q45 45 106 119q78 94 78 123q0 18 -18.5 57t-18.5 58q0 55 96 88q74 25 150 24v4l321 7q12 0 47 -13.5t54 -13.5q37 0 64.5 -32t27.5 -68l-2 -19l-15 -8l-16 -41q-41 -18 -78 -22h-80q-125 10 -235 -95 q-125 -98 -125 -213q111 -156 176 -198v-15l100 -84v-14q203 -160 435 -356v-23l14 -12q-6 -47 -12 -72q-8 -35 -33 -63q-98 -14 -258 -15h-338q-27 23 -74 54v14q-43 27 -127 131q-100 127 -141 168q-86 86 -152 84q-27 -53 -26 -98q0 -47 70.5 -132t68.5 -104l-2 -27 q-37 -29 -135 -90q-18 2 -54 -6t-51 -8h-329q-41 20 -91 14q-74 29 -86 27q-29 16 -75 82z" />
<glyph unicode="&#x41b;" horiz-adv-x="2045" d="M0 276l16 35q-6 4 -6 8t9.5 17.5t9.5 15.5q0 4 -2 6q27 20 49 52q70 37 114 36q88 0 140 -59q37 -43 67 -141l52 -21q37 14 81 109l371 710l23 43l-4 11l14 24q-8 29 -43 73t-45 65l14 45q49 35 78 43q4 2 90 12v6l164 2l539 23q23 0 73.5 -13.5t75.5 -13.5q4 -18 18 -18 q6 0 15 4q47 -41 61 -90q2 -27 -39 -56l2 -8l-8 2q-35 -20 -79 -46t-44 -62q0 -14 4 -31l-18 -39v-627q0 -6 18 -80q6 -20 9 -32q39 -29 77 -58q45 -41 46 -78l-5 -30q-12 -4 -12 -15q0 -2 2 -4q-72 -84 -399 -84q14 0 -17 2h-75h-64q-16 0 -56 12.5t-61 12.5 q-29 0 -69.5 25.5t-61.5 52.5v65q27 20 62 62q39 10 65 30l2 70l17 8v670q-27 41 -84 2q4 0 -4 -10t-13 -19q-20 -25 -8 -12q-23 -31 -20 -53l-25 -25l-16 -6l-2 -31q-8 0 -13 -8q-4 -8 2 -14l-24 -33l4 -12l-18 -39q-16 0 -19 -14q0 -4 4 -9l-18 -45l4 -14l-23 -39l-14 -6 v-31q-8 2 -12 -6q-4 -10 0 -14l-27 -35l2 -12l-16 -9v-30q-12 -2 -12 -11q0 -4 2 -6q-18 -20 -54 -92l2 -8q-33 -61 -116 -164v-16q-193 -186 -326 -187h-158q-20 16 -43 17q-8 0 -16 -2q-88 25 -146 90q-63 72 -63 157z" />
<glyph unicode="&#x41c;" horiz-adv-x="2078" d="M70 174q80 57 112.5 109.5t32.5 142.5q0 37 -6 115l16 10v502q-18 18 -18 39q0 6 2 12q-37 29 -74 55q-45 35 -65 66v59q37 27 114 74q12 -2 23 -2q33 0 57 16h258l70 -14q0 -8 10 -10q4 -4 8 -5q4 2 6 5q49 -27 91 -80l-5 -4q8 -12 148 -226q84 -129 164 -217l14 -2 q33 0 60.5 22.5t29.5 55.5q70 82 125 186l-2 11l12 12q2 12 21 31q18 59 90 141q82 94 137 94h336q57 0 114.5 -37t57.5 -92q0 -10 -51 -57q-59 -55 -66 -64l4 -4q-33 -84 -32 -112q0 -18 2 -39l-15 -11v-467q0 -33 13 -98l18 -98q43 -31 88 -62q37 -37 37 -96v-8 q-53 -47 -106 -61q-31 -8 -129 -19v-2l-342 -6l-48 16q-2 -2 -8 -2l-45 -2l-10 15q-45 4 -78 28q-39 27 -39 68q0 27 70.5 90t70.5 115v235l-24 35h-23q-43 0 -88 -72l-45 -71l-10 -50q-29 -16 -29 -51l-16 -8l-14 -39l6 -6q-18 -31 -47 -66q-51 -143 -142 -198 q-37 12 -73 41q-18 63 -152.5 295.5t-169.5 246.5q-35 -43 -35 -65v-301q0 -23 60 -68l82 -63v-47q-29 -20 -48 -49q-53 -6 -110 -21l-236 -6q-37 16 -104 27q-55 31 -55 108z" />
<glyph unicode="&#x41d;" horiz-adv-x="1929" d="M70 158l2 24q33 23 57 62l14 -2q49 0 68 69q12 49 6 109l14 10v580q0 23 -10 61q-12 47 -14 62q-43 43 -119 75l-16 45q0 29 30 60v12q23 8 146 51q23 -4 51.5 5.5t36.5 9.5h326q27 0 75.5 -13.5t75.5 -13.5l59 -31l-2 -10q31 -39 31 -86l-24 -37q-27 -12 -69 -53 t-52 -45v-209q39 -49 131 -49q125 0 145 2q82 8 123 51v178q0 29 -145 162v47q27 25 61 66l12 -4l50 18q49 10 120 16v4l363 7q23 0 74 -13.5t75 -13.5q4 -18 19 -18q6 0 14 4q47 -41 62 -90q2 -27 -39 -56l2 -8l-8 2q-35 -20 -79 -46t-44 -62q0 -14 4 -31l-19 -39v-627 q0 -6 19 -80q6 -20 8 -32l78 -58q45 -41 45 -78l-4 -30q-12 -4 -13 -15q0 -2 2 -4q-72 -84 -399 -84q14 0 -16 2h-76h-64q-16 0 -56 12.5t-60 12.5q-29 0 -70 25.5t-61 52.5v65q27 20 61 62q39 10 66 30l2 70l16 8v207l-20 31l-37 14l-11 14h-233q-10 0 -115 -45v-206 q0 -55 66 -113q84 -74 98 -98q-61 -143 -387 -144q-39 0 -72.5 1t-25.5 1h-86q-18 0 -203 49q-61 68 -59 95z" />
<glyph unicode="&#x41e;" d="M70 637v172q0 16 12 53t12 56l15 38l16 11q186 328 422 379q16 14 129 43l16 -5q18 0 52 10.5t53 10.5h225q14 0 46 -10.5t48 -10.5q10 0 21 5l53 -21l14 4l45 -14l11 -12q27 -8 82 -39t88 -37q154 -131 256 -309l-5 -17q27 -43 35 -131h4l6 -106q4 -78 -30 -205l-15 -8 l5 -21l-29 -37l2 -8q0 -39 -33 -43q-113 -219 -432 -315l-10 2q-55 -10 -127 -33q-39 -12 -49 -12h-205q-4 0 -146 24q0 12 -26 12q-96 0 -269 138q-102 82 -198 184l-74 170l4 14q0 10 -12 36t-12 32zM602 821q14 -10 14 -28q0 -25 15.5 -73t15.5 -73q16 -12 15 -31v-6 l24 -47l-4 -4q23 -27 45 -92l25 -18q2 -8 16 -25.5t14 -30.5l101 -84h18l6 -12q20 -2 31 -14q25 -4 47 -4q88 0 178 94v12l17 8q-2 31 14 51v179q-27 57 -31 90q2 6 2 14q0 10 -10 29.5t-10 29.5l4 15q-16 16 -64 121q-43 96 -71 112q-4 18 -31 43q-20 18 -41 37 q-43 16 -57 31l-19 -4q-16 14 -39 14q-80 0 -104 -14l-82 -62v-16l-14 -10v-15l-11 -6q2 -8 2 -16q0 -18 -16 -25v-170z" />
<glyph unicode="&#x41f;" horiz-adv-x="1929" d="M70 158l2 24q33 23 57 62l14 -2q49 0 68 69q12 49 6 109l14 10v580q0 23 -10 61q-12 47 -14 62q-43 43 -119 75l-16 45q0 29 30 60v12q23 8 146 51q23 -4 51.5 5.5t36.5 9.5l917 -7l363 7q23 0 74 -13.5t75 -13.5q4 -18 19 -18q6 0 14 4q47 -41 62 -90q2 -27 -39 -56 l2 -8l-8 2q-35 -20 -79 -46t-44 -62q0 -14 4 -31l-19 -39v-627q0 -6 19 -80q6 -20 8 -32l78 -58q45 -41 45 -78l-4 -30q-12 -4 -13 -15q0 -2 2 -4q-72 -84 -399 -84q14 0 -16 2h-76h-64q-16 0 -56 12.5t-60 12.5q-29 0 -70 25.5t-61 52.5v65q27 20 61 62q39 10 66 30l2 70 l16 8v740l-20 30l-37 15l-11 14h-233q-10 0 -115 -45v-739q0 -55 66 -113q84 -74 98 -98q-61 -143 -387 -144q-39 0 -72.5 1t-25.5 1h-86q-18 0 -203 49q-61 68 -59 95z" />
<glyph unicode="&#x420;" horiz-adv-x="1597" d="M70 1266q0 98 219 98q27 0 79 -10.5t78 -10.5q43 0 144 9q92 8 143 6l12 14h306q47 -27 110 -26q12 0 19 4q66 -20 71 -17q20 -20 56 -22l10 -15q61 -14 108 -69q12 -14 72 -101l25 -82l6 -6v-155q0 -14 -14.5 -48t-10.5 -53l-16 -8q-8 -29 -31 -67q-31 -14 -39 -48 q-193 -111 -291 -131q-70 -14 -327 -14l-11 -8v-152q16 -10 17 -24q0 -10 -6 -21l92 -65q49 -43 49 -86q0 -8 -11 -30l-14 -28l-8 2q-37 -27 -104 -36q-102 -14 -109 -19l-6 -2l-311 -6q-6 10 -51 16q-51 6 -58 11l-18 -3q-61 0 -100 44.5t-39 105.5q61 41 71 47 q43 33 56 64l14 8v135l16 14v598q-98 121 -147 121q-6 0 -10 -2q-41 47 -41 68zM739 764q27 -35 37 -45q20 -16 58 -17q82 0 176 93v14q12 4 17 30.5t13 30.5q-4 121 -14 158q-20 74 -96 133h-31l-14 15h-31q-76 0 -100 -39q2 -14 -9 -23z" />
<glyph unicode="&#x421;" horiz-adv-x="1689" d="M70 737q0 23 30 140l-4 10l19 47l-4 14q12 23 30 35q-4 8 45 80l-4 4q47 49 119 145q51 18 113 88q57 16 204 91l15 -2q27 0 78 18t77 18h185q25 0 69.5 -13t69.5 -13q53 -33 109 -33l213 -2q63 -66 176 -207l-6 -43l16 -14v-125q0 -41 -58.5 -96.5t-101.5 -55.5 q-94 0 -45 -2l-37 15l-14 -5q-29 18 -64 31q-92 121 -135 158q-74 66 -192 100l-10 15q-182 -12 -246 -60q-84 -61 -84 -231q0 -70 33 -133l-2 -4q20 -80 84 -144v-12q186 -174 376 -174q102 0 205 65q123 80 174 93q41 -20 92 -84v-31l15 -21q-31 -68 -31 -94q0 -10 2 -12 q-90 -115 -260 -197q-176 -82 -317 -69l-17 -13h-215q-23 14 -49 15q-10 0 -23 -2q-23 12 -143 36l-10 13q-92 35 -256 172q-182 154 -182 229q0 12 6 23q-45 66 -45 237z" />
<glyph unicode="&#x422;" horiz-adv-x="1708" d="M70 1051v4q41 106 94 215q72 150 184 149q-6 0 86 -16l10 -12h813q10 0 39 13t39 13q70 0 115 -20q23 -10 25 -6q31 -41 71 -78v-8q92 -139 92 -244q1 -47 -65 -139q-31 -6 -62 -29h-51q-10 0 -33.5 8t-40.5 6q-51 63 -159 176q0 16 -19.5 29.5t-38.5 13.5 q-10 0 -31.5 -14t-25.5 -25v-419l-16 -13v-258q0 -39 33.5 -86t70.5 -53q2 -16 19 -16q6 0 12 2q16 -12 38.5 -43t22.5 -47q0 -104 -280 -131q-18 -2 -361 -9q-53 29 -149 27q-6 6 -63.5 32.5t-82.5 57.5q-4 47 47 100q162 63 162 146q0 16 -6 35l14 18v139l17 9v473 q0 18 -31 43.5t-51 31.5q-47 -16 -94 -77q-72 -92 -86 -105q-57 -51 -129 -51q-35 0 -81 37t-46 70.5t-2 50.5z" />
<glyph unicode="&#x423;" horiz-adv-x="1751" d="M70 322q0 164 75 225q66 55 234 63l10 -14q88 -14 113 -45q43 -55 53 -64q-6 -25 -6 -153q8 -106 106 -72q99 60 58 152q-25 70 -74 129l-432 571q-43 27 -137 80v63q0 47 108 82q37 12 160 35l6 10h289q29 0 88 -17t84 -19q12 -25 45 -29v-6l33 -33l-6 -90 q-33 -33 -82 -60l-4 -20q125 -207 184 -315q37 61 49 75v25l25 35q-4 4 -5 8q0 10 19 12v29q10 0 10 22q0 2 10.5 13.5t10.5 15.5l22 43q6 49 4 60l17 8q-10 23 -58.5 49.5t-56.5 44.5l16 65l-6 5q80 55 160 71l20 13l218 2q68 0 149 -31q102 -39 100 -90l-2 -47l-30 -27 l6 -6q-33 -27 -41 -33q-27 -16 -49 -20l2 -9q0 -39 -41 -43l-33 -41l2 -12l-16 -10l2 -18l-35 -43v-11l-27 -41l2 -12l-14 -6l-4 -29q-8 0 -12 -6q-6 -10 -3 -16l-26 -33l2 -12l-14 -7l-5 -28q-8 2 -14 -8q-4 -8 4 -11l-26 -32l2 -11q-43 -51 -37 -71q-8 0 -17 -9 q-4 -8 2 -12l-26 -33v-14l-14 -6l-5 -29q-8 2 -12 -6q-6 -10 2 -16l-31 -27l9 -14q-18 -20 -50 -74q-33 -61 -28 -76q-20 -10 -23 -30q-2 -8 0 -17l-14 -8q-43 -47 -90 -90q-66 -74 -135 -117q-53 -39 -150 -49q-76 -6 -139 0q-43 27 -100 27q-8 0 -15 -2l-51 18l-10 -2 l-74 22l-10 15l-6 -2q-215 145 -215 246z" />
<glyph unicode="&#x424;" horiz-adv-x="2007" d="M0 883v155l6 6l25 82q59 86 71 101q47 55 109 69l10 15q35 2 55 22q6 -4 72 17q6 -4 19 -4q63 0 110 26h305q12 -8 64.5 -18.5t79.5 -10.5q43 0 143 9q92 8 143 6l13 14h305q47 -27 110 -26q12 0 19 4q66 -20 72 -17q20 -20 55 -22l10 -15q61 -14 109 -69q12 -14 71 -101 l25 -82l6 -6v-155q0 -14 -14.5 -48t-10.5 -53l-16 -8q-8 -29 -31 -67q-31 -14 -39 -48q-193 -111 -290 -131q-70 -14 -328 -14l-10 -8v-152q16 -10 16 -24q0 -10 -6 -21l92 -65q49 -43 49 -86q0 -8 -11 -30t-13 -28l-9 2q-37 -27 -104 -36q-102 -14 -108 -19l-7 -2l-311 -6 q-6 10 -51 16q-51 6 -57 11l-19 -3q-61 0 -100 44.5t-39 105.5q61 41 72 47q43 33 55 64l14 8v135l17 14v23l-19 10q-258 0 -328 14q-98 20 -290 131q-8 33 -39 48q-23 39 -31 67l-16 8q4 18 -10.5 52t-14.5 49zM487 870q8 -4 13.5 -30.5t17.5 -30.5v-14q94 -92 176 -93 q37 0 58 17q10 10 30 45v344q-10 14 -8 29q-25 39 -100 39h-31l-14 -15h-31q-76 -59 -96 -133q-10 -37 -15 -158zM1219 764q27 -35 36 -45q20 -16 58 -17q82 0 176 93v14q12 4 17 30.5t14 30.5q-4 121 -15 158q-20 74 -96 133h-31l-14 15h-31q-76 0 -100 -39q2 -14 -14 -37 v-336z" />
<glyph unicode="&#x425;" horiz-adv-x="1923" d="M70 141q0 8 2 17q27 25 61 65l156 21q145 127 348 366l-6 4l49 52q-57 86 -207 254q-158 176 -225 225l-15 -2l-45 18l-14 -2q-18 10 -49 41t-31 47q0 66 82 94q41 14 139 37h15l47 -2l10 15h393l49 -17h11l45 2l10 -12q104 -14 104 -113q0 -18 -32 -51q-41 -41 -45 -51 l59 -72q35 -35 74 -53q72 80 98 139l16 8l-10 25q-49 25 -94 68l-4 22q0 49 108 90q18 -4 48 5.5t40 9.5h291q29 -16 62 -17q12 0 24 2q2 -8 11 -12q10 -4 16 0q74 -23 74 -66q0 -76 -33 -102q-135 -23 -252 -82q-131 -92 -178 -180q-41 -31 -53 -43q-25 -25 -33 -55 q80 -96 289 -344q229 -268 305 -261q37 -14 67 -43q6 -30 6 -69t-84 -66q-100 -33 -108 -39q-20 0 -59 -6t-60 -6h-383q-25 0 -76 13.5t-75 13.5q-25 25 -72 41q-14 25 -23 57q6 12 56 66q43 49 43 57l-4 22q-29 25 -82 101q-47 70 -88 98l-90 -113q-51 -63 -80 -118 q43 -31 110 -109q-2 -59 -88 -92l-12 2q-72 -20 -109 -16v-5l-295 -6q-41 20 -90 15q-2 6 -82 39q-33 41 -32 73z" />
<glyph unicode="&#x426;" horiz-adv-x="2048" d="M70 158l2 24q33 23 57 62l14 -2q49 0 68 69q12 49 6 109l14 10v580q0 23 -10 61q-12 47 -14 62q-43 43 -119 75l-16 45q0 29 30 60v12q23 8 146 51q23 -4 51.5 5.5t36.5 9.5h326q27 0 75.5 -13.5t75.5 -13.5l59 -31l-2 -10q31 -39 31 -86l-24 -37q-27 -12 -82.5 -62.5 t-55.5 -93.5v-677q10 -133 127 -125q125 0 146 2q131 10 127 100l16 8v723q0 29 -145 162v47q27 25 61 66l12 -4l50 18q49 10 120 16v4l363 7q23 0 74 -13.5t75 -13.5q4 -18 19 -18q6 0 14 4q47 -41 62 -90q2 -27 -39 -56l2 -8l-8 2q-35 -20 -79 -46t-44 -62q0 -14 4 -31 l-19 -39v-631q2 -37 21 -84q6 -20 8 -33l61 -26h78t74 -21q47 -31 76 -69q14 -20 18 -19q6 -51 25 -102l-4 -8q10 -166 -43 -256q-23 -41 -127 -88q-29 10 -68 6l-43 24q-10 6 -26.5 24.5t-30.5 24.5q-12 82 -60 242q-78 12 -239 10h-76l-805 -2q-39 0 -72.5 1t-25.5 1h-86 q-18 0 -203 49q-61 68 -59 95z" />
<glyph unicode="&#x427;" horiz-adv-x="2086" d="M70 1229q0 43 28 65l58 45l14 -4q45 10 131 41q18 -2 51 6.5t47 8.5h306q12 0 90.5 -21.5t95.5 -30.5q35 -45 35 -71q0 -47 -41 -78q-39 -23 -80 -45q-41 -39 -41 -123q0 -20 2 -47l-14 -8l14 -27l-4 -29q20 -43 67 -131q100 -49 142 -57q31 -6 153 -6q59 0 121 41 q51 35 90 100v217q-20 35 -26 43q-16 23 -37 31q-14 20 -41 22q-18 27 -57 78v35q37 31 118 80l25 -4l33 16l55 -2q6 0 23.5 8.5t25.5 8.5h301q18 0 105 -21l86 -20q18 -10 45.5 -39t27.5 -45l-2 -43q-27 -10 -30 -41q-31 -20 -99 -54v-47l-16 -6v-155l-14 -9v-573 q16 -12 16 -33q0 -8 -2 -16l131 -107l-2 -53l-29 -39l4 -8q-45 -29 -211 -49q-143 -18 -229 -19h-88l-10 15q-76 -6 -162 24q-104 37 -105 105q0 14 3 24l16 8q8 29 51 56q53 33 62 43q-4 6 6 20.5t10 16.5v94l16 10l2 53q-49 -31 -114 -59l-31 2q-20 2 -72.5 -13.5 t-72.5 -15.5h-254q-20 0 -58.5 11.5t-58.5 11.5q-4 0 -72 20l-18 -4q-45 27 -146 64q-16 27 -55 37q-31 37 -79 127t-83 129v69l6 185q0 33 -79.5 91t-79.5 91z" />
<glyph unicode="&#x428;" horiz-adv-x="2889" d="M70 158l2 24q33 23 57 62l14 -2q49 0 68 69q12 49 6 109l14 10v580q0 23 -10 61q-12 47 -14 62q-43 43 -119 75l-16 45q0 29 30 60v12q23 8 146 51q23 -4 51.5 5.5t36.5 9.5h326q27 0 75.5 -13.5t75.5 -13.5l59 -31l-2 -10q31 -39 31 -86l-24 -37q-27 -12 -69 -53 t-52 -45l4 -768q14 -94 127 -94q125 0 145 2q113 8 107 102l16 8v723q0 29 -145 162v47q27 25 61 66l12 -4l50 18q49 10 120 16v4l363 7q23 0 74 -13.5t75 -13.5q4 -18 19 -18q6 0 14 4q47 -41 62 -90q2 -27 -39 -56l2 -8l-8 2q-35 -20 -79 -46t-44 -62q0 -14 4 -31l-19 -39 v-627q6 -170 150 -155q125 0 145 2q135 6 125 104l17 8v723q0 29 -146 162v47q27 25 62 66l12 -4l49 18q49 10 121 16v4l362 7q23 0 74 -13.5t76 -13.5q4 -18 18 -18q6 0 15 4q47 -41 61 -90q2 -27 -39 -56l2 -8l-8 2q-35 -20 -79 -46t-44 -62q0 -14 4 -31l-18 -39v-627 q0 -6 18 -80q6 -20 8 -32l78 -58q45 -41 45 -78l-4 -30q-12 -4 -12 -15q0 -2 2 -4q-72 -84 -399 -84q14 0 -17 2h-76h-63q-16 0 -57 6.5t-318 -6.5q-100 -2 -428 -2q14 0 -16 2h-76l-805 -2q-39 0 -72.5 1t-25.5 1h-86q-18 0 -203 49q-61 68 -59 95z" />
<glyph unicode="&#x429;" horiz-adv-x="3000" d="M70 158l2 24q33 23 57 62l14 -2q49 0 68 69q12 49 6 109l14 10v580q0 23 -10 61q-12 47 -14 62q-43 43 -119 75l-16 45q0 29 30 60v12q23 8 146 51q23 -4 51.5 5.5t36.5 9.5h326q27 0 75.5 -13.5t75.5 -13.5l59 -31l-2 -10q31 -39 31 -86l-24 -37q-27 -12 -69 -53 t-52 -45l4 -768q14 -94 127 -94q125 0 145 2q113 8 107 102l16 8v723q0 29 -145 162v47q27 25 61 66l12 -4l50 18q49 10 120 16v4l363 7q23 0 74 -13.5t75 -13.5q4 -18 19 -18q6 0 14 4q47 -41 62 -90q2 -27 -39 -56l2 -8l-8 2q-35 -20 -79 -46t-44 -62q0 -14 4 -31l-19 -39 v-627q6 -170 150 -155q125 0 145 2q135 6 125 104l17 8v723q0 29 -146 162v47q27 25 62 66l12 -4l49 18q49 10 121 16v4l362 7q23 0 74 -13.5t76 -13.5q4 -18 18 -18q6 0 15 4q47 -41 61 -90q2 -27 -39 -56l2 -8l-8 2q-35 -20 -79 -46t-44 -62q0 -14 4 -31l-18 -39v-627 q2 -41 20 -88q6 -20 8 -33l62 -26h78t73 -21q47 -31 76 -69q14 -20 19 -19q6 -51 24 -102l-4 -8q10 -166 -43 -256q-23 -41 -127 -88q-29 10 -67 6l-43 24q-10 6 -26.5 24.5t-31.5 24.5q-12 82 -59 242q-186 12 -240 10h-76h-63q-16 0 -57 6.5t-318 -6.5q-100 -2 -428 -2 q14 0 -16 2h-76l-805 -2q-39 0 -72.5 1t-25.5 1h-86q-18 0 -203 49q-61 68 -59 95z" />
<glyph unicode="&#x42a;" horiz-adv-x="2031" d="M70 1051v4q41 106 94 215q72 150 184 149q-6 0 86 -16l10 -12l514 10q51 4 93 0l86 -21q18 -10 45.5 -38.5t27.5 -45.5l-2 -43q-27 -10 -30 -41q-31 -20 -99 -53v-317l21 -25h57q51 8 117 14q131 -6 201 -14q98 -16 163 -33l66 -20q96 -10 217 -141l-6 -7q33 -47 41 -116 q2 -8 6 -123q-16 -14 -16 -33q0 -8 2 -16q-23 -6 -43 -45l-2 -4q-10 -27 -27 -60v-18q-70 -61 -162 -107q-106 -53 -184 -53h-1036l-66 22q-33 43 -33 80q0 12 37 64l12 -2q29 0 80 67l-2 29q-2 31 10.5 94.5t8.5 96.5l14 8l2 512q2 121 -49 114q-47 -16 -94 -77 q-72 -92 -86 -105q-57 -51 -129 -51q-35 0 -81 37t-46 70.5t-2 50.5zM1038 367q16 -12 17 -99l55 -53q127 6 147 12q14 6 105 78q8 27 16 37l-6 12q4 6 14 8v152l-14 14q-2 10 4 17q-31 27 -30 41q-33 37 -43 37h-13q-4 10 -29.5 16t-31.5 12h-129l-62 -53v-231z" />
<glyph unicode="&#x42b;" horiz-adv-x="2523" d="M70 143q0 12 36 64l13 -2q29 0 80 67l-2 29q-2 31 10 94.5t8 96.5l14 8v614q-49 68 -55 74q-33 33 -88 45q-14 41 -14 74v6q27 20 45 51l26 8q33 -6 62 19l428 10q51 4 92 0l86 -21q18 -10 46 -38.5t28 -45.5l-2 -43q-27 -10 -31 -41q-30 -20 -98 -53v-317l20 -25h57 q51 8 117 14q131 -6 201 -14q98 -16 164 -33l65 -20q96 -10 217 -141l-6 -7q33 -47 41 -116q2 -8 6 -123q-16 -14 -16 -33q0 -8 2 -16q-23 -6 -43 -45l-2 -4q-10 -27 -27 -60v-18q-70 -61 -161 -107q-106 -53 -185 -53h-1036l-66 22q-33 43 -32 80zM713 367q16 -12 16 -99 l55 -53q127 6 148 12q14 6 104 78q8 27 17 37l-6 12q4 6 14 8v152l-14 14q-2 10 4 17q-31 27 -31 41q-33 37 -43 37h-12q-4 10 -30 16t-32 12h-129l-61 -53v-231zM1606 158q0 14 2 24l16 8q8 29 51 56q53 33 62 43q-4 6 6 20.5t10 16.5v94l16 10v645q-20 35 -26 43 q-16 23 -37 31q-14 20 -41 22q-18 27 -57 78v35q37 31 118 80l25 -4l33 16l55 -2q6 0 23.5 8.5t25.5 8.5h301q18 0 105 -21l86 -20q18 -10 46 -39t28 -45l-3 -43q-27 -10 -30 -41q-31 -20 -99 -54v-47l-16 -6v-155l-14 -9v-573q16 -12 16 -33q0 -8 -2 -16l131 -107l-2 -53 l-29 -39l4 -8q-45 -29 -210 -49q-143 -18 -230 -19h-88l-10 15q-76 -6 -162 24q-104 37 -104 105z" />
<glyph unicode="&#x42c;" horiz-adv-x="1705" d="M70 143q0 12 36 64l13 -2q29 0 80 67l-2 29q-2 31 10 94.5t8 96.5l14 8v614q-49 68 -55 74q-33 33 -88 45q-14 41 -14 74v6q27 20 45 51l26 8q33 -6 62 19l428 10q51 4 92 0l86 -21q18 -10 46 -38.5t28 -45.5l-2 -43q-27 -10 -31 -41q-30 -20 -98 -53v-317l20 -25h57 q51 8 117 14q131 -6 201 -14q98 -16 164 -33l65 -20q96 -10 217 -141l-6 -7q33 -47 41 -116q2 -8 6 -123q-16 -14 -16 -33q0 -8 2 -16q-23 -6 -43 -45l-2 -4q-10 -27 -27 -60v-18q-70 -61 -161 -107q-106 -53 -185 -53h-1036l-66 22q-33 43 -32 80zM713 367q16 -12 16 -99 l55 -53q127 6 148 12q14 6 104 78q8 27 17 37l-6 12q4 6 14 8v152l-14 14q-2 10 4 17q-31 27 -31 41q-33 37 -43 37h-12q-4 10 -30 16t-32 12h-129l-61 -53v-231z" />
<glyph unicode="&#x42d;" horiz-adv-x="1761" d="M74 551q2 94 61 145q72 49 154 45t133 -32q182 -111 143 -271q-16 -106 74 -129q10 -2 119 -14l10 14q57 -14 164 80q92 82 131 148q20 41 22 81q-138 15 -208 -10q-131 12 -154 27q-35 23 -35 98v10l14 9q20 55 84 73l7 -2q47 8 139 29q37 10 57 8v4l125 -10 q-16 31 -16 45q0 4 4 6l-23 58q4 2 4 4t-10 14t-6 20q-43 47 -74 70l-8 -2q-70 63 -125 64q-252 0 -264 -64q-43 -23 -113 -78l-104 -90l-17 6q-78 -14 -112 -14q-98 68 -135 104l-17 131l64 170l24 19q12 35 50 58.5t75 23.5q51 0 154 -39q39 4 135 37q86 29 135 28h223 q66 0 204 -50t186 -91q66 -2 182 -154q82 -106 139 -210q-6 -10 -6 -23q0 -14 15.5 -45t15.5 -45v-184q0 -12 -12.5 -42t-12.5 -44q0 -78 -47 -117l-10 -49l-17 -9q-12 -29 -32 -53l2 -6l-172 -147q-98 -78 -199 -101l-123 -26q-98 -20 -113 -29q-496 10 -548 78 q-51 12 -111 51q-23 14 -96 74q-4 33 -31 45l4 6q-33 27 -47 55l4 10l-22 41l4 11q-16 14 -17 32l-8 31q-20 68 -16 117z" />
<glyph unicode="&#x42e;" horiz-adv-x="2402" d="M70 158l2 24q33 23 57 62l14 -2q49 0 68 69q12 49 6 109l14 10v580q0 23 -10 61q-12 47 -14 62q-43 43 -119 75l-16 45q0 29 30 60v12q23 8 146 51q23 -4 51.5 5.5t36.5 9.5h326q27 0 75.5 -13.5t75.5 -13.5l59 -31l-2 -10q31 -39 31 -86l-24 -37q-27 -12 -69 -53 t-52 -45v-209q39 -49 131 -49q30 -8 59 12q0 29 19 111l18 12l-2 14q0 39 47 80v19l19 12l-3 4l33 43l-2 6l131 117l6 -2q63 39 162 80q115 47 168 47h201q4 0 20.5 -7.5t32.5 -2.5l23 -15h51l12 -16q88 -29 180 -111q104 -92 148 -114q6 -25 51 -105q43 -72 43 -106 q0 -10 -2 -15q35 -18 35 -321q0 -12 -9.5 -41t-9.5 -43q-18 -14 -18 -37q0 -8 2 -19l-18 -18l6 -22l-19 -9v-20q-18 -10 -41.5 -56.5t-40.5 -58.5l2 -10q-147 -125 -209 -162q-127 -78 -260 -76l-163 2v4l-127 21q-4 10 -70 33l-10 -2q-68 35 -140 80q-35 23 -85 86t-80 84 l4 10q-23 31 -27 33q0 6 4 8q-23 29 -67 147l4 17q-33 37 -29 77l-82 4q-10 0 -115 -45v-206q0 -55 66 -113q84 -74 98 -98q-61 -143 -387 -144q-39 0 -72.5 1t-25.5 1h-86q-18 0 -203 49q-61 68 -59 95zM1460 678l13 -12q-6 -35 30 -125q29 -66 56 -129q74 -70 110 -70 q29 0 63.5 26.5t39.5 53.5l18 10q-4 43 16 45l-6 271h-6q-14 86 -22 90q4 70 -35 125q-10 14 -92 100h-86l-43 -37q-27 -23 -27 -43q-8 -6 -11 -27.5t-12 -27.5z" />
<glyph unicode="&#x42f;" horiz-adv-x="1818" d="M70 172q0 43 73 78q2 -2 21.5 5t23.5 7q23 29 39 88q16 68 31 92q-4 4 21 64l-5 14q51 78 60 86q37 47 80 60q31 16 59 26q6 -2 14 -2q39 0 64 37q-111 100 -199 162l2 10l-30 37l6 2q-16 55 -17 111q0 10 8.5 30.5t8.5 30.5q0 12 -6 20q51 72 75 107l-4 4 q8 14 52.5 36.5t48.5 33.5q82 37 131 37q18 0 55 12t53 12l422 -6l10 -8h226l16 14l37 4q80 0 178 -24q125 -31 125 -84q0 -41 -135 -131q0 -14 -12.5 -44t-12.5 -40v-559l15 -13q-4 -29 8 -84t10 -80l-2 -24q127 -94 127 -127q0 -61 -96 -98q-78 -31 -148 -29 q-53 0 -168 10q-109 8 -168 8q-53 0 -96 -6q-59 25 -63 25l-66 51l-4 23q14 27 76.5 85t68.5 72l-6 291l-86 -4v-4h-14q-113 -82 -113 -154l2 -12q-23 -23 -42 -98.5t-33 -87.5q-12 -59 -56 -101q-25 -23 -94 -74l-6 3l-10 -15q-20 4 -59.5 -10t-55.5 -14h-191 q-61 0 -149 43q-100 49 -100 102zM844 928q2 -12 2 -10q10 -4 14 -11q2 -4 0 -14t-2 -16q0 -10 12 -17q4 -16 62 -65q4 2 22 2q14 0 17 -11l116 -4l46 45l-7 287q0 35 -69 74h-101v-2q0 -6 -10 -10q-43 -16 -72.5 -59.5t-29.5 -88.5v-100z" />
<glyph unicode="&#x430;" horiz-adv-x="1366" d="M70 262v109q16 14 16 35q0 6 -2 14l14 10q29 57 103 113h4q35 23 133 53l98 31q219 2 90 4q55 -2 84 -17h78q6 63 6 99q0 70 -11 96.5t-58 79.5q-135 -14 -150 -86q-131 -109 -176 -109q-55 0 -98 23q-53 27 -51 78l2 49l14 8v16q37 33 110 97l13 -2q66 45 250 65l4 6 h233q94 0 199 -53q113 -55 153 -133q49 -92 50 -250q0 -45 -5.5 -132t-5.5 -132q59 -41 97 -47q23 -29 32 -68l-4 -16l-14 -8l2 -11l-8 -8q-10 -8 -10 -14q0 -4 2 -4l-101 -78l-8 2q-6 -2 -76 -27q-59 -20 -67 -20h-125l-10 12h-33q-72 63 -113 96q-16 -10 -39 -12 q-25 -14 -67 -51q-86 -27 -133 -31q-23 -2 -148 -2q-41 10 -115 45h-12q-20 18 -51 27q-23 31 -53 59q2 25 -25 47l2 13zM485 350q0 -31 15 -45q-4 -10 -4 -18q0 -10 19.5 -25.5t23.5 -21.5q25 4 28 -13q12 -2 27 -2q72 0 104 41q-2 23 15 25l-4 4q-2 -8 -2 14v31 q0 23 14 31v84q-14 14 -14 20q2 4 2 6q-14 27 -50 27h-71l-6 -2q-2 -14 -17 -14q-6 2 -8 2q-2 -4 -29.5 -24.5t-27.5 -39.5q-8 -6 -11 -10h-4v-70z" />
<glyph unicode="&#x431;" horiz-adv-x="1396" d="M70 877q16 6 34 53q8 8 60 37l6 -2l43 16l10 -2q55 25 84 20q12 12 33 13l22 14l23 -2q16 0 40 -1t134 9q27 2 94 2h279l20 -12q106 -14 172 -59l13 2q74 -63 110 -97v-16l15 -8l2 -49q2 -51 -52 -78q-39 -25 -90 -12q-49 0 -155 118q-53 61 -123 74q-80 8 -129 0v-311 h73q41 14 84 16q33 -2 91 -4l98 -31q98 -31 133 -53h4q74 -55 102 -113l15 -10q-2 -8 -2 -14q0 -20 16 -35v-109l-20 -24l2 -12q-27 -23 -25 -47q-31 -29 -53 -60q-31 -8 -51 -27h-13q-74 -35 -114 -45q-125 0 -148 2q-47 4 -323 0h-248q-14 10 -49 13.5t-49 13.5h-33 l-10 12q-47 4 -84 33t-37 74l2 18l14 9v16l98 82v14l17 19v352q-8 4 -62.5 60.5t-72.5 140.5zM678 342q14 -8 14 -31v-30q0 -23 -2 -15l-4 -4q16 -2 14 -24q33 -41 105 -41q14 0 26 2q4 16 29 12q4 6 23.5 21.5t19.5 25.5q0 8 -4 18q14 14 14 46v69h-4q-2 4 -10 10 q0 18 -27.5 39t-29.5 25q-2 0 -8 -2q-14 0 -17 14l-6 2h-72q-35 0 -49 -26q0 -2 2 -7q0 -6 -14 -20v-84z" />
<glyph unicode="&#x432;" horiz-adv-x="1406" d="M70 840q27 43 45 57q8 8 59 37l6 -2l43 16l10 -2q55 25 84 21q12 12 33 12l23 14l22 -2q16 0 51 9.5t50 9.5v4q27 0 73 18q-14 2 95 2q186 -2 241 -4l99 -31q98 -31 133 -53h4q74 -55 102 -112l14 -11q-2 -8 -2 -14q0 -20 17 -35v-108l-21 -25l2 -12q-27 -23 -24 -47 q-31 -29 -49 -56l24 -12h4q74 -55 103 -113l14 -10q-2 -8 -2 -14q0 -20 16 -35v-109l-20 -24l2 -12q-27 -23 -25 -47q-31 -29 -53 -60q-31 -8 -51 -27h-12q-74 -35 -115 -45q-125 0 -147 2q-47 4 -324 0h-248q-14 10 -49 13.5t-49 13.5h-33l-10 12q-47 4 -84 33t-37 74l2 18 l14 9v16l99 82v14l16 19v352q-8 4 -73.5 78.5t-71.5 85.5zM688 342q14 -8 14 -31v-30q0 -23 -2 -15l-4 -4q16 -2 15 -24q33 -41 104 -41q14 0 27 2q4 16 28 12q4 6 23.5 21.5t19.5 25.5q0 8 -4 18q14 14 15 46v69h-4q-2 4 -11 10q0 18 -27.5 39t-29.5 25q-2 0 -8 -2 q-14 0 -17 14l-6 2h-71q-35 0 -50 -26q0 -2 2 -7q0 -6 -14 -20v-84zM688 752q14 -8 14 -31v-31q0 -23 -2 -14l-4 -4q16 -2 15 -25q33 -41 104 -41q14 0 27 2q4 16 28 13q4 6 23.5 21t19.5 26q0 8 -4 18q14 14 15 45v70h-4q-2 4 -11 10q0 18 -27.5 38.5t-29.5 24.5 q-2 0 -8 -2q-14 0 -17 15l-6 2h-71q-35 0 -50 -27q0 -2 2 -6q0 -6 -14 -20v-84z" />
<glyph unicode="&#x433;" horiz-adv-x="1273" d="M70 877q16 6 34 53q8 8 60 37l6 -2l43 16l10 -2q55 25 84 20q12 12 33 13l22 14l23 -2q16 0 40 -1t134 9q27 2 94 2h279l20 -12q106 -14 172 -59l13 2q74 -63 110 -97v-16l15 -8l2 -49q2 -51 -52 -78q-39 -25 -90 -12q-49 0 -155 118q-53 61 -123 74q-80 8 -129 0v-598 q0 -12 47 -49q12 -8 65 -84l-4 -47q-27 -8 -26 -25q0 -4 2 -8h-11q-23 -18 -53 -27q-4 -10 -66.5 -24.5t-84.5 -14.5h-248q-14 10 -49 13.5t-49 13.5h-33l-10 12q-47 4 -84 33t-37 74l2 18l14 9v16l98 82v14l17 19v352q-8 4 -62.5 60.5t-72.5 140.5z" />
<glyph unicode="&#x434;" horiz-adv-x="1482" d="M47.5 -38q-16.5 89 11.5 140l4 19l11 22q53 68 114 68l66 51l-4 10q0 2 9 12.5t9 20.5l15 8v19q37 41 45 61l-6 2l30 41l-4 8l8 13q10 12 11 22l6 2q8 4 8 6q0 23 14 25l-2 16q14 31 51 88v5q16 18 21 41l14 10v16l17 10q20 43 43 76l-4 6l28 37v4q20 23 31 53 q27 16 45 46l-6 6q45 31 74 80l81 30q20 -6 48 -24q41 -29 45 -31l4 -23l41 -28l-6 -4q16 -25 45 -66l6 -12q49 -66 53 -88q76 -119 133 -236q31 -63 55 -116q35 -41 52 -95l6 -16q14 -24 22 -49l13 -31l30 -6q70 -8 82 -74q14 -39 23.5 -102.5t-6.5 -95.5q10 -51 -74 -148 h-14q-29 -10 -68 -2q-25 16 -55 35q0 8 -33 63l-12 101q2 20 -4 35h-254q-115 0 -359 2q-29 12 -78 5t-71 -7h-109l-10 -11q-2 -70 -10 -92q-6 -74 -52 -115q-47 -49 -120 27q-47 41 -63.5 130zM504 217q0 -45 41 -53q109 -53 211 -21l2 7q49 43 84 75q-2 43 -6 86 q2 35 -52.5 118t-101.5 63q-45 -8 -90 -62l-51 -74l4 -6q-41 -74 -41 -133z" />
<glyph unicode="&#x435;" horiz-adv-x="1247" d="M70 455v147h4l4 60l14 8l-2 8q10 25 33 70l14 6v18l15 6l-2 6q45 51 155 154h6q41 20 115 59q20 -4 78.5 16.5t77.5 20.5h163q12 0 37 -6t37 -6l8 -12l17 4l43 -21l14 4q31 -18 96 -45q131 -143 148 -176q33 -59 33 -198q0 -18 -31 -35l2 -6q-14 -20 -45 -37h-555 q-25 -12 -25 -39l4 -23l15 -10q-2 -10 -6 -18q51 -59 174 -113l10 2l10 -12q18 -2 70 -2q45 0 125 32l121 50v4h10q33 0 82 -62q-2 -61 -15 -82l-16 -8v-16l-39 -33q-23 -18 -47 -27q-12 -23 -43 -24q-84 -53 -203 -72q-55 -8 -223 -12q-16 10 -77.5 22.5t-82.5 22.5l-10 -4 l-29 20l-10 -4q-10 25 -43 27l-47 45q-33 8 -49 26q0 16 -43 50l2 10q-41 41 -62 108h-10q-8 33 -18 97h-4zM494 711q0 -47 45 -62q39 4 82 2q90 -6 84 -6q33 0 67 12q47 16 47 41v93l-14 10q-6 18 -31 43q-23 18 -43 37h-18l-11 12q-23 4 -40 4q-49 0 -154 -80 q4 -25 -12 -26q0 6 -2 -9v-71z" />
<glyph unicode="&#x436;" horiz-adv-x="2332" d="M70 160h4l18 28l10 -2q39 8 105 39q20 25 69 72l5 20l16 11l-2 4q35 57 115 160q-2 4 -2 8q0 8 16 12v18l16 9l-4 14q12 31 29 53q-94 121 -125 152q-96 96 -107 92l-20 10l-8 17q-25 25 -27 55v18l6 15q12 33 68 57q80 14 147 4h201q47 6 89 0t54 -31l25 -20l2 -19 q2 -16 -4 -24l-8 -17q0 -18 -17 -36q-18 -55 21 -119q27 -186 168 -170l2 80q-12 20 -17.5 81.5t-3.5 145.5q4 35 29 45l10 -2q55 25 84 21q12 12 33 12l23 14l22 -2q16 0 51 9.5t49 9.5v4q27 0 74 18q-14 2 94 2q12 0 37 -11t25 -22l4 -377l94 44l96 75l15 19 q20 145 51 198l2 19l16 8l15 25q123 37 284 24l45 -2l29 -6l39 -25l20 -36q-10 -37 -47 -66h-12q-49 -33 -96 -145q-14 -33 -31 -86l-6 -17l-2 -22q6 -12 -37 -70l2 -20q27 -51 84 -117l-2 -6q59 -66 86 -109q18 -29 104 -67q70 -31 68 -101q-20 -25 -63 -51 q-12 -10 -62 -29q-76 -18 -135 -18h-311q-106 -6 -144 57l-10 27l-6 72l6 36v52q-33 92 -98 88l2 -76q0 -12 15.5 -108.5t-1.5 -116.5q-27 -23 -73 -30t-74 -1h-228h-66.5t-49.5 4h-33l-10 12q-47 4 -84 33t-37 74l2 18l14 8v17l98 82v14l17 18l-2 70l-21 2 q-115 -23 -207 -115v-55q0 -23 15 -41l-15 -94q-39 -43 -116 -45q-154 -10 -379 6q-133 4 -137 115z" />
<glyph unicode="&#x437;" horiz-adv-x="1083" d="M70 291q0 104 69 104q61 0 119 -45q20 -14 96 -86h6q29 -12 86 -39l39 4q23 27 35 52l-6 14l2 16q-12 31 -49 66q-49 41 -113 104l-2 15q-31 35 -20 67q20 59 88 107l20 16q80 59 92 88q-14 27 -40 51l-41 2q-55 -27 -89 -55l-77 -65q-63 -14 -70 -21q-33 8 -63 16 q-37 16 -43 46l-13 8q6 127 51 159q8 31 54.5 67t79.5 36q20 0 60 -14.5t60 -14.5l43 8v7h54q25 12 63 12q113 0 180 -35l13 4q139 -72 153 -115l29 -20q4 -20 16 -39l-2 -10l15 -8v-29v-23l-15 -39q-14 -70 -69 -98q-23 -23 30 -57q39 -31 47 -60l23 -14q33 -111 33 -143 q0 -14 -9.5 -40t-9.5 -38l-14 -10l4 -15q-111 -152 -244 -170v-4q-76 -6 -235 -16l-25 12h-30l-21 12q-23 -4 -59 15q-20 0 -59.5 -14.5t-55.5 -14.5l-20 2l-9 12q-57 16 -107 92t-50 138z" />
<glyph unicode="&#x438;" horiz-adv-x="1566" d="M70 831l4 31q43 57 245 111q193 51 279 45l57 -4l29 -23v-104l-14 -8v-168l-15 -13v-295q0 -59 52.5 -91.5t111.5 -24.5q23 25 62 35q-6 14 14 18v16q16 18 16 41q0 8 -2 19l15 6v280q-45 37 -123 125v35l151 82q39 0 114 26.5t114 26.5q29 0 86 9.5t86 9.5q68 0 67 -146 q0 6 -18 -221h-10l-5 -321q0 -37 80 -64q20 -25 31 -59q-15 -49 -78 -74q-10 -14 -90 -45l-18 2q-76 -10 -185 -39h-188q-8 35 -14 68q-12 41 -43 55q-209 -123 -269 -123h-159q-23 18 -58 12q-6 14 -12 15l-4 -4q-61 45 -121 92q-43 41 -55 145h-10q0 43 9 129t9 129 q0 150 -70 191q-39 23 -71 73z" />
<glyph unicode="&#x439;" horiz-adv-x="1566" d="M70 831l4 31q43 57 245 111q193 51 279 45l57 -4l29 -23v-104l-14 -8v-168l-15 -13v-295q0 -59 52.5 -91.5t111.5 -24.5q23 25 62 35q-6 14 14 18v16q16 18 16 41q0 8 -2 19l15 6v280q-45 37 -123 125v35l151 82q39 0 114 26.5t114 26.5q29 0 86 9.5t86 9.5q68 0 67 -146 q0 6 -18 -221h-10l-5 -321q0 -37 80 -64q20 -25 31 -59q-15 -49 -78 -74q-10 -14 -90 -45l-18 2q-76 -10 -185 -39h-188q-8 35 -14 68q-12 41 -43 55q-209 -123 -269 -123h-159q-23 18 -58 12q-6 14 -12 15l-4 -4q-61 45 -121 92q-43 41 -55 145h-10q0 43 9 129t9 129 q0 150 -70 191q-39 23 -71 73zM504 1237l4 4q-47 68 10 115q43 27 90 16q4 -10 30 -19.5t30 -21.5q10 0 30.5 -15.5t32.5 -15.5q6 -10 30.5 -22t33.5 -23q6 4 10 5q10 0 14 -17l6 2l11 10q12 -2 28.5 11.5t24.5 13.5q8 10 32.5 22.5t30.5 20.5q10 -2 25.5 11.5t23.5 13.5h7 q72 37 125 26l26 -12q20 -37 16 -59.5t-22 -42.5q-2 -20 -27 -39q-6 -8 -41 -31v-16q-6 -8 -31.5 -27t-31.5 -37q-27 -68 -131 -68q-25 0 -100 7q-66 6 -101 -2q-59 53 -69 75q-82 74 -117 115z" />
<glyph unicode="&#x43a;" horiz-adv-x="1753" d="M70 801q35 104 262 170q186 53 346 53q8 -20 31 -14q35 -64 8 -154q-18 -49 -2 -84q20 -37 78 -37q35 0 90 38t65 71l-55 69l6 27q92 57 123 57q14 0 27 -4l10 13h254q14 0 51 -9.5t43 -17.5h35q23 -23 53 -39q16 -35 14 -70q-53 -41 -92 -41q-4 0 -8 2q-94 -35 -125 -51 q-74 -41 -92 -90q8 -33 51 -88q37 -51 70 -76v-6q16 -29 45 -47v-2q172 -190 325 -317l-2 -45q-23 -20 -28 -50q-72 -12 -246 -24l-14 -15h-193q-25 20 -59 15q-61 33 -68 37q-41 27 -45 57q-43 29 -59 57l4 7q-51 70 -103 116l2 4l-45 58q-23 29 -69 45q-27 -31 -27 -58 q0 -70 25 -106q8 -12 80 -80v-14q0 -51 -45 -80q-4 -4 -89 -43q-45 6 -81 -15h-277q-45 25 -133 27q-53 33 -66 41q-33 29 -32 62q0 29 98 94q-2 10 10 50t21 42v346q0 27 -99 80q-18 -8 -73 39z" />
<glyph unicode="&#x43b;" horiz-adv-x="1476" d="M25 147q90 70 118 64l66 51l-4 10q0 2 9 12.5t9 20.5l15 8v19q37 41 45 61l-7 2l31 41l-4 8l8 13q10 12 11 22l6 2q8 4 8 6q0 23 14 25l-2 16q14 31 51 88v5q16 18 21 41l14 10v16l17 10q20 43 43 76l-5 6l29 37v4q20 23 31 53q27 16 45 46l-6 6q45 31 74 80l81 30 q20 -6 48 -24q41 -29 45 -31l4 -23l41 -28l-7 -4q16 -25 60 -66v-6q53 -74 49 -84q78 -72 147 -250q20 -2 68 -90q16 -31 57 -113v-4q25 -31 84 -84l21 2l10 -12q70 -20 92 -80q-8 -33 -67 -84q-41 8 -80 -20q-16 2 -44 -5t-40 -7h-357q-115 0 -196 75v62q8 2 10 8 q4 8 -2 12q63 49 64 82q10 68 -35 140.5t-82 54.5q-41 -8 -69.5 -59.5t-53.5 -86.5q4 -14 -8.5 -53t-7.5 -55q20 -14 63 -74q0 -61 -27 -61q-6 0 -12 2q-16 -12 -72.5 -29.5t-78.5 -17.5h-199q-12 0 -37 6t-37 6q-39 18 -65 47z" />
<glyph unicode="&#x43c;" horiz-adv-x="2224" d="M70 139q16 6 10 17l182 108l4 33q18 6 70 125h10q16 27 21 49l14 8l14 29l-4 4q37 55 103 168l-5 6q0 2 16.5 25.5t12.5 29.5q35 25 47 64l-2 8q23 37 86 127q53 76 127 84q66 -27 191 -221.5t159 -208.5l45 22v5q8 14 29 47q6 4 17 12l-7 6q12 31 31 37v31q37 27 43 73 q51 78 129 185l55 12l52 -18q10 -20 40.5 -51t41.5 -46l-5 -4q63 -111 234 -393q170 -274 305 -313q18 -33 18 -47q0 -68 -141 -103q-94 -23 -205 -22h-211q-27 20 -59 14q-90 31 -100 119q33 47 32 73q-14 98 -81 195l-15 18l-47 21q-80 -106 -82 -174q-92 -209 -229 -277 l-27 -2q-158 55 -180.5 118t-28.5 120q-10 145 -114 217l-21 -4l-29 -39q-8 -25 -43.5 -82t-33.5 -59q-16 -20 -17 -54q0 -12 2 -24q51 -37 60 -103q-66 -74 -133 -63l-11 -10l-256 -4q-29 20 -61 14q-39 18 -47 39q-4 10 -6 59z" />
<glyph unicode="&#x43d;" horiz-adv-x="1597" d="M70 141q39 43 94 123l-8 27l14 8v416q-100 72 -100 114q0 4 10 23.5t6 30.5q23 20 119 53q88 29 102 53l8 -2l72 21l14 -2l56 26q12 -2 35.5 3t31.5 5q41 0 121 -10q8 -14 19 -78q8 -51 0 -311q0 -59 52 -92t111 -25q23 25 62 35q-6 14 14 19v16q16 18 17 41q0 8 -2 18 l14 6v43q-51 119 -29 232l47 70l72 18q47 -2 85 1t81 11q39 -2 91 -10t81 -8q68 0 67 -146q0 6 -18 -221h-10l-4 -321q0 -37 80 -64q20 -25 30 -59q-14 -49 -63 -111q-37 -45 -94 -37l-23 4q-76 -10 -186 -41h-183q-18 63 -24 97q-39 55 -21 245q-51 -23 -110 -18 q-51 -2 -139 23q0 -31 10 -68q8 -23 36.5 -92.5t28.5 -75.5l-2 -20l-28 -25l4 -10q-18 -12 -93 -34t-98 -22h-246q-12 0 -36.5 7.5t-36.5 7.5l-11 12q-84 6 -108 72h-10z" />
<glyph unicode="&#x43e;" horiz-adv-x="1357" d="M70 580q0 8 7 29.5t7 31.5l12 8l-4 21l19 16l-5 4q14 33 44 62l-3 4q76 94 203 170q147 88 271 88h194q16 0 50 -9.5t50 -9.5q25 -16 89 -26q4 -10 65 -37q129 -88 191 -209l-5 -12q27 -64 33 -226q-16 -14 -16 -34q0 -8 2 -17l4 -2q-10 -37 -29 -45v-31l-14 -6v-16 l-14 -10l2 -2q-14 -27 -60 -70l6 -6q-59 -55 -153 -115q-127 -80 -191 -70q-29 -14 -75 -16v-4l-195 -4l-25 12h-30l-21 12h-33l-8 13h-35l-8 12q-55 10 -104 57h-19q-27 18 -67.5 71.5t-69.5 72.5l2 8q-6 16 -31 41l5 10q-25 35 -33 100h-4zM512 719l6 -164h4 q23 -147 47 -162l-4 -12q14 -45 56 -88q0 -10 43 -53q27 0 28 -15h51q29 0 65 29t36 57l14 11l2 53q2 53 -24 186q-29 145 -64 174l4 4q-96 94 -139 95q-35 0 -96 -54v-16l-15 -8q2 -37 -14 -37z" />
<glyph unicode="&#x43f;" horiz-adv-x="1597" d="M70 141q39 43 94 123l-8 27l14 8v416q-100 72 -100 114q0 4 10 23.5t6 30.5q23 20 119 53q88 29 102 53l8 -2l72 21l14 -2l56 26q12 -2 35.5 3t31.5 5q41 0 121 -10q8 -14 19 -78q8 -51 32 -69q25 10 78 57l76 66q39 0 118 13t117 13l23 -10q20 -8 51 -2l10 -14l17 2 q242 -94 233 -273h6l5 -381l-15 -8l10 -16l-10 -29q12 -31 113 -137q-39 -86 -81 -108.5t-144 -24.5v-6l-281 -5q-41 25 -119 27l-10 12q-31 8 -49 29l6 10l-21 19q6 12 7 26q0 8 -2 15l16 14l-6 2q29 27 49 53l-4 17q16 14 16 35q0 8 -2 16l15 8v299q0 4 -9.5 24.5 t-9.5 32.5h-10q-23 37 -70 72l-41 2q-51 2 -82 -31v-18q-35 -14 -34 -182q0 -160 8 -189q4 -14 35.5 -95t31.5 -87l-2 -20l-28 -25l4 -10q-18 -12 -93 -34t-98 -22h-246q-12 0 -36.5 7.5t-36.5 7.5l-11 12q-84 6 -108 72h-10z" />
<glyph unicode="&#x440;" horiz-adv-x="1507" d="M70 760q0 47 12 65q106 74 215 113q55 20 160 43q76 16 102 33h123q12 -16 12 -78q0 -25 27 -37q49 12 80 57l6 -2q86 61 233 62q25 0 50 -2q47 -16 141 -58h18q129 -113 164 -223q21 -65 25 -274l-15 -6q-2 -20 4 -43l-18 -19l6 -35l-14 -6v-28q-12 -4 -15 -19l-4 -12 l-6 4q-18 -23 -18 -43l-103 -111q-121 -104 -317 -104q-20 0 -76 24l-12 -2q-23 10 -49 15l-10 12q-41 14 -76 20q2 -12 -2 -30q-2 -27 -2 -35q0 -76 80 -94q8 -10 55 -39q31 -18 43 -70q-10 -31 -56.5 -63.5t-78.5 -32.5q-10 0 -19 4q-49 -27 -108 -27h-285q-86 0 -231 76 q-10 20 -15 47q51 90 119 105q20 47 18 94l15 8v496q0 98 -29 129q-6 8 -65.5 29.5t-83.5 56.5zM664 336l14 -12q-8 -33 70 -72q-16 -2 22 -2h51q33 0 75 22.5t42 51.5l14 10v12q10 4 15.5 28.5t11.5 28.5l-4 179q-10 10 -10 18q0 49 -43 100q-14 20 -80 80h-94l-56 -49 q2 -23 -14 -24z" />
<glyph unicode="&#x441;" horiz-adv-x="1232" d="M70 455v159h4q0 14 18.5 63.5t16.5 55.5l14 8v17l14 8l-2 6q47 51 152 154h6l96 51q29 0 105.5 28.5t111.5 28.5h199l24 -12h31l23 -12h47l10 -13q82 -25 125 -61q14 -12 88 -98l-6 -21q16 -23 16 -98l-16 -8l6 -19q-63 -117 -217 -117q-33 0 -82 23q-55 25 -53 53 q-31 27 -31 56q-47 76 -115 75q-23 0 -55 -16q-20 -16 -51 -55l4 -17l-14 -8q-2 -16 -2 -65q0 -23 16 -50l-4 -8l20 -39l-2 -10q27 -12 29 -39l96 -80h17l8 -12q57 -14 84 -14q43 0 130 35.5t134 31.5l31 -2q16 -20 43 -31q10 -27 24 -45v-71q0 -16 -30 -47 q-18 -29 -111 -109q-59 -39 -221 -70q-131 -25 -234 -26q-33 4 -88 24q-66 0 -172 62.5t-131 122.5q-39 25 -74 114h-10l-18 97h-4z" />
<glyph unicode="&#x442;" horiz-adv-x="2101" d="M70 111v47l28 35v16q45 31 58 72l-4 22l16 8v365q-27 23 -21 55l-49 39q4 6 4 14t-17 40t-15 46q27 8 28 37h6q90 51 225.5 89t237.5 38q76 0 68 -157l49 -19q49 47 147 135l13 -2q4 0 18.5 8.5t20.5 8.5q4 0 8 -2q39 27 94 26h98q25 0 54 -26l10 2q4 0 14 -9.5t17 -9.5 q6 0 8 4q10 -10 61 -78q37 -49 72 -57q90 90 137 121q82 53 182 53q125 0 187 -39q49 -31 119 -135l-5 -29l25 -38l-6 -512q0 -27 35 -72t39 -64q-21 -27 -15 -45q-12 -14 -51 -32.5t-51 -30.5q-47 6 -84 -15h-223q-35 20 -74 15l-8 12q-80 14 -105 64q6 20 56 129 q-2 10 -2 20q0 29 16 51v318q-27 23 -21 55q-27 49 -81 49q-80 0 -76 -49l-15 -8l-14 -35v-291q0 -39 35 -115.5t35 -115.5l-17 -8l-8 -37h-8l-53 -31l-19 4q-68 -27 -84 -27h-245q-63 0 -177 68l-12 53l17 43l-5 2q23 37 58 66v43l16 8v313q0 4 -12 30t-12 38l-45 47h-56 l-43 -51v-25l-14 -18v-358q0 -31 16 -78l27 -78q-29 -43 -78 -70q-55 -31 -102 -22v-6l-242 -5q-33 20 -74 15q0 6 -10 10q-10 2 -14 -2l-60 31l2 6z" />
<glyph unicode="&#x443;" horiz-adv-x="1515" d="M70 905q39 80 110 109q45 18 168 28l6 9h285q129 0 184 -76v-74q-16 -4 -69 -78l14 -22q-8 -10 20 -68h5v-10q0 -41 33.5 -73t72.5 -29l27 2q14 8 80 94l-5 10l23 43l-4 10l14 25q-8 29 -43 73t-45 64l15 45q49 35 77 43q4 2 90 12v7l164 2q31 -18 70 -13q4 -16 16 -16 q6 0 13 4l55 -51v-74q-145 -74 -182 -133l-33 -31l2 -8q0 -8 -14.5 -25.5t-14.5 -23.5q0 -4 4 -6q-12 -31 -30 -49v-29l-15 -8v-31q-8 0 -12 -8t2 -14l-23 -37l5 -13l-15 -41q-16 0 -16 -14q0 -4 4 -8l-16 -45l4 -15l-17 -38l-14 -7v-30q-8 0 -12 -8q-4 -10 2 -15l-23 -39 l2 -12l-14 -8v-31q-12 -4 -12 -12q0 -4 2 -4q-16 -23 -45 -95l2 -8q-31 -53 -115 -155v-17q-193 -186 -326 -186h-157q-20 16 -43 16q-8 0 -17 -2q-88 25 -145 90q-63 72 -64 158l17 35q-6 4 -6 8t9 17.5t9 15.5q0 4 -2 6q27 20 49 51q70 37 115 37q88 0 139 -59 q37 -43 68 -142l51 -20q51 31 51 59q0 43 -117 287q-111 233 -153 291q-37 66 -70 151q-16 20 -24 47h-11q-6 18 -72.5 65.5t-82.5 96.5z" />
<glyph unicode="&#x444;" horiz-adv-x="2086" d="M70 440v164q0 12 18 51q16 33 10 56l13 8q6 27 28 53l-4 4l15 25q25 12 28 37l107 77q53 39 110 64l6 -2q55 8 119 27q35 10 244 10q16 0 47 -5t47 -5v-7q37 2 104.5 -7t98.5 -9q35 0 94 -2t117 16l151 19q51 2 199 2q25 0 49 -2q47 -16 141 -58h19q129 -113 164 -223 q20 -66 24 -274l-14 -6q-2 -20 4 -43l-18 -19l6 -35l-15 -6v-28q-12 -4 -14 -19l-4 -12l-6 4q-18 -23 -19 -43l-102 -111q-121 -104 -317 -104q-20 0 -76 24l-12 -2q-23 10 -50 15l-10 12q-41 14 -76 20q2 -12 -2 -30v-39l9 -35q23 -41 28 -49q18 -20 51 -31q49 -45 60 -80 l-4 -26q-18 -27 -74 -62l-21 4q-61 -39 -151 -39h-297q-14 25 -143 25q-47 0 -129 74l4 59l55 33q12 23 43 24l53 58q31 41 23 69l14 9l-18 36l-13 3q-23 0 -121 -37t-149 -37l-68 14l-12 -2q-49 14 -67 14l-9 13q-72 16 -165 108l2 8q-16 23 -60 64q-18 41 -43 123h-8 q6 35 -14 63zM547 473h4q10 -61 18 -92q6 2 15.5 -13.5t13.5 -17.5q4 -18 31 -43l41 -37h12q14 -8 41 -8q45 0 55 4l51 43l2 4v39q-2 -8 -2 -14q0 16 15 18l-4 330l-11 8q6 16 7 29q0 27 -82 115q-18 2 -56 2q-35 0 -114 -60v-16l-15 -8q2 -10 -10 -36t-12 -34v-213z M1245 348l12 -16q-6 -29 72 -68q-16 -2 23 -2h51q33 0 75 22.5t42 51.5l14 10v12q10 4 15 29t12 29l-5 178q-10 10 -10 18q0 49 -26 99q-14 68 -111 127h-72l-63 -95q2 -23 -14 -24z" />
<glyph unicode="&#x445;" horiz-adv-x="1519" d="M70 166h4l18 29l10 -2q39 8 105 38q20 25 69 72l5 21l16 10l-2 4q35 57 115 160q-2 4 -2 8q0 8 16 12v19l16 8l-4 14q12 31 29 53q-94 121 -125 152q-96 96 -172 90l-10 14h-21q-6 37 -24 70l14 10v19q27 35 125 61q84 23 143 23h340q31 0 97.5 -18.5t76.5 -37.5l-4 -14 l23 -31q2 -14 -19 -18l2 -8q0 -27 -32 -39q10 -61 16 -72q12 -23 63 -45l54 39v4l37 49q-49 57 -50 101l2 18l17 8l14 25q123 37 287 39l20 -13h29l62 -34l20 -37q-10 -37 -47 -66h-12q-49 -33 -146 -113l4 -2q-33 -39 -104 -118v-13l-19 -24q6 -12 -36 -70l2 -20 q27 -51 84 -117l-2 -6q59 -66 86 -109q18 -29 104 -67q70 -31 68 -101q-20 -25 -64 -65q-12 4 -90 -15q-84 -20 -102 -20h-357q-31 0 -160 39l-24 39l2 61l70 56v51q0 49 -97 100l-18 -2q-31 -35 -94 -104v-56q0 -23 30 -39l-28 -102q-10 -27 -66 -27q25 0 -252 -2 q-109 0 -112 111z" />
<glyph unicode="&#x446;" horiz-adv-x="1566" d="M70 831l4 31q43 57 245 111q193 51 279 45l57 -4l29 -23v-104l-14 -8v-168l-15 -13v-295q0 -59 52.5 -91.5t111.5 -24.5q23 25 62 35q-6 14 14 18v16q16 18 16 41q0 8 -2 19l15 6v280q-45 37 -123 125v35l151 82q39 0 114 26.5t114 26.5q29 0 86 9.5t86 9.5q68 0 67 -146 q0 6 -18 -221h-10l-5 -321q12 -33 60 -82q23 -17 35 -76l16 -39v-22q12 -35 39 -72q-2 -23 18 -41q-4 -6 -4 -14t8.5 -28t8.5 -28l-2 -59l-15 -10l4 -21l-18 -22l4 -2q-25 -29 -72 -91h-6q-47 -29 -125 -59q-90 -37 -129 -37h-200q-33 0 -97 25q-80 31 -96 35q-10 23 -43 24 q-27 20 -54.5 70.5t-27.5 83.5q0 59 86 137q63 14 96 14l54 -14l16 4q45 -25 51 -29q31 -20 35 -43q102 -90 133 -90q18 0 66 15q23 39 22 59q0 37 -55 80q-45 37 -88 51q-10 23 -43 25q-45 10 -76 10t-63 35q-12 41 -43 55q-209 -123 -269 -123h-159q-23 18 -58 12 q-6 14 -12 15l-4 -4q-61 45 -121 92q-43 41 -55 145h-10q0 43 9 129t9 129q0 150 -70 191q-39 23 -71 73z" />
<glyph unicode="&#x447;" horiz-adv-x="1566" d="M70 831l4 31q43 57 245 111q193 51 279 45l57 -4l29 -23v-104l-14 -8v-168l-15 -13q-12 -94 46.5 -127.5t117.5 -25.5q23 25 62 35q-6 14 14 18v16q16 18 16 41q0 8 -2 19l15 6v22q-45 37 -123 125v35l151 82q39 0 114 26.5t114 26.5q29 0 86 9.5t86 9.5q68 0 67 -146 q0 6 -18 -221h-10l-5 -321q0 -37 80 -64q20 -25 31 -59q-14 -49 -57 -96q-35 -25 -94 -29l-33 -6q-68 -18 -187 -25h-188l-14 2l-11 8q-47 4 -83.5 33t-36.5 74l2 18l14 9v16l98 82v14l17 19v51q-12 41 -43 55q-209 -123 -269 -123h-159q-23 18 -58 12q-6 14 -12 15l-4 -4 q-61 45 -121 92q-43 41 -55 145l10 15q-2 135 -72 176q-39 23 -71 73z" />
<glyph unicode="&#x448;" horiz-adv-x="2291" d="M70 831l4 31q43 57 245 111q193 51 279 45l57 -4l29 -23v-104l-14 -8v-168l-15 -13v-295q0 -59 52.5 -91.5t111.5 -24.5q23 25 62 35q-6 14 14 18v16q16 18 16 41q0 8 -2 19l15 6q10 102 10 145q0 150 -70 191q-39 23 -71 73l4 31q43 57 245 111q193 51 279 45l57 -4 l29 -23v-104l-14 -8v-168l-15 -13v-295q0 -59 52.5 -91.5t111.5 -24.5q23 25 62 35q-6 14 14 18v16q16 18 16 41q0 8 -2 19l15 6v280q-45 37 -123 125v35l151 82q39 0 114 26.5t114 26.5q29 0 86 9.5t86 9.5q68 0 67 -146q0 6 -18 -221h-10l-5 -321q0 -37 80 -64 q20 -25 31 -59q-14 -49 -78 -74q-10 -14 -90 -45l-18 2q-76 -10 -185 -39h-188q-8 35 -14 68q-12 41 -43 55q-209 -123 -269 -123h-159q-23 18 -62 -2l-176 2q-8 35 -14 68q-12 41 -43 55q-209 -123 -269 -123h-159q-23 18 -58 12q-6 14 -12 15l-4 -4q-61 45 -121 92 q-43 41 -55 145h-10q0 43 9 129t9 129q0 150 -70 191q-39 23 -71 73z" />
<glyph unicode="&#x449;" horiz-adv-x="2291" d="M70 831l4 31q43 57 245 111q193 51 279 45l57 -4l29 -23v-104l-14 -8v-168l-15 -13v-295q0 -59 52.5 -91.5t111.5 -24.5q23 25 62 35q-6 14 14 18v16q16 18 16 41q0 8 -2 19l15 6q10 102 10 145q0 150 -70 191q-39 23 -71 73l4 31q43 57 245 111q193 51 279 45l57 -4 l29 -23v-104l-14 -8v-168l-15 -13v-295q0 -59 52.5 -91.5t111.5 -24.5q23 25 62 35q-6 14 14 18v16q16 18 16 41q0 8 -2 19l15 6v280q-45 37 -123 125v35l151 82q39 0 114 26.5t114 26.5q29 0 86 9.5t86 9.5q68 0 67 -146q0 6 -18 -221h-10l-5 -321q12 -33 60 -82 q23 -16 35 -76l16 -39v-22q12 -35 39 -72q-2 -23 18 -41q-4 -6 -4 -14t8.5 -28t8.5 -28l-2 -59l-15 -10l4 -21l-18 -22l4 -2q-25 -29 -72 -91h-6q-47 -29 -125 -59q-90 -37 -129 -37h-200q-33 0 -97 25q-80 31 -96 35q-10 23 -43 24q-27 20 -54.5 70.5t-27.5 83.5 q0 59 86 137q63 14 96 14l54 -14l16 4q45 -25 51 -29q31 -20 35 -43q102 -90 133 -90q18 0 66 15q23 39 22 59q0 37 -55 80q-45 37 -88 51q-10 23 -43 25q-45 10 -76 10t-63 35q-12 41 -43 55q-209 -123 -269 -123h-159q-23 18 -62 -2l-176 2q-8 35 -14 68q-12 41 -43 55 q-209 -123 -269 -123h-159q-23 18 -58 12q-6 14 -12 15l-4 -4q-61 45 -121 92q-43 41 -55 145h-10q0 43 9 129t9 129q0 150 -70 191q-39 23 -71 73z" />
<glyph unicode="&#x44a;" horiz-adv-x="1697" d="M70 664v4q41 106 94 215q72 150 184 149q-6 0 86 -16l10 -12h322q55 4 96 28q-14 2 94 2q12 0 37 -11t25 -22v-415h74q29 14 84 16q-129 -2 90 -4l98 -31q98 -31 133 -53h4q74 -55 103 -113l14 -10q-2 -8 -2 -14q0 -20 16 -35v-109l-20 -24l2 -12q-27 -23 -25 -47 q-31 -29 -53 -60q-31 -8 -51 -27h-12q-74 -35 -115 -45q-125 0 -148 2q-47 4 -323 0h-248q-14 10 -49 13.5t-49 13.5h-33l-10 12q-47 4 -84 33t-37 74l2 18l14 9v16l99 82v14l16 19v352q0 33 -2 54.5t-29 8.5q-25 -27 -63 -77q-72 -92 -86 -105q-57 -51 -129 -51 q-35 0 -81 37t-46 70.5t-2 50.5zM981 342q14 -8 14 -31v-30q0 -23 -2 -15l-4 -4q16 -2 15 -24q33 -41 104 -41q14 0 27 2q4 16 28 12q4 6 23.5 21.5t19.5 25.5q0 8 -4 18q14 14 15 46v69h-5q-2 4 -10 10q0 18 -27.5 39t-29.5 25q-2 0 -8 -2q-14 0 -17 14l-6 2h-72 q-35 0 -49 -26q0 -2 2 -7q0 -6 -14 -20v-84z" />
<glyph unicode="&#x44b;" horiz-adv-x="2193" d="M70 840q27 43 45 57q8 8 59 37l6 -2l43 16l10 -2q55 25 84 21q12 12 33 12l23 14l22 -2q16 0 51 9.5t50 9.5v4q27 0 73 18q-14 2 95 2q12 0 36.5 -11t24.5 -22v-415h74q29 14 84 16q-129 -2 90 -4l98 -31q98 -31 133 -53h4q74 -55 103 -113l14 -10q-2 -8 -2 -14 q0 -20 16 -35v-109l-20 -24l2 -12q-27 -23 -25 -47q-31 -29 -53 -60q-31 -8 -51 -27h-12q-74 -35 -115 -45q-125 0 -147 2q-48 4 -324 0h-248q-14 10 -49 13.5t-49 13.5h-33l-10 12q-47 4 -84 33t-37 74l2 18l14 9v16l99 82v14l16 19v352q-8 4 -73.5 78.5t-71.5 85.5z M688 342q14 -8 14 -31v-30q0 -23 -2 -15l-4 -4q16 -2 15 -24q33 -41 104 -41q14 0 27 2q4 16 28 12q4 6 23.5 21.5t19.5 25.5q0 8 -4 18q14 14 15 46v69h-4q-2 4 -11 10q0 18 -27.5 39t-29.5 25q-2 0 -8 -2q-14 0 -17 14l-6 2h-71q-35 0 -50 -26q0 -2 2 -7q0 -6 -14 -20v-84 zM1356 840q27 43 45 57q8 8 59 37l6 -2l43 16l11 -2q55 25 84 21q12 12 32 12l23 14l22 -2q16 0 51 9.5t50 9.5v4q27 0 73 18q-14 2 95 2q12 0 36.5 -11t24.5 -22v-702q0 -12 47 -49q12 -8 66 -84l-4 -47q-27 -8 -27 -25q0 -4 2 -8h-10q-23 -18 -53 -27q-4 -10 -66.5 -24.5 t-85.5 -14.5h-248q-14 10 -49 13.5t-49 13.5h-33l-10 12q-47 4 -84 33t-37 74l2 18l14 9v16l99 82v14l16 19v352q-8 4 -73.5 78.5t-71.5 85.5z" />
<glyph unicode="&#x44c;" horiz-adv-x="1406" d="M70 840q27 43 45 57q8 8 59 37l6 -2l43 16l10 -2q55 25 84 21q12 12 33 12l23 14l22 -2q16 0 51 9.5t50 9.5v4q27 0 73 18q-14 2 95 2q12 0 36.5 -11t24.5 -22v-415h74q29 14 84 16q-129 -2 90 -4l98 -31q98 -31 133 -53h4q74 -55 103 -113l14 -10q-2 -8 -2 -14 q0 -20 16 -35v-109l-20 -24l2 -12q-27 -23 -25 -47q-31 -29 -53 -60q-31 -8 -51 -27h-12q-74 -35 -115 -45q-125 0 -147 2q-48 4 -324 0h-248q-14 10 -49 13.5t-49 13.5h-33l-10 12q-47 4 -84 33t-37 74l2 18l14 9v16l99 82v14l16 19v352q-8 4 -73.5 78.5t-71.5 85.5z M688 342q14 -8 14 -31v-30q0 -23 -2 -15l-4 -4q16 -2 15 -24q33 -41 104 -41q14 0 27 2q4 16 28 12q4 6 23.5 21.5t19.5 25.5q0 8 -4 18q14 14 15 46v69h-4q-2 4 -11 10q0 18 -27.5 39t-29.5 25q-2 0 -8 -2q-14 0 -17 14l-6 2h-71q-35 0 -50 -26q0 -2 2 -7q0 -6 -14 -20v-84 z" />
<glyph unicode="&#x44d;" horiz-adv-x="1134" d="M70 291q0 104 69 104q61 0 119 -45q20 -14 96 -86h6q29 -12 86 -39l39 4q25 8 41 33l19 27l4 18q14 80 2 105q-119 2 -189 55l-18 18q-23 45 -12 78q20 59 84 92l35 7q70 27 127 14q31 43 -86 149l-41 2q-55 -27 -89 -55l-77 -65q-63 -14 -70 -21q-33 8 -63 16 q-37 16 -43 46l-13 8q6 127 51 159q8 31 54.5 67t79.5 36q20 0 60 -14.5t60 -14.5l43 8v7h54q25 12 63 12q113 0 180 -35l13 4q139 -72 153 -115l29 -20q10 -12 20 -23l11 -10l6 -16l8 -21l20 -26q33 -49 45.5 -100.5t20.5 -116.5v-41q2 -119 -33 -166q-12 -29 -17 -45.5 t-22 -32.5l-14 -10l4 -15q-111 -152 -244 -170v-4q-76 -6 -235 -16l-25 12h-30l-21 12q-23 -4 -59 15q-20 0 -59.5 -14.5t-55.5 -14.5l-20 2l-9 12q-57 16 -107 92t-50 138z" />
<glyph unicode="&#x44e;" horiz-adv-x="2111" d="M70 141q39 43 94 123l-8 27l14 8v416q-100 72 -100 114q0 4 10 23.5t6 30.5q23 20 119 53q88 29 102 53l8 -2l72 21l14 -2l56 26q12 -2 35.5 3t31.5 5q41 0 121 -10q8 -14 19 -78q8 -51 0 -311q0 -59 57 -80.5t115 29.5q-2 18 2 29.5t4 21.5l12 8l-4 21l18 16l-4 4 q14 33 43 62l-2 4q76 94 203 170q147 88 270 88h195q16 0 50 -9.5t50 -9.5q25 -16 88 -26q4 -10 66 -37q129 -88 190 -209l-4 -12q27 -63 33 -226q-16 -14 -16 -34q0 -8 2 -17l4 -2q-10 -37 -29 -45v-31l-14 -6v-16l-15 -10l2 -2q-14 -27 -59 -70l6 -6q-59 -55 -153 -115 q-127 -80 -191 -70q-29 -14 -76 -16v-4l-194 -4l-25 12h-31l-20 12h-33l-8 13h-35l-8 12q-55 10 -104 57h-19q-27 18 -67.5 71.5t-57.5 68.5l-10 12q-6 16 -16 47l-27 37q-25 -16 -72 -25q-31 -12 -118 13q0 -31 10 -68q8 -23 36.5 -92.5t28.5 -75.5l-2 -20l-28 -25l4 -10 q-18 -12 -93 -34t-98 -22h-246q-12 0 -36.5 7.5t-36.5 7.5l-11 12q-84 6 -108 72h-10zM1270 719l6 -164h4q23 -147 47 -162l-4 -12q14 -45 55 -88q0 -10 43 -53q27 0 29 -15h51q29 0 65 29t36 57l14 11l2 53q2 53 -25 186q-29 145 -63 174l4 4q-96 94 -139 95q-35 0 -97 -54 v-16l-14 -8q2 -37 -14 -37z" />
<glyph unicode="&#x44f;" horiz-adv-x="1423" d="M63 147q90 70 119 64l66 51l-4 10q0 2 9 12.5t9 20.5l21 8l18 25q20 16 33 41l14 29l10 26v35l-65 12l-19 13q-20 18 -51 26q-23 31 -53 60q2 25 -25 47l2 12l-20 25v108q16 14 16 35q0 6 -2 14l15 10q29 57 102 113h4q35 23 133 53l99 31q219 2 90 4q55 -2 84 -16h77 l97 4q70 10 108.5 7t59.5 -5l12 4q18 -12 65 6q-14 2 95 2q12 0 36.5 -11t24.5 -22v-702q0 -12 47 -49q12 -8 66 -84l-4 -47q-27 -8 -27 -25q0 -4 2 -8h-10q-23 -18 -53 -27q-4 -10 -66.5 -24.5t-85.5 -14.5h-248q-14 10 -49 13.5t-49 13.5h-33l-10 12q-14 23 -29.5 41.5 t-17.5 65.5l10 35l39 84l-2 16l10 23l2 69q-27 39 -72 14.5t-71 -100.5q-16 -25 -28.5 -51.5t-31.5 -52.5l-26 -66q-18 -25 -51 -47q-25 -33 -45.5 -43t-55.5 -24h-147q-12 0 -37 6t-37 6q-39 18 -65 47zM543 752q0 -31 14 -45q-4 -10 -4 -19q0 -10 19.5 -25.5t23.5 -21.5 q25 4 29 -12q12 -2 49 -2q72 0 104 41q-2 23 15 24l-5 4q-2 -8 -2 15v30q0 23 15 31v84q-14 14 -15 21q2 4 2 6q-14 27 -49 26h-94l-6 -2q-2 -14 -16 -14q-6 2 -9 2q-2 -4 -29.5 -24.5t-27.5 -39.5q-8 -6 -10 -10h-4v-69z" />
<glyph unicode="&#x451;" horiz-adv-x="1247" d="M70 455v147h4l4 60l14 8l-2 8q10 25 33 70l14 6v18l15 6l-2 6q45 51 155 154h6q41 20 115 59q20 -4 78.5 16.5t77.5 20.5h163q12 0 37 -6t37 -6l8 -12l17 4l43 -21l14 4q31 -18 96 -45q131 -143 148 -176q33 -59 33 -198q0 -18 -31 -35l2 -6q-14 -20 -45 -37h-555 q-25 -12 -25 -39l4 -23l15 -10q-2 -10 -6 -18q51 -59 174 -113l10 2l10 -12q18 -2 70 -2q45 0 125 32l121 50v4h10q33 0 82 -62q-2 -61 -15 -82l-16 -8v-16l-39 -33q-23 -18 -47 -27q-12 -23 -43 -24q-84 -53 -203 -72q-55 -8 -223 -12q-16 10 -77.5 22.5t-82.5 22.5l-10 -4 l-29 20l-10 -4q-10 25 -43 27l-47 45q-33 8 -49 26q0 16 -43 50l2 10q-41 41 -62 108h-10q-8 33 -18 97h-4zM217 1229q-2 25 0 53q12 18 18.5 23.5t14.5 17.5q25 14 39 20l100 13l8 8h164q4 -14 25 -14q20 -16 26 -31.5t13 -48.5v-33q-14 -43 -68 -72q-68 -35 -125 -45 l-88 -2q-41 2 -68 23l-32 28q-18 14 -21 45zM494 711q0 -47 45 -62q39 4 82 2q90 -6 84 -6q33 0 67 12q47 16 47 41v93l-14 10q-6 18 -31 43q-23 18 -43 37h-18l-11 12q-23 4 -40 4q-49 0 -154 -80q4 -25 -12 -26q0 6 -2 -9v-71zM731 1231q-2 25 0 53q12 18 18.5 23.5 t14.5 17.5q25 14 39 21l100 12l8 8h164q4 -14 25 -14q20 -16 26.5 -31.5t12.5 -48.5v-33q-14 -43 -68 -72q-68 -35 -125 -45l-88 -2q-41 2 -67 23l-33 28q-18 14 -21 46z" />
<glyph unicode="&#x2000;" horiz-adv-x="880" />
<glyph unicode="&#x2001;" horiz-adv-x="1761" />
<glyph unicode="&#x2002;" horiz-adv-x="880" />
<glyph unicode="&#x2003;" horiz-adv-x="1761" />
<glyph unicode="&#x2004;" horiz-adv-x="587" />
<glyph unicode="&#x2005;" horiz-adv-x="440" />
<glyph unicode="&#x2006;" horiz-adv-x="293" />
<glyph unicode="&#x2007;" horiz-adv-x="293" />
<glyph unicode="&#x2008;" horiz-adv-x="220" />
<glyph unicode="&#x2009;" horiz-adv-x="352" />
<glyph unicode="&#x200a;" horiz-adv-x="97" />
<glyph unicode="&#x2010;" horiz-adv-x="776" d="M106 444q0 29 15 43v50q10 2 10 14q0 20 10 22q-2 10 9.5 21.5t11.5 17.5l-2 6l14 9v16q10 -2 27.5 7t25.5 9l13 -2l10 -14h418q2 10 2 -43q0 -25 -15 -35l-2 -8q0 -35 -14 -37v-28l-14 -9v-28l-13 -11q0 -2 2 -6q0 -6 -14 -15t-14 -15l2 -9l-15 -8h-325q-55 0 -135 4 q-6 37 -7 49z" />
<glyph unicode="&#x2011;" horiz-adv-x="776" d="M106 444q0 29 15 43v50q10 2 10 14q0 20 10 22q-2 10 9.5 21.5t11.5 17.5l-2 6l14 9v16q10 -2 27.5 7t25.5 9l13 -2l10 -14h418q2 10 2 -43q0 -25 -15 -35l-2 -8q0 -35 -14 -37v-28l-14 -9v-28l-13 -11q0 -2 2 -6q0 -6 -14 -15t-14 -15l2 -9l-15 -8h-325q-55 0 -135 4 q-6 37 -7 49z" />
<glyph unicode="&#x2012;" horiz-adv-x="776" d="M106 444q0 29 15 43v50q10 2 10 14q0 20 10 22q-2 10 9.5 21.5t11.5 17.5l-2 6l14 9v16q10 -2 27.5 7t25.5 9l13 -2l10 -14h418q2 10 2 -43q0 -25 -15 -35l-2 -8q0 -35 -14 -37v-28l-14 -9v-28l-13 -11q0 -2 2 -6q0 -6 -14 -15t-14 -15l2 -9l-15 -8h-325q-55 0 -135 4 q-6 37 -7 49z" />
<glyph unicode="&#x2013;" horiz-adv-x="1236" d="M106 444q0 29 27 43v50q18 2 18 14q0 20 19 22q-4 10 17 21.5t21 17.5l-4 6l25 9v16q19 -2 50.5 7t46.5 9l23 -2l18 -14h759q4 10 4 -43q0 -25 -27 -35l-4 -8q0 -35 -25 -37v-28l-26 -9v-28l-23 -11q0 -2 3 -6q0 -6 -25.5 -15t-25.5 -15l4 -9l-27 -8h-590q-100 0 -245 4 q-11 37 -13 49z" />
<glyph unicode="&#x2014;" horiz-adv-x="2260" d="M106 444q0 29 54 43v50q37 2 37 14q0 20 36 22q-7 10 34.5 21.5t41.5 17.5l-7 6l51 9v16q36 -2 99.5 7t92.5 9l48 -2l36 -14h1518q7 10 7 -43q0 -25 -54 -35l-8 -8q0 -35 -51 -37v-28l-50 -9v-28l-48 -11q0 -2 8 -6q0 -6 -51 -15t-51 -15l7 -9l-54 -8h-1180 q-200 0 -491 4q-21 37 -25 49z" />
<glyph unicode="&#x2018;" horiz-adv-x="632" d="M111 903v84q12 8 14 39t16 37v45l15 8q0 8 9 21.5t9 21.5l-2 10q8 2 14.5 19.5t16.5 19.5l-6 6q10 0 14 19.5t16 19.5q-2 4 -2 9q0 10 17.5 21t17.5 17l-2 11q12 4 55 53q39 41 80 41h17l22 -14h8l13 -25l-7 -29q-8 -2 -13 -17t-13 -17q2 -8 -14.5 -23.5t-16.5 -23 t-16.5 -26t-16.5 -28.5l4 -14q-16 -10 -16 -35v-51l133 -111q-4 -14 17 -43q23 -37 24 -45l4 -88l-14 -8q2 -6 2 -10q0 -8 -10.5 -16.5t-10.5 -16.5l3 -10l-15 -21v-6q-66 -41 -82 -41h-10q-12 -14 -41 -14q-57 0 -51 2l-21 12q-35 0 -41 14q-37 10 -55 37q-31 45 -37 49 q4 23 -8 29l-10 49h-6q-4 20 -4 39z" />
<glyph unicode="&#x2019;" horiz-adv-x="628" d="M109 1229q0 29 16 43q-2 6 -2 10q0 8 9 18.5t9 18.5v6l11 6q0 27 36 45q31 14 60 15q14 14 45 14q111 0 174 -82q57 -74 57 -188q0 -41 -16 -68q4 -25 -8.5 -46.5t-12.5 -33.5l5 -16l-15 -19v-22l-16 -8q-18 -45 -31 -68q-16 -2 -14 -20v-7q-27 -25 -35 -39 q2 -18 -21 -34q-29 -18 -30 -23q2 -4 2 -8q0 -6 -10.5 -12t-12.5 -11q-12 -2 -35.5 -14t-37.5 -12q-8 0 -24.5 6t-25.5 6q-8 33 -4 49l15 8q-4 8 13 25.5t17 26.5v2l45 67l-4 4q16 14 17 47q0 68 -2 60l-131 115q4 8 -6.5 16t-10.5 10l6 4q-16 4 -16 21q0 31 -14 33 q-2 -6 -2 55z" />
<glyph unicode="&#x201c;" horiz-adv-x="1245" d="M104 948q0 41 23 58q-8 29 -6 45q16 6 16 24q0 33 15 37q-2 10 8 25.5t10 19.5l-4 12l16 9v18l15 8q35 72 61 94l-4 5q14 8 34.5 37.5t35.5 37.5q6 -2 10 -4q6 0 10 9.5t10 9.5l11 -2q18 14 36 14l15 -4l10 -10q23 0 23 -17q0 -43 -33 -78v-6q-10 -6 -21.5 -14t-11.5 -19 l2 -8q-16 -20 -25 -41v-20l-16 -10q-6 -18 -6 -35q0 -41 84 -109.5t84 -107.5l-4 -13q23 -12 22 -43q0 14 -6 -55l-12 -12q0 -16 -14.5 -39t-14.5 -33l-20 -20q-12 -12 -27 -13l-4 2q-2 -14 -20 -14q-31 0 -35 -8q-31 -6 -49 -6q-33 0 -43 14h-35l-11 14h-20q-2 4 -37 33 q-25 23 -24 37q-16 2 -17 21q0 27 -14 28l-2 10q0 6 2 17q2 10 0 14q-4 8 -15 12q0 -14 -1 12.5t-1 63.5zM727 868v123q16 6 16 27q0 66 -2 26q0 12 17 25q-2 14 -4 27q0 6 14 30q-2 18 10 21q4 14 31 58t35 48q-4 12 13 29.5t17 26.5v2q29 16 31 41l62 39q10 -2 25.5 6 t23.5 8q16 0 26 -14l21 -5v-32q0 -18 -14 -25q4 -8 -7.5 -19.5t-11.5 -15.5l2 -4q-8 -4 -19.5 -22.5t-21.5 -22.5q4 -10 -7 -24.5t-11 -20.5l4 -12q-16 -10 -16 -33v-53l133 -115q2 -18 25.5 -64t21.5 -73l-2 -31l-15 -18q0 -29 -16 -31q4 -4 4 -10t-11 -11.5t-11 -11.5 l4 -10q-8 -2 -20.5 -15.5t-20.5 -13.5l-11 2l-18 -14q-31 4 -37 -8l-82 -4l-10 12h-37l-8 14q-66 16 -82 70l-14 12q6 27 -6 33q-6 49 -21 53z" />
<glyph unicode="&#x201d;" horiz-adv-x="1245" d="M104 1229q0 29 17 39q-10 41 39 82q43 33 88 41q12 14 39 14h49q4 -10 18 -12q4 -2 27 -2q2 -14 25 -13h6l65 -63l-4 -4q14 -6 14 -21q0 -31 17 -37q-4 -37 10 -45q4 -16 4 -39v-84q-16 -6 -16 -26q0 -45 2 -39l-17 -10q4 -14 5 -25q0 -12 -10.5 -20.5t-10.5 -12.5 q4 -6 6 -8q-33 -84 -61 -102v-15l-15 -8q4 -10 -13 -26.5t-17 -22.5v-4q-12 -4 -60 -53q-37 -41 -84 -41l-14 2l-10 12h-21l-2 35q-2 18 19 22q-4 10 13 26.5t17 25.5l-2 8q8 2 13.5 17.5t13.5 17.5v12l14 8q25 51 25 72q0 45 -62 94q-70 55 -79 78q-10 2 -16.5 18.5 t-14.5 18.5q0 33 -15 39q-2 -6 -2 51zM721 1210q0 10 6 54q31 49 41 75v7l20 20q12 12 27 12h8l19 13q35 0 37 14h24q76 0 115 -27h10q33 -29 49 -43q27 -23 27 -55v-8l20 -23q-4 -35 4 -41q6 -18 7 -53v-70l-17 -18q0 -6 3 -19.5t3 -19.5q-4 -8 -18 -24q6 -37 -12 -43 q-4 -35 -17 -50l2 -2l-16 -18q0 -18 -14 -19q2 -6 4 -10q0 -6 -12.5 -11t-12.5 -11l4 -13l-14 -8q2 -10 -15.5 -25.5t-17.5 -21.5l2 -10q-6 -2 -54 -46t-81 -44q-20 0 -45 16l-8 -2v49l14 8v19l16 8q-4 4 -4 10q0 8 16.5 17.5t18.5 13.5q-6 2 -6 6q0 2 8 9.5t8 11.5 q35 43 31 100l-2 37l-147 123q4 8 4 14q0 8 -11.5 19.5t-11.5 19.5l4 14q-16 16 -16 45z" />
<glyph unicode="&#x201e;" horiz-adv-x="1245" d="M104 244q0 29 17 39q-10 41 39 82q43 33 88 41q12 14 39 14h49q4 -10 18 -12q4 -2 27 -2q2 -14 25 -13h6l65 -63l-4 -4q14 -6 14 -21q0 -31 17 -37q-4 -37 10 -45q4 -16 4 -39v-84q-16 -6 -16 -26q0 -45 2 -39l-17 -10q4 -14 5 -25q0 -12 -10.5 -20.5t-10.5 -12.5 q4 -6 6 -8q-33 -84 -61 -102v-15l-15 -8q4 -10 -13 -26.5t-17 -22.5v-4q-12 -4 -60 -53q-37 -41 -84 -41l-14 2l-10 12h-21l-2 35q-2 18 19 22q-4 10 13 26.5t17 25.5l-2 8q8 2 13.5 17t13.5 18v12l14 8q25 51 25 72q0 45 -62 94q-70 55 -79 78q-10 2 -16.5 18.5t-14.5 18.5 q0 33 -15 39q-2 -6 -2 51zM721 225q0 10 6 54q31 49 41 75v6l20 21q12 12 27 12h8l19 13q35 0 37 14h24q76 0 115 -27h10q33 -29 49 -43q27 -23 27 -55v-8l20 -23q-4 -35 4 -41q6 -18 7 -53v-70l-17 -18q0 -6 3 -19.5t3 -19.5q-4 -8 -18 -25q6 -37 -12 -43q-4 -35 -17 -49 l2 -2l-16 -18q0 -18 -14 -19q2 -6 4 -10q0 -6 -12.5 -11t-12.5 -11l4 -13l-14 -8q2 -10 -15.5 -25.5t-17.5 -21.5l2 -10q-6 -2 -54 -46t-81 -44q-20 0 -45 16l-8 -2v49l14 8v19l16 8q-4 4 -4 10q0 8 16.5 17.5t18.5 13.5q-6 2 -6 6q0 2 8 9t8 12q35 43 31 100l-2 37 l-147 123q4 8 4 14q0 8 -11.5 19.5t-11.5 19.5l4 14q-16 16 -16 45z" />
<glyph unicode="&#x202f;" horiz-adv-x="352" />
<glyph unicode="&#x205f;" horiz-adv-x="440" />
<glyph unicode="&#x25fc;" horiz-adv-x="1054" d="M0 0v1055h1055v-1055h-1055z" />
</font>
</defs>
</svg>
